<svg width="150" height="150" viewBox="0 0 150 150" fill="none" xmlns="http://www.w3.org/2000/svg">
<g clip-path="url(#clip0_5_4184)">
<path d="M131.51 0H18.4896C8.27807 0 0 8.27807 0 18.4896V131.51C0 141.722 8.27807 150 18.4896 150H131.51C141.722 150 150 141.722 150 131.51V18.4896C150 8.27807 141.722 0 131.51 0Z" fill="white"/>
<path d="M36.9491 110.711C36.9491 109.553 37.5418 108.964 38.727 108.943C39.9122 108.921 40.5048 109.496 40.5048 110.667L40.4412 118.267C40.4412 119.075 40.072 119.473 39.3335 119.461L31.7767 119.514C29.1636 119.514 27.057 118.714 25.4568 117.114C23.8566 115.514 23.0598 113.407 23.0664 110.794C23.0664 108.176 23.8652 106.068 25.4628 104.47C27.0603 102.873 29.1431 102.056 31.7111 102.02L38.9497 102C39.958 101.984 40.4631 102.561 40.4631 103.724C40.4631 104.888 39.9719 105.463 38.9935 105.449L38.1423 105.49L31.7548 105.512C30.2222 105.541 28.9727 106.047 28.0062 107.03C27.0397 108.012 26.5572 109.267 26.5585 110.794C26.5585 113.001 27.4527 114.549 29.2412 115.436C30.0308 115.832 30.903 116.037 31.7866 116.032L36.098 115.969C36.6648 116.012 36.9491 115.756 36.9491 115.203V110.711Z" fill="black"/>
<path d="M51.9058 102.074C54.5414 102.074 56.6533 102.869 58.2416 104.46C59.8299 106.051 60.6253 108.163 60.628 110.796C60.628 113.413 59.8292 115.52 58.2317 117.118C56.6341 118.715 54.5262 119.511 51.9078 119.504C49.2974 119.504 47.1914 118.704 45.5899 117.104C43.9884 115.504 43.1856 113.4 43.1816 110.794C43.1816 108.176 43.9804 106.068 45.578 104.47C47.1755 102.873 49.2848 102.074 51.9058 102.074ZM51.9058 105.556C50.352 105.556 49.0925 106.047 48.1274 107.03C47.1622 108.012 46.6797 109.267 46.6797 110.794C46.6797 113.001 47.5739 114.549 49.3623 115.436C50.1513 115.832 51.0228 116.036 51.9058 116.032C53.9223 116.032 55.4237 115.237 56.4101 113.646C56.9191 112.784 57.1736 111.795 57.1439 110.794C57.1439 109.139 56.605 107.833 55.5271 106.874C54.5295 105.994 53.236 105.523 51.9058 105.556V105.556Z" fill="black"/>
<path d="M79.1419 115.967C80.1495 115.982 80.6539 116.572 80.6553 117.734C80.6566 118.897 80.1521 119.486 79.1419 119.502H71.9828C69.3697 119.502 67.2631 118.702 65.6629 117.102C64.0627 115.502 63.264 113.399 63.2666 110.794C63.2666 108.176 64.0654 106.068 65.6629 104.47C67.2605 102.873 69.3571 102.056 71.953 102.02L79.1499 102C80.1581 101.984 80.6632 102.561 80.6632 103.724C80.6632 104.888 80.172 105.463 79.1936 105.449L78.6388 105.49L71.953 105.512C70.4217 105.541 69.1729 106.047 68.2064 107.03C67.2399 108.012 66.7573 109.267 66.7587 110.794C66.7587 113.001 67.6529 114.549 69.4413 115.436C70.2186 115.828 71.0826 116.019 71.953 115.988L79.1419 115.967Z" fill="black"/>
<path d="M83.2939 108.09V103.81C83.2939 102.653 83.8866 102.063 85.0718 102.042C86.257 102.021 86.8284 102.603 86.786 103.788V117.744C86.8297 118.923 86.2583 119.505 85.0718 119.49C83.8786 119.471 83.2939 118.88 83.2939 117.724V108.09ZM100.669 108.09V103.81C100.669 102.653 100.076 102.063 98.8908 102.042C97.7056 102.021 97.1342 102.603 97.1766 103.788V107.964C97.1766 108.674 96.8783 109.029 96.2817 109.03H90.3994C89.2062 109.052 88.8562 109.641 88.8562 110.798C88.8562 111.955 89.1644 112.528 90.3994 112.5L96.1982 112.478C96.8505 112.478 97.1766 112.82 97.1766 113.501V117.748C97.1355 118.927 97.7069 119.509 98.8908 119.494C100.084 119.474 100.669 118.884 100.669 117.728V108.09Z" fill="black"/>
<path d="M103.415 108.09V103.81C103.415 102.653 104.008 102.063 105.193 102.042C106.378 102.021 106.95 102.603 106.907 103.788V117.744C106.948 118.923 106.377 119.505 105.193 119.49C104 119.471 103.415 118.88 103.415 117.724V108.09Z" fill="black"/>
<path d="M118.65 112.5L113.028 112.478V114.716C113.028 115.567 113.37 115.986 114.05 115.971H125.421C126.428 115.986 126.931 116.576 126.933 117.738C126.934 118.901 126.404 119.476 125.342 119.463H121.034L111.411 119.484C110.16 119.484 109.535 118.803 109.536 117.44V104.065C109.536 102.703 110.133 102.022 111.326 102.02L125.421 102C126.428 101.984 126.933 102.561 126.933 103.724C126.933 104.888 126.444 105.463 125.463 105.449H114.05C113.37 105.49 113.028 105.91 113.028 106.705V109.026H118.724C119.909 109.049 120.501 109.638 120.501 110.794C120.501 111.95 119.884 112.519 118.65 112.5Z" fill="black"/>
<path d="M69.7278 48.0617C69.41 48.062 69.1022 47.9507 68.8582 47.7472C68.6141 47.5437 68.4492 47.261 68.3923 46.9484H66.1372C65.5359 46.9481 64.9394 47.0548 64.3755 47.2635C63.6199 47.6311 62.9199 48.1033 62.296 48.6662C60.7432 50.1161 59.5773 51.9311 58.9043 53.9462C60.3442 54.0333 61.6966 54.6667 62.6854 55.7171C63.6741 56.7675 64.2247 58.1556 64.2247 59.5982C64.2247 61.0407 63.6741 62.4289 62.6854 63.4793C61.6966 64.5297 60.3442 65.1631 58.9043 65.2502C59.5773 67.2653 60.7432 69.0802 62.296 70.5302C62.9192 71.0939 63.6194 71.5662 64.3755 71.9329C64.9394 72.1416 65.5359 72.2483 66.1372 72.248H68.3923C68.4492 71.9356 68.6139 71.6531 68.8577 71.4497C69.1015 71.2463 69.409 71.1349 69.7265 71.1349C70.044 71.1349 70.3515 71.2463 70.5953 71.4497C70.8391 71.6531 71.0038 71.9356 71.0607 72.248H91.8321V68.7736H84.3925C83.8345 68.7732 83.2826 68.6583 82.7708 68.4362C82.2589 68.214 81.7981 67.8893 81.4167 67.482L76.5216 62.202C75.826 61.4517 75.4396 60.4663 75.4396 59.4432C75.4396 58.4201 75.826 57.4347 76.5216 56.6844L81.4167 51.4043C81.7982 50.9972 82.259 50.6725 82.7708 50.4504C83.2827 50.2283 83.8346 50.1134 84.3925 50.1128H89.7009H101.067H101.227H101.744C101.325 49.1882 100.651 48.4021 99.8013 47.8463C98.9519 47.2906 97.9618 46.9881 96.9467 46.9742H71.0607C70.999 47.2819 70.8324 47.5586 70.5892 47.7569C70.3461 47.9553 70.0416 48.063 69.7278 48.0617V48.0617ZM71.0814 68.8072C71.0661 69.1563 70.9167 69.4861 70.6643 69.7277C70.4119 69.9693 70.0759 70.1042 69.7265 70.1042C69.3771 70.1042 69.0411 69.9693 68.7887 69.7277C68.5363 69.4861 68.3869 69.1563 68.3716 68.8072V65.1236C68.3637 64.9407 68.3928 64.7581 68.4573 64.5867C68.5218 64.4154 68.6203 64.2589 68.7469 64.1266C68.8735 63.9944 69.0255 63.8891 69.1939 63.8172C69.3623 63.7453 69.5434 63.7083 69.7265 63.7083C69.9096 63.7083 70.0908 63.7453 70.2591 63.8172C70.4275 63.8891 70.5796 63.9944 70.7062 64.1266C70.8328 64.2589 70.9313 64.4154 70.9958 64.5867C71.0603 64.7581 71.0894 64.9407 71.0814 65.1236V68.8072ZM71.0814 61.44C71.0894 61.6229 71.0603 61.8055 70.9958 61.9769C70.9313 62.1482 70.8328 62.3047 70.7062 62.437C70.5796 62.5692 70.4275 62.6745 70.2591 62.7464C70.0908 62.8183 69.9096 62.8553 69.7265 62.8553C69.5434 62.8553 69.3623 62.8183 69.1939 62.7464C69.0255 62.6745 68.8735 62.5692 68.7469 62.437C68.6203 62.3047 68.5218 62.1482 68.4573 61.9769C68.3928 61.8055 68.3637 61.6229 68.3716 61.44V57.7512C68.3869 57.4021 68.5363 57.0724 68.7887 56.8307C69.0411 56.5891 69.3771 56.4542 69.7265 56.4542C70.0759 56.4542 70.4119 56.5891 70.6643 56.8307C70.9167 57.0724 71.0661 57.4021 71.0814 57.7512V61.44ZM71.0814 50.3917V54.0728C71.0894 54.2557 71.0603 54.4383 70.9958 54.6096C70.9313 54.781 70.8328 54.9375 70.7062 55.0697C70.5796 55.202 70.4275 55.3072 70.2591 55.3791C70.0908 55.451 69.9096 55.4881 69.7265 55.4881C69.5434 55.4881 69.3623 55.451 69.1939 55.3791C69.0255 55.3072 68.8735 55.202 68.7469 55.0697C68.6203 54.9375 68.5218 54.781 68.4573 54.6096C68.3928 54.4383 68.3637 54.2557 68.3716 54.0728V50.3917C68.3637 50.2088 68.3928 50.0262 68.4573 49.8549C68.5218 49.6835 68.6203 49.527 68.7469 49.3948C68.8735 49.2625 69.0255 49.1573 69.1939 49.0854C69.3623 49.0135 69.5434 48.9764 69.7265 48.9764C69.9096 48.9764 70.0908 49.0135 70.2591 49.0854C70.4275 49.1573 70.5796 49.2625 70.7062 49.3948C70.8328 49.527 70.9313 49.6835 70.9958 49.8549C71.0603 50.0262 71.0894 50.2088 71.0814 50.3917V50.3917Z" fill="url(#paint0_linear_5_4184)"/>
<path d="M101.762 52.7992H101.423H101.108L89.7087 52.8121H84.3925C84.2071 52.8119 84.0237 52.8501 83.8539 52.9244C83.6841 52.9986 83.5315 53.1073 83.4057 53.2435L78.4977 58.521C78.266 58.7696 78.1372 59.0968 78.1372 59.4367C78.1372 59.7765 78.266 60.1038 78.4977 60.3524L83.4057 65.6324C83.5315 65.7687 83.6841 65.8773 83.8539 65.9516C84.0237 66.0258 84.2071 66.064 84.3925 66.0638H93.196C93.5529 66.0638 93.8952 66.2056 94.1476 66.458C94.4 66.7104 94.5418 67.0527 94.5418 67.4097V76.4869C94.5418 78.4329 93.6153 79.4059 91.7623 79.4059C91.6383 79.4059 91.504 79.4059 91.3723 79.393H91.2741L75.0001 79.6332C71.6576 79.6524 68.3579 78.8815 65.37 77.3833C58.6021 74.0286 55.2173 68.1734 55.2155 59.8177C55.2155 54.0417 57.0427 49.2938 60.697 45.5741C64.2377 41.9576 68.7901 40.0487 74.3543 39.8472L85.0796 39.811H88.2621C92.1188 39.6689 93.8573 37.5171 93.8573 33.1128C93.8573 28.761 91.9965 26.5851 88.275 26.5851H88.1381H86.2085V26.5619L74.7134 26.5955C64.9868 26.7298 57.103 29.8184 51.0618 35.8613C45.0206 41.9042 42 49.8897 42 59.8177C42 69.7009 45.0292 77.6718 51.0876 83.7302C57.146 89.7886 65.1168 92.8135 75.0001 92.8049L103.567 92.6034H103.712C106.409 92.6034 107.757 91.0983 107.757 88.088L107.943 66.0974L108 59.3217C108 55.0819 105.921 52.9077 101.762 52.7992Z" fill="url(#paint1_linear_5_4184)"/>
</g>
<defs>
<linearGradient id="paint0_linear_5_4184" x1="58.9043" y1="59.5982" x2="101.744" y2="59.5982" gradientUnits="userSpaceOnUse">
<stop stop-color="#F34C91"/>
<stop offset="1" stop-color="#791244"/>
</linearGradient>
<linearGradient id="paint1_linear_5_4184" x1="42" y1="59.6834" x2="108" y2="59.6834" gradientUnits="userSpaceOnUse">
<stop stop-color="#F34C91"/>
<stop offset="1" stop-color="#791244"/>
</linearGradient>
<clipPath id="clip0_5_4184">
<rect width="150" height="150" fill="white"/>
</clipPath>
</defs>
</svg>
