<svg width="394" height="125" viewBox="0 0 394 125" fill="none" xmlns="http://www.w3.org/2000/svg">
<g clip-path="url(#clip0_976_29195)">
<path d="M154.631 77.4206L153.009 79.645C152.729 79.9528 152.379 80.1767 151.987 80.3026C151.47 80.4984 150.91 80.5684 150.364 80.4705C149.861 80.3725 149.413 80.1067 149.091 79.701C148.63 79.0015 148.434 78.1621 148.532 77.3227V52.0988C148.532 51.2454 148.574 50.406 148.658 49.5666C148.714 48.937 148.77 48.3494 148.826 47.9437L148.993 46.8105H147.818C143.887 46.8105 140.837 47.6639 138.753 49.3148C136.668 50.9656 135.507 53.8475 135.507 57.6528L135.423 78.4279C135.423 79.9668 135.661 81.5057 136.151 82.9607C137.088 85.9265 139.326 88.3048 142.236 89.424C143.495 89.9137 144.838 90.1515 146.181 90.1375C146.629 90.1375 147.077 90.1235 147.524 90.0816C149.357 90.0816 151.12 89.3681 152.435 88.081C153.372 87.1157 154.072 85.9405 154.477 84.6535C154.869 83.1985 155.009 81.6736 154.869 80.1627L154.631 77.4206Z" fill="#F47621"/>
<path d="M139.424 41.5915C140.403 42.0671 141.481 42.3189 142.572 42.3049C143.831 42.3189 145.062 41.9972 146.139 41.3676C147.217 40.7381 148.098 39.8287 148.686 38.7375C149.903 36.653 149.945 34.0788 148.783 31.9663C148.21 30.9171 147.315 30.0637 146.237 29.5461C144.181 28.3989 141.663 28.4549 139.648 29.686C138.557 30.3295 137.661 31.2529 137.06 32.3581C136.43 33.4213 136.095 34.6384 136.109 35.8696C136.095 38.2479 137.368 40.4443 139.424 41.5915Z" fill="#F47621"/>
<path d="M171.909 57.554C172.623 56.7845 173.518 56.183 174.511 55.8192C175.281 55.5394 176.106 55.3855 176.917 55.3436C178.051 55.3436 179.17 55.4555 180.261 55.7073C181.268 55.9451 182.248 56.2389 183.213 56.6027L185.773 57.4421C186.613 57.7358 187.494 57.8897 188.389 57.8897C189.383 57.9457 190.362 57.6939 191.187 57.1623C192.209 56.6586 193.048 55.8472 193.594 54.8539L194.405 53.8606L193.538 53.0212C191.425 50.7548 188.851 48.9501 185.997 47.733C183.129 46.5019 180.037 45.8863 176.917 45.9143C174.05 45.8723 171.21 46.4319 168.579 47.5511C165.949 48.6703 163.599 50.3212 161.654 52.4197C159.822 54.4902 158.395 56.8825 157.429 59.4706C156.422 62.2126 155.904 65.1086 155.932 68.0325C155.904 70.9844 156.464 73.9083 157.569 76.6363C159.626 81.8406 163.641 86.0376 168.761 88.304C171.363 89.4791 174.189 90.0947 177.043 90.0667C183.283 90.1087 189.257 87.5485 193.538 83.0018L194.321 82.2183L193.817 81.225L193.719 81.0711C193.062 80.1618 192.25 79.3923 191.327 78.7768C189.62 77.8954 187.606 77.7975 185.815 78.483C184.99 78.7488 184.122 79.0706 183.255 79.4063C182.29 79.7141 181.31 79.9799 180.317 80.1758C179.212 80.3996 178.079 80.5115 176.945 80.5115C176.12 80.4836 175.309 80.3157 174.525 80.0359C173.532 79.6721 172.651 79.0846 171.923 78.3011C170.93 77.2099 170.188 75.9228 169.727 74.5238C169.041 72.3974 168.733 70.1869 168.803 67.9625C168.733 65.7381 169.055 63.5137 169.727 61.3872C170.202 59.9742 170.93 58.6732 171.909 57.554Z" fill="#F47621"/>
<path d="M237.228 86.4868C237.172 85.8713 237.13 84.9899 237.088 83.9127C237.046 82.8354 237.088 81.3805 237.088 79.6317V65.9775C237.2 62.536 236.571 59.1084 235.242 55.9187C234.15 53.4705 232.458 51.33 230.331 49.6932C228.345 48.1962 226.05 47.161 223.616 46.6434C221.252 46.1397 218.831 45.8739 216.411 45.8739C214.942 45.8739 213.487 45.9718 212.032 46.1397C210.983 46.2656 209.934 46.4755 208.912 46.7553V31.2404C208.912 30.1352 208.996 29.2958 209.038 28.6662C209.08 28.0367 209.15 27.4911 209.206 27.1693L209.402 25.9941H208.199C204.268 25.9941 201.246 26.8195 199.217 28.4564C197.189 30.0932 196.056 32.9332 196.056 36.7524L195.972 78.3726C195.972 82.136 197.077 84.92 199.259 86.6407C201.442 88.3615 204.436 89.1449 208.367 89.1449H209.57L209.374 87.9698C209.29 87.4661 209.234 86.9625 209.206 86.4589C209.15 85.8433 209.108 84.9759 209.08 83.8847C209.052 82.7935 209.08 81.3525 209.08 79.6038V65.9635C209.024 64.0609 209.248 62.1583 209.738 60.3116C210.074 59.1504 210.647 58.0872 211.445 57.1778C212.046 56.5063 212.816 56.0027 213.683 55.7229C215.446 55.2052 217.32 55.2052 219.083 55.7229C219.951 56.0027 220.72 56.4923 221.336 57.1778C222.133 58.1012 222.721 59.1644 223.084 60.3256C223.616 62.1583 223.84 64.0609 223.784 65.9635L223.882 78.3587C223.882 82.122 225.015 84.92 227.225 86.6267C229.436 88.3335 232.444 89.1309 236.389 89.1309H237.592L237.396 87.9558C237.354 87.7599 237.298 87.3122 237.228 86.4868Z" fill="#F47621"/>
<path d="M278.275 46.4044C276.694 46.5582 275.141 46.9919 273.714 47.6914C271.937 48.5868 270.58 50.1257 269.909 52.0003C269.601 52.6719 269.223 53.5532 268.818 54.6584C268.412 55.7637 267.936 56.9248 267.432 58.2119C266.929 59.499 266.411 60.842 265.782 62.213C265.152 63.5841 264.607 65.053 264.075 66.452C263.054 68.9562 261.976 71.6563 260.885 74.5102C259.752 71.6563 258.703 68.9982 257.723 66.522C257.178 65.109 256.632 63.696 256.073 62.269C255.513 60.842 254.967 59.527 254.45 58.2679C253.932 57.0088 253.429 55.7776 253.009 54.6864C252.589 53.5952 252.225 52.7698 251.988 52.0703C251.274 50.2096 249.903 48.6707 248.14 47.7474C246.713 47.0199 245.174 46.5722 243.58 46.4044C241.761 46.2924 239.942 46.4463 238.165 46.88L237.074 47.1178L237.438 48.1671C237.62 48.7127 237.844 49.2863 238.068 49.7899C238.291 50.2936 238.473 50.7832 238.725 51.3428L239.425 52.8817C239.844 53.945 240.446 55.4419 241.271 57.3865L243.957 63.8499C244.937 66.2282 245.986 68.7184 247.105 71.2925C248.224 73.8667 249.259 76.3429 250.239 78.6793L252.925 85.0587C253.736 86.9753 254.38 88.4722 254.855 89.5215L255.023 89.8992L255.415 90.0531C256.716 90.5707 258.087 90.8366 259.486 90.8505H260.312C261.864 90.6687 263.375 90.207 264.76 89.4935C266.579 88.5002 268.034 86.9753 268.957 85.1147C269.447 84.2193 270.049 82.9602 270.832 81.3234C271.616 79.6865 272.371 77.8678 273.224 75.8253C274.078 73.7828 274.931 71.6982 275.854 69.5018C276.778 67.3054 277.659 65.109 278.457 63.0524C279.254 60.9959 280.023 59.0513 280.751 57.2606C281.478 55.4699 282.038 54.0009 282.472 52.8537C282.64 52.3501 282.835 51.8604 283.073 51.3008C283.311 50.7413 283.535 50.2096 283.689 49.7759C283.899 49.2863 284.137 48.7966 284.388 48.321L284.962 47.1878L283.703 46.908C281.926 46.4603 280.093 46.2924 278.275 46.4044Z" fill="#F47621"/>
<path d="M316.775 49.2998C314.551 50.9926 313.432 53.7906 313.432 57.6099L313.334 70.019C313.39 71.9216 313.166 73.8243 312.662 75.6569C312.34 76.8041 311.767 77.8534 310.969 78.7487C310.354 79.4063 309.584 79.8959 308.717 80.1617C306.954 80.6794 305.066 80.6794 303.303 80.1617C302.449 79.8959 301.666 79.4063 301.05 78.7487C300.253 77.8674 299.679 76.8041 299.358 75.6569C298.854 73.8243 298.63 71.9216 298.686 70.005L298.602 56.3787V52.0978C298.602 51.2304 298.644 50.377 298.742 49.5237C298.798 48.9501 298.854 48.3485 298.896 48.0127L299.106 46.8516H297.903C293.985 46.8516 290.922 47.677 288.809 49.3138C286.697 50.9506 285.494 53.7906 285.494 57.6239L285.41 70.033C285.298 73.4605 285.913 76.8741 287.256 80.0218C288.348 82.4561 290.026 84.5826 292.125 86.2054C294.125 87.6883 296.406 88.7376 298.84 89.2832C303.527 90.3744 308.395 90.3744 313.082 89.2832C315.502 88.7376 317.782 87.6883 319.783 86.1914C321.896 84.5546 323.574 82.4421 324.694 80.0218C326.065 76.8741 326.708 73.4605 326.582 70.033L326.526 56.3787V52.0978C326.526 51.2304 326.568 50.377 326.652 49.5237C326.708 48.9501 326.764 48.3485 326.82 48.0127L327.016 46.8516H325.911C321.993 46.8516 318.888 47.663 316.775 49.2998Z" fill="#F47621"/>
<path d="M352.156 77.4213L350.533 79.6457C350.253 79.9535 349.903 80.1774 349.512 80.3033C348.994 80.4991 348.435 80.5551 347.889 80.4711C347.385 80.3732 346.938 80.1074 346.616 79.7017C346.154 79.0022 345.958 78.1628 346.056 77.3234V36.7524C346.056 32.9891 344.923 30.2191 342.713 28.4983C340.502 26.7776 337.494 25.9941 333.549 25.9941H332.374L332.528 27.1273C332.584 27.533 332.654 28.0647 332.71 28.7502C332.766 29.4357 332.808 30.2331 332.836 31.2824C332.864 32.3316 332.92 33.7866 332.962 35.5213V78.3726C332.962 79.9115 333.199 81.4504 333.689 82.9054C334.64 85.8713 336.879 88.2496 339.789 89.3688C341.048 89.8584 342.377 90.1102 343.734 90.0823C344.182 90.0963 344.643 90.0683 345.091 90.0263C346 90.0263 346.896 89.8444 347.735 89.5087C348.574 89.1729 349.33 88.6693 349.987 88.0257C350.925 87.0604 351.624 85.8853 352.03 84.5982C352.422 83.1432 352.562 81.6183 352.422 80.1074L352.156 77.4213Z" fill="#F47621"/>
<path d="M390.181 78.8763C388.488 77.953 386.459 77.855 384.669 78.6245C383.871 78.9183 383.032 79.1981 382.151 79.4919C381.185 79.7996 380.22 80.0515 379.227 80.2613C378.121 80.4851 376.988 80.5971 375.855 80.5831C375.142 80.5691 374.428 80.4432 373.743 80.2193C372.889 79.9395 372.106 79.4919 371.434 78.8903C370.539 78.0929 369.797 77.1276 369.252 76.0643C368.706 74.9871 368.328 73.8259 368.133 72.6228L370.161 72.9445C372.12 73.2383 374.106 73.3642 376.079 73.3503C377.828 73.3223 379.576 73.1544 381.297 72.8466C383.298 72.5248 385.256 71.8953 387.075 70.9999C388.922 70.0906 390.559 68.8175 391.874 67.2366C393.315 65.4039 394.056 63.1096 393.972 60.7733C394.042 58.353 393.384 55.9747 392.111 53.9182C390.936 52.0715 389.369 50.5186 387.523 49.3574C385.704 48.2242 383.717 47.3848 381.647 46.8672C379.772 46.3776 377.842 46.1117 375.897 46.0978C372.917 46.0558 369.951 46.6574 367.223 47.8465C364.719 48.9517 362.467 50.5606 360.592 52.5611C358.773 54.6177 357.346 57.0099 356.423 59.5981C355.458 62.3401 354.968 65.2221 354.982 68.118C354.954 71.0559 355.514 73.9658 356.619 76.6939C357.64 79.282 359.151 81.6463 361.054 83.6609C362.956 85.6614 365.237 87.2703 367.755 88.4035C370.315 89.5367 373.071 90.1242 375.869 90.1103C378.975 90.1382 382.039 89.5227 384.893 88.3195C387.733 87.1164 390.279 85.3257 392.391 83.0873L393.412 82.094L392.503 81.2126C391.916 80.2753 391.118 79.4639 390.181 78.8763ZM371.588 57.2478C372.26 56.6882 373.029 56.2545 373.868 55.9887C374.554 55.7788 375.253 55.6249 375.967 55.541C377.674 55.3172 379.408 55.7369 380.835 56.7162C381.311 57.0519 381.675 57.5136 381.927 58.0312C382.165 58.5488 382.262 59.1364 382.206 59.71C382.234 60.3675 382.081 61.0111 381.787 61.5987C381.493 62.1862 381.045 62.6899 380.5 63.0536C379.213 63.8091 377.772 64.2708 376.289 64.3967C374.624 64.5645 372.931 64.5226 371.266 64.2708C370.035 64.0749 369.014 63.893 368.216 63.6972C368.426 62.3961 368.832 61.123 369.448 59.9478C369.993 58.9266 370.707 58.0032 371.588 57.2478Z" fill="#F47621"/>
<path d="M124.777 39.088C121.545 31.7573 116.872 25.154 111.052 19.6559C105.163 14.1439 98.2936 9.79299 90.795 6.82711C82.9606 3.73533 74.5946 2.15446 66.1726 2.19643H29.9386C28.3857 2.19643 26.8888 2.12648 25.3219 2.08451C16.8439 1.86067 8.39399 1.16117 0 0V3.84725C0 5.94574 0.0839399 7.98828 0.23783 9.98885C0.37773 11.6816 0.559599 13.3045 0.811419 14.8714C0.797429 14.9413 0.797429 15.0113 0.811419 15.0672C2.01456 22.7197 4.56073 29.0572 8.40798 33.8558C14.1858 41.1445 23.5591 44.8519 36.2201 44.8519H57.4289C57.7087 44.8519 57.9885 44.8239 58.2683 44.754C59.1497 44.5721 59.9471 44.0964 60.5207 43.3969C61.0943 42.7114 61.416 41.858 61.43 40.9627V28.0919C61.43 27.7002 61.5419 27.3224 61.7518 26.9867C61.9616 26.6509 62.2554 26.3851 62.6052 26.2032C63.3327 25.8395 64.1861 25.9234 64.8436 26.3851L109.192 58.3662C109.961 58.9258 110.605 59.6673 111.039 60.5067C111.92 62.2275 111.92 64.256 111.039 65.9768C110.605 66.8302 109.961 67.5576 109.192 68.1172L65.2493 99.7766C64.5218 100.308 63.5565 100.378 62.7451 99.9864C62.3534 99.7906 62.0176 99.4968 61.7798 99.119C61.5419 98.7553 61.43 98.3216 61.43 97.8879V85.5068C61.43 84.4575 61.0103 83.4503 60.2549 82.7228C59.4994 81.9813 58.4781 81.5616 57.4149 81.5756H25.9095C25.3778 81.5756 24.8602 81.6735 24.3706 81.8694C23.8809 82.0653 23.4472 82.359 23.0695 82.7228C22.314 83.4503 21.8943 84.4575 21.8943 85.5068V120.356C21.8943 120.873 22.0062 121.391 22.2021 121.867C22.398 122.342 22.7057 122.776 23.0695 123.154C23.8249 123.895 24.8462 124.315 25.9095 124.301H66.1446C82.8347 124.385 98.9092 118.075 111.094 106.674C116.9 101.204 121.559 94.6283 124.819 87.3395C128.176 79.7569 129.897 71.5448 129.827 63.2487C129.869 54.9247 128.148 46.6986 124.777 39.088Z" fill="#F47621"/>
<path d="M139.662 108.73C140.725 108.199 141.914 107.919 143.104 107.947C144.139 107.933 145.146 108.157 146.083 108.59C146.993 109.01 147.804 109.598 148.49 110.325C149.959 111.892 150.77 113.962 150.742 116.117C150.742 117.194 150.56 118.257 150.197 119.265C149.847 120.216 149.329 121.111 148.658 121.867C147.986 122.608 147.175 123.196 146.251 123.602C145.258 124.049 144.181 124.259 143.104 124.245C142.068 124.259 141.061 124.035 140.124 123.602C139.214 123.182 138.403 122.594 137.717 121.867C137.018 121.111 136.472 120.244 136.095 119.293C135.689 118.285 135.493 117.194 135.507 116.103V104.016C135.507 102.659 135.871 101.679 136.612 101.106C137.354 100.532 138.417 100.238 139.83 100.238C139.802 100.364 139.788 100.574 139.76 100.854C139.732 101.106 139.718 101.441 139.704 101.875C139.69 102.309 139.69 102.868 139.69 103.54V104.617C139.69 105.135 139.69 105.666 139.676 106.24C139.662 106.8 139.662 107.331 139.662 107.807V108.73ZM143.104 121.321C143.453 121.307 143.803 121.237 144.139 121.111C144.573 120.943 144.964 120.692 145.286 120.342C145.706 119.88 146.014 119.335 146.209 118.747C146.461 118.062 146.587 117.166 146.587 116.075C146.587 114.984 146.461 114.088 146.209 113.403C145.958 112.717 145.65 112.172 145.286 111.808C144.978 111.472 144.587 111.206 144.139 111.039C143.467 110.773 142.726 110.773 142.068 111.039C141.635 111.206 141.243 111.458 140.921 111.808C140.557 112.186 140.25 112.717 139.998 113.403C139.746 114.088 139.62 114.998 139.62 116.075C139.62 117.152 139.746 118.062 139.998 118.747C140.194 119.335 140.501 119.88 140.921 120.342C141.229 120.678 141.621 120.943 142.068 121.111C142.39 121.237 142.74 121.307 143.104 121.321Z" fill="black"/>
<path d="M167.474 116.9C167.474 118.425 167.25 119.656 166.789 120.607C166.397 121.489 165.795 122.258 165.04 122.86C164.326 123.405 163.515 123.783 162.634 123.979C160.913 124.385 159.108 124.385 157.387 123.979C156.52 123.783 155.694 123.405 154.981 122.86C154.226 122.258 153.624 121.489 153.246 120.607C152.799 119.656 152.575 118.411 152.575 116.9L152.617 112.102C152.617 110.744 152.98 109.765 153.722 109.192C154.463 108.618 155.527 108.324 156.94 108.324C156.912 108.464 156.898 108.66 156.87 108.94C156.842 109.192 156.828 109.527 156.814 109.961C156.8 110.395 156.8 110.954 156.8 111.626L156.828 116.9C156.828 117.851 156.926 118.621 157.093 119.194C157.233 119.698 157.485 120.16 157.821 120.537C158.101 120.831 158.451 121.055 158.842 121.181C159.584 121.405 160.381 121.405 161.123 121.181C161.514 121.055 161.864 120.831 162.144 120.537C162.494 120.146 162.731 119.698 162.871 119.194C163.053 118.621 163.151 117.851 163.151 116.9L163.179 112.102C163.179 110.744 163.557 109.765 164.298 109.192C165.04 108.618 166.117 108.324 167.53 108.324C167.502 108.464 167.488 108.66 167.46 108.94C167.432 109.22 167.418 109.527 167.404 109.961C167.39 110.395 167.39 110.954 167.39 111.626L167.474 116.9Z" fill="black"/>
<path d="M178.232 119.923C178.288 119.559 178.162 119.21 177.911 118.958C177.575 118.65 177.197 118.398 176.791 118.216C176.302 117.978 175.728 117.727 175.071 117.447C174.343 117.139 173.658 116.775 173 116.356C172.482 116.062 172.035 115.67 171.657 115.208C171.321 114.789 171.055 114.299 170.888 113.781C170.734 113.278 170.664 112.746 170.678 112.215C170.706 111.669 170.832 111.137 171.055 110.634C171.265 110.158 171.559 109.738 171.937 109.375C172.301 109.039 172.706 108.759 173.14 108.535C173.56 108.325 174.021 108.171 174.483 108.073C174.903 107.99 175.322 107.934 175.742 107.934H176.148C177.295 107.99 178.428 108.283 179.449 108.815C180.429 109.333 181.296 110.032 181.996 110.899L182.094 110.997L181.996 111.137C181.8 111.431 181.548 111.669 181.254 111.851C181.002 112.005 180.709 112.089 180.401 112.089C180.079 112.089 179.771 112.019 179.477 111.907C179.184 111.781 178.862 111.655 178.526 111.515C178.092 111.333 177.687 111.179 177.323 111.053C176.959 110.927 176.568 110.871 176.176 110.871C175.672 110.871 175.294 110.983 175.057 111.193C174.819 111.389 174.665 111.655 174.609 111.963C174.553 112.368 174.707 112.774 175.015 113.04C175.434 113.376 175.91 113.655 176.414 113.837C177.113 114.131 177.869 114.453 178.666 114.803C179.421 115.138 180.135 115.572 180.779 116.104C181.38 116.593 181.856 117.223 182.178 117.936C182.499 118.65 182.527 119.517 182.275 120.539C182.15 120.986 181.954 121.42 181.702 121.812C181.408 122.287 181.016 122.693 180.555 123.015C180.009 123.407 179.422 123.714 178.778 123.924C177.995 124.176 177.169 124.302 176.344 124.288C176.19 124.288 176.05 124.274 175.896 124.26C174.777 124.204 173.686 123.91 172.678 123.407C171.657 122.917 170.762 122.203 170.034 121.336L169.936 121.238L170.034 121.098C170.132 120.93 170.258 120.776 170.412 120.65C170.552 120.539 170.678 120.441 170.79 120.343C171.042 120.217 171.321 120.147 171.601 120.133C171.923 120.133 172.231 120.203 172.524 120.315C172.818 120.441 173.14 120.567 173.476 120.706C173.826 120.874 174.175 121.014 174.553 121.112C174.987 121.238 175.42 121.308 175.868 121.35C176.679 121.35 177.267 121.196 177.617 120.874C177.967 120.553 178.19 120.245 178.232 119.923Z" fill="black"/>
<path d="M189.061 103.275C188.585 104.072 187.928 104.464 187.088 104.464C186.738 104.464 186.389 104.38 186.067 104.226C185.745 104.03 185.465 103.764 185.283 103.428C185.102 103.107 185.004 102.729 185.018 102.351C185.018 101.946 185.116 101.54 185.325 101.19C185.521 100.812 185.815 100.505 186.179 100.281C186.515 100.071 186.906 99.959 187.298 99.959C187.648 99.959 187.984 100.057 188.291 100.239C188.641 100.407 188.921 100.686 189.103 101.022C189.285 101.358 189.383 101.736 189.369 102.113C189.369 102.533 189.257 102.925 189.061 103.275ZM191.719 120.846C191.565 121.028 191.369 121.168 191.145 121.238C190.879 121.336 190.6 121.364 190.334 121.322C190.054 121.266 189.802 121.126 189.62 120.902C189.411 120.664 189.313 120.272 189.313 119.727V111.585C189.313 110.899 189.313 110.354 189.327 109.934C189.341 109.514 189.355 109.178 189.383 108.927C189.411 108.675 189.425 108.437 189.452 108.283C188.04 108.283 186.976 108.577 186.249 109.164C185.521 109.752 185.158 110.731 185.158 112.088L185.13 120.119C185.13 120.678 185.214 121.224 185.381 121.755C185.535 122.259 185.815 122.721 186.165 123.112C186.529 123.504 186.976 123.812 187.48 124.022C188.067 124.246 188.697 124.316 189.313 124.246C190.04 124.204 190.572 123.994 190.907 123.616C191.229 123.28 191.453 122.889 191.593 122.441C191.719 121.923 191.761 121.392 191.719 120.846Z" fill="black"/>
<path d="M193.481 115.333C193.481 113.808 193.705 112.577 194.153 111.612C194.531 110.731 195.118 109.961 195.86 109.346C196.545 108.8 197.357 108.422 198.21 108.24C199.945 107.863 201.736 107.863 203.47 108.24C204.338 108.422 205.163 108.8 205.877 109.346C206.632 109.947 207.234 110.717 207.611 111.612C208.059 112.577 208.283 113.822 208.283 115.333L208.423 123.909C207.038 123.909 205.975 123.615 205.219 123.028C204.464 122.44 204.1 121.475 204.1 120.132L204.142 115.333C204.142 114.382 204.044 113.612 203.848 113.039C203.694 112.535 203.428 112.074 203.079 111.682C202.785 111.374 202.421 111.136 202.029 111.024C201.652 110.912 201.26 110.856 200.868 110.856C200.476 110.856 200.099 110.912 199.721 111.024C199.329 111.15 198.98 111.374 198.7 111.682C198.35 112.074 198.098 112.535 197.958 113.039C197.762 113.612 197.664 114.382 197.664 115.333V120.607C197.692 121.293 197.706 121.839 197.72 122.272C197.734 122.706 197.748 123.042 197.776 123.294C197.804 123.573 197.818 123.769 197.846 123.909C196.433 123.909 195.356 123.615 194.615 123.028C193.859 122.44 193.495 121.475 193.495 120.132L193.481 115.333Z" fill="black"/>
<path d="M223.784 120.608C224.106 120.817 224.371 121.097 224.567 121.419L224.665 121.517L224.567 121.615C223.014 123.308 220.832 124.259 218.538 124.231C217.516 124.231 216.523 124.021 215.586 123.601C214.662 123.182 213.837 122.58 213.151 121.853C212.452 121.111 211.906 120.23 211.529 119.278C211.123 118.271 210.927 117.18 210.927 116.089C210.913 115.012 211.095 113.934 211.459 112.899C211.794 111.948 212.312 111.052 212.97 110.297C213.641 109.555 214.466 108.968 215.376 108.562C216.369 108.114 217.446 107.905 218.524 107.919C219.237 107.933 219.937 108.031 220.622 108.212C221.378 108.408 222.091 108.716 222.749 109.136C223.406 109.555 223.966 110.115 224.385 110.787C224.819 111.472 225.029 112.283 225.029 113.235C225.029 114.172 224.791 114.928 224.315 115.501C223.854 116.075 223.266 116.536 222.609 116.858C221.951 117.194 221.238 117.418 220.51 117.544C219.881 117.656 219.237 117.726 218.58 117.726C217.838 117.74 217.111 117.684 216.383 117.572C215.754 117.474 215.334 117.39 215.11 117.348C215.166 118.033 215.348 118.719 215.656 119.334C215.879 119.796 216.201 120.202 216.579 120.538C216.873 120.803 217.223 121.013 217.6 121.139C217.894 121.237 218.202 121.293 218.524 121.293C218.985 121.293 219.433 121.251 219.881 121.153C220.272 121.069 220.664 120.971 221.042 120.845C221.378 120.733 221.713 120.622 222.007 120.51C222.301 120.398 222.595 120.342 222.902 120.342C223.238 120.356 223.532 120.44 223.784 120.608ZM218.538 110.843C218.244 110.871 217.936 110.94 217.656 111.024C217.292 111.136 216.943 111.332 216.649 111.584C216.271 111.906 215.977 112.297 215.754 112.745C215.446 113.347 215.25 113.99 215.18 114.648C215.684 114.788 216.201 114.9 216.733 114.97C217.404 115.068 218.076 115.095 218.747 115.026C219.377 114.97 219.979 114.774 220.524 114.452C221.028 114.13 221.308 113.599 221.364 112.857C221.406 112.297 221.182 111.808 220.692 111.388C220.188 110.968 219.475 110.787 218.538 110.843Z" fill="black"/>
<path d="M235.06 119.923C235.116 119.559 234.99 119.21 234.738 118.958C234.402 118.65 234.024 118.398 233.619 118.216C233.129 117.978 232.555 117.727 231.898 117.447C231.17 117.139 230.485 116.775 229.827 116.356C229.31 116.062 228.862 115.67 228.484 115.208C228.149 114.789 227.883 114.299 227.715 113.781C227.561 113.278 227.491 112.746 227.505 112.215C227.533 111.669 227.659 111.137 227.883 110.634C228.093 110.158 228.386 109.738 228.764 109.375C229.128 109.039 229.534 108.759 229.967 108.535C230.387 108.325 230.849 108.171 231.31 108.073C231.73 107.99 232.15 107.934 232.569 107.934H232.975C234.122 107.99 235.256 108.283 236.277 108.815C237.256 109.333 238.123 110.032 238.837 110.885L238.935 110.983L238.837 111.123C238.641 111.417 238.389 111.655 238.095 111.837C237.844 111.991 237.55 112.075 237.242 112.075C236.92 112.075 236.613 112.005 236.319 111.893C236.025 111.767 235.703 111.641 235.367 111.501C234.934 111.319 234.528 111.165 234.164 111.039C233.801 110.913 233.409 110.858 233.017 110.858C232.513 110.858 232.136 110.969 231.898 111.179C231.66 111.375 231.506 111.641 231.45 111.949C231.394 112.354 231.548 112.76 231.856 113.026C232.276 113.362 232.751 113.642 233.255 113.823C233.954 114.117 234.71 114.439 235.507 114.789C236.263 115.124 236.976 115.558 237.62 116.09C238.221 116.579 238.697 117.209 239.019 117.922C239.341 118.636 239.369 119.503 239.117 120.525C238.991 120.972 238.795 121.406 238.543 121.798C238.249 122.273 237.858 122.679 237.396 123.001C236.85 123.393 236.263 123.7 235.619 123.91C234.836 124.162 234.01 124.288 233.185 124.274C233.031 124.274 232.891 124.26 232.737 124.246C231.618 124.19 230.527 123.896 229.52 123.393C228.498 122.903 227.603 122.189 226.876 121.322L226.778 121.224L226.876 121.084C226.973 120.916 227.099 120.762 227.253 120.636C227.393 120.525 227.519 120.427 227.631 120.329C227.883 120.203 228.163 120.133 228.442 120.119C228.764 120.119 229.072 120.189 229.366 120.301C229.66 120.427 229.981 120.553 230.317 120.692C230.667 120.86 231.017 121 231.394 121.098C231.828 121.224 232.262 121.294 232.709 121.336C233.521 121.336 234.108 121.182 234.458 120.86C234.822 120.553 235.018 120.245 235.06 119.923Z" fill="black"/>
<path d="M249.246 119.923C249.302 119.559 249.176 119.21 248.924 118.958C248.588 118.65 248.21 118.398 247.805 118.216C247.315 117.978 246.741 117.727 246.084 117.447C245.356 117.139 244.671 116.775 244.013 116.356C243.496 116.062 243.048 115.67 242.67 115.208C242.335 114.789 242.069 114.299 241.901 113.781C241.747 113.278 241.677 112.746 241.691 112.215C241.719 111.669 241.845 111.137 242.069 110.634C242.279 110.158 242.572 109.738 242.95 109.375C243.314 109.039 243.72 108.759 244.153 108.535C244.573 108.325 245.035 108.171 245.496 108.073C245.916 107.99 246.336 107.934 246.755 107.934H247.161C248.308 107.99 249.442 108.283 250.463 108.815C251.442 109.333 252.309 110.032 253.023 110.885L253.121 110.983L253.023 111.123C252.827 111.417 252.575 111.655 252.282 111.837C252.03 111.991 251.736 112.075 251.428 112.075C251.106 112.075 250.799 112.005 250.505 111.893C250.211 111.767 249.889 111.641 249.553 111.501C249.12 111.319 248.714 111.165 248.35 111.039C247.987 110.913 247.595 110.858 247.203 110.858C246.7 110.858 246.322 110.969 246.084 111.179C245.846 111.375 245.692 111.641 245.636 111.949C245.58 112.354 245.734 112.76 246.042 113.026C246.462 113.362 246.937 113.642 247.441 113.823C248.14 114.117 248.896 114.439 249.693 114.789C250.449 115.124 251.162 115.558 251.806 116.09C252.407 116.579 252.883 117.209 253.205 117.922C253.527 118.636 253.555 119.503 253.303 120.525C253.177 120.972 252.981 121.406 252.729 121.798C252.435 122.273 252.044 122.679 251.582 123.001C251.036 123.393 250.449 123.7 249.805 123.91C249.022 124.162 248.196 124.288 247.371 124.274C247.217 124.274 247.077 124.26 246.923 124.246C245.804 124.19 244.713 123.896 243.706 123.393C242.684 122.903 241.789 122.189 241.062 121.322L240.964 121.224L241.062 121.084C241.159 120.916 241.285 120.762 241.439 120.636C241.579 120.525 241.705 120.427 241.817 120.329C242.069 120.203 242.349 120.133 242.628 120.119C242.936 120.119 243.244 120.189 243.538 120.315C243.832 120.441 244.153 120.567 244.489 120.706C244.839 120.874 245.189 121.014 245.566 121.112C246 121.238 246.434 121.308 246.881 121.35C247.693 121.35 248.28 121.196 248.63 120.874C249.008 120.553 249.204 120.245 249.246 119.923Z" fill="black"/>
</g>
<defs>
<clipPath id="clip0_976_29195">
<rect width="394" height="124.287" fill="white"/>
</clipPath>
</defs>
</svg>
