<svg width="200" height="200" viewBox="0 0 200 200" fill="none" xmlns="http://www.w3.org/2000/svg">
<path d="M58.0833 78C58.9573 78 59.7055 78.3028 60.3278 78.9083C60.9501 79.5139 61.2948 80.3045 61.3618 81.28V87.0835C62.1351 86.5789 63.0432 86.2258 64.086 86.0242C65.1289 85.8226 66.1208 85.7217 67.0619 85.7213C68.7087 85.7211 70.2723 86.0235 71.7527 86.6288C73.2331 87.234 74.5278 88.0751 75.6367 89.1522C76.7464 90.2293 77.6291 91.4909 78.2848 92.9369C78.9405 94.383 79.2683 95.9305 79.2683 97.5795V106.815C79.2683 107.724 78.9573 108.498 78.3353 109.137C77.7132 109.776 76.9314 110.112 75.9896 110.146C75.115 110.146 74.3752 109.851 73.7704 109.263C73.1656 108.674 72.7955 107.925 72.6601 107.017V97.9336C72.6605 97.1975 72.5148 96.4687 72.2314 95.7893C71.9452 95.1004 71.55 94.4949 71.046 93.9726C70.5418 93.4515 69.9426 93.0318 69.2807 92.7361C68.6076 92.4332 67.8678 92.2818 67.0612 92.2819C65.548 92.2819 64.2618 92.8035 63.2025 93.8466C62.1432 94.8897 61.5295 96.168 61.3614 97.6816V106.816C61.3614 107.724 61.0504 108.498 60.4282 109.137C59.8061 109.776 59.0243 110.113 58.0829 110.146C57.2419 110.146 56.5275 109.852 55.9397 109.263C55.3519 108.675 54.9736 107.926 54.8047 107.018V81.0779C54.8717 80.2375 55.1995 79.5142 55.7884 78.9078C56.3772 78.3015 57.1421 77.9989 58.0833 78Z" fill="#109995"/>
<path d="M92.982 86.0742C94.6292 86.0742 96.1928 86.3938 97.6729 87.0331C99.153 87.6723 100.448 88.547 101.557 89.6572C102.667 90.7672 103.549 92.0625 104.205 93.5431C104.861 95.0238 105.189 96.6219 105.189 98.3374C105.189 100.02 104.869 101.593 104.23 103.056C103.591 104.519 102.725 105.806 101.633 106.917C100.539 108.027 99.2532 108.901 97.7739 109.541C96.2946 110.18 94.6973 110.5 92.982 110.5C91.3002 110.5 89.7197 110.197 88.2405 109.592C86.7614 108.986 85.4667 108.137 84.3566 107.043C83.247 105.95 82.3728 104.663 81.7338 103.182C81.0948 101.701 80.7753 100.087 80.7754 98.3383C80.7754 96.6567 81.0865 95.084 81.7086 93.6201C82.3307 92.1562 83.1882 90.8774 84.2811 89.7837C85.3733 88.6908 86.6679 87.816 88.1649 87.1594C89.6619 86.5028 91.2676 86.141 92.982 86.0742ZM92.982 92.6852C92.208 92.6852 91.485 92.8282 90.813 93.1142C90.1479 93.3952 89.5408 93.7974 89.0224 94.3002C88.5007 94.8048 88.0888 95.4019 87.7866 96.0917C87.4844 96.7815 87.3331 97.5301 87.3327 98.3374C87.3327 99.1117 87.484 99.8434 87.7866 100.533C88.0892 101.222 88.5012 101.827 89.0224 102.35C89.5385 102.868 90.1455 103.287 90.813 103.586C91.4853 103.889 92.2083 104.04 92.982 104.04C93.7558 104.04 94.4872 103.889 95.1761 103.586C95.8647 103.283 96.4616 102.871 96.9668 102.35C97.4721 101.828 97.8756 101.223 98.1774 100.533C98.48 99.8436 98.6313 99.1119 98.6313 98.3374C98.5636 96.7904 98.0087 95.4783 96.9668 94.4011C95.9249 93.3239 94.5967 92.7519 92.982 92.6852Z" fill="#109995"/>
<path d="M109.778 85.5C110.653 85.5 111.426 85.828 112.099 86.4839C112.772 87.1399 113.108 87.9388 113.108 88.8808V97.7632C113.108 98.5374 113.259 99.2692 113.562 99.9583C113.864 100.648 114.268 101.245 114.772 101.75C115.277 102.255 115.873 102.659 116.563 102.961C117.252 103.264 117.984 103.415 118.758 103.415C119.497 103.415 120.203 103.281 120.876 103.012C121.549 102.743 122.146 102.372 122.667 101.901C123.188 101.43 123.6 100.858 123.902 100.185C124.205 99.5118 124.356 98.7887 124.356 98.0155V88.8306C124.356 88.1581 124.524 87.5861 124.861 87.1147C124.931 87.0098 125.007 86.9089 125.088 86.8123C125.171 86.7114 125.264 86.6106 125.365 86.5094C125.97 85.8365 126.726 85.5 127.634 85.5C128.542 85.5 129.333 85.8365 130.005 86.5094C130.644 87.149 130.98 87.8724 131.014 88.6795V97.7634C131.014 99.446 130.695 101.027 130.056 102.507C129.417 103.987 128.542 105.282 127.433 106.393C126.323 107.504 125.029 108.379 123.549 109.017C122.069 109.656 120.472 109.976 118.757 109.976C117.143 110.043 115.596 109.766 114.117 109.143C112.637 108.521 111.334 107.663 110.207 106.569C109.08 105.477 108.181 104.198 107.509 102.734C106.837 101.27 106.501 99.7306 106.5 98.1166V88.8306C106.5 87.9564 106.811 87.1911 107.433 86.5345C108.055 85.878 108.837 85.5332 109.778 85.5Z" fill="#109995"/>
<path d="M149.231 85.5188C150.139 85.5188 150.896 85.8637 151.501 86.5536C152.106 87.2435 152.409 87.9755 152.409 88.7495C152.409 89.6246 152.081 90.3901 151.426 91.0461C150.77 91.7021 150.038 92.0301 149.231 92.03H140.555C140.152 92.03 139.841 92.1477 139.622 92.3829C139.404 92.6182 139.294 92.9042 139.294 93.2409C139.294 93.5775 139.404 93.8719 139.622 94.1241C139.841 94.3762 140.152 94.5025 140.555 94.503H146.255C147.297 94.503 148.264 94.7131 149.155 95.1332C150.046 95.5545 150.819 96.1265 151.476 96.849C152.131 97.5728 152.644 98.3972 153.014 99.322C153.383 100.245 153.572 101.23 153.569 102.224C153.569 103.368 153.367 104.42 152.964 105.378C152.56 106.336 152.006 107.161 151.299 107.851C150.594 108.541 149.753 109.079 148.777 109.466C147.802 109.852 146.726 110.046 145.55 110.046H137.024C136.15 110.046 135.41 109.743 134.805 109.137C134.2 108.532 133.897 107.758 133.897 106.816C133.897 105.975 134.2 105.21 134.805 104.52C135.41 103.829 136.15 103.468 137.024 103.435H145.549C146.457 103.435 146.911 103.031 146.911 102.223C146.911 101.45 146.457 101.063 145.549 101.062H140C138.991 101.062 138.041 100.852 137.15 100.432C136.259 100.011 135.485 99.4479 134.83 98.7412C134.174 98.0351 133.661 97.2109 133.292 96.2687C132.922 95.3265 132.737 94.317 132.736 93.2403C132.734 92.244 132.931 91.2573 133.317 90.3388C133.703 89.4138 134.232 88.5979 134.905 87.8909C135.578 87.184 136.369 86.6205 137.276 86.2003C138.184 85.7798 139.176 85.5526 140.252 85.5188H149.231Z" fill="#109995"/>
<path d="M166.744 85.6201C168.358 85.6201 169.905 85.9565 171.384 86.6293C172.864 87.3022 174.167 88.2021 175.294 89.3291C176.42 90.4562 177.319 91.7514 177.992 93.2146C178.665 94.6778 179.001 96.217 179.001 97.8324C179.001 98.7079 178.673 99.4817 178.017 100.154C177.361 100.827 176.546 101.147 175.571 101.112H162.154C163.263 102.694 164.793 103.485 166.744 103.485C167.281 103.485 167.735 103.434 168.106 103.333C168.476 103.233 168.804 103.115 169.089 102.98C169.369 102.848 169.655 102.73 169.947 102.627C170.232 102.526 170.56 102.475 170.93 102.475C171.637 102.509 172.25 102.711 172.772 103.081C173.293 103.451 173.679 103.913 173.932 104.469C174.184 105.024 174.268 105.621 174.184 106.26C174.1 106.899 173.806 107.488 173.301 108.026C172.393 108.767 171.384 109.28 170.275 109.566C169.165 109.851 167.988 110.011 166.744 110.045C165.13 110.112 163.583 109.818 162.103 109.162C160.624 108.506 159.321 107.615 158.194 106.488C157.067 105.361 156.176 104.041 155.521 102.526C154.866 101.012 154.538 99.4474 154.537 97.8329C154.537 96.2516 154.865 94.7207 155.521 93.2403C156.177 91.7599 157.059 90.4563 158.169 89.3296C159.279 88.2026 160.573 87.3027 162.053 86.6299C163.532 85.957 165.096 85.6205 166.744 85.6201ZM171.334 94.5024C170.762 93.7957 170.089 93.2322 169.316 92.8118C168.544 92.3915 167.686 92.1811 166.744 92.1807C165.768 92.1807 164.902 92.3911 164.146 92.8118C163.39 93.2326 162.726 93.7961 162.154 94.5024H171.334Z" fill="#109995"/>
<path d="M68.9447 103.575C70.2269 103.575 71.2663 102.535 71.2663 101.252C71.2663 99.9691 70.2269 98.9292 68.9447 98.9292C67.6625 98.9292 66.623 99.9691 66.623 101.252C66.623 102.535 67.6625 103.575 68.9447 103.575Z" fill="#109995"/>
<path d="M68.9447 102.575C70.2269 102.575 71.2663 101.535 71.2663 100.252C71.2663 98.9691 70.2269 97.9292 68.9447 97.9292C67.6625 97.9292 66.623 98.9691 66.623 100.252C66.623 101.535 67.6625 102.575 68.9447 102.575Z" fill="#E8A600"/>
<path d="M21.9332 83.6768C22.555 84.2661 23.3536 84.5773 24.3291 84.6104C25.2031 84.6104 25.9513 84.2824 26.5736 83.6264C27.1959 82.9705 27.507 82.2051 27.507 81.3304C27.507 80.4558 27.196 79.6904 26.5739 79.0343C25.9517 78.3782 25.2035 78.0502 24.3291 78.0503C23.4542 78.0503 22.6892 78.3531 22.034 78.9586C21.3788 79.5642 21.0342 80.3042 21 81.1786C21 82.2563 21.3111 83.0891 21.9332 83.6768Z" fill="#E8A600"/>
<path d="M50.0859 103.313H40.2887L49.3823 91.1658C50.4927 89.6829 50.1911 87.58 48.7088 86.4692C48.1268 86.0318 47.418 85.7966 46.6901 85.7993H24.3955V85.8001C24.3735 85.8001 24.3513 85.7993 24.3291 85.7993C23.9079 85.7993 23.5122 85.8696 23.142 86.01H23.141L23.1353 86.0122L23.1247 86.0165C22.9072 86.1006 22.6995 86.208 22.505 86.3367C22.5017 86.339 22.4982 86.3411 22.4947 86.3434L22.4689 86.3605L22.4621 86.365C22.3205 86.4607 22.1857 86.5662 22.0587 86.6806C21.7607 86.9475 21.525 87.2471 21.3517 87.5792L21.3503 87.5818C21.3447 87.5924 21.339 87.603 21.3336 87.6138C21.3309 87.619 21.3283 87.624 21.3259 87.6292L21.3244 87.632C21.1785 87.9224 21.0805 88.2345 21.0342 88.5562C21.0342 88.5596 21.0331 88.563 21.0325 88.5666C21.0325 88.5682 21.0325 88.5696 21.0325 88.571C21.0182 88.6622 21.0073 88.7552 21 88.8499V107.119C21.134 108.095 21.5041 108.852 22.1103 109.39C22.7165 109.928 23.4563 110.197 24.3297 110.197C25.3047 110.129 26.0782 109.793 26.65 109.188C27.2219 108.583 27.5076 107.826 27.507 106.917V92.5095H39.9975L31.0446 104.469C30.9768 104.559 30.9004 104.643 30.8353 104.736C30.8095 104.773 30.7845 104.811 30.7604 104.849L30.753 104.858C30.4189 105.379 30.2359 105.982 30.2245 106.6V106.603C30.2245 106.625 30.2245 106.646 30.2245 106.668C30.2245 108.318 31.4154 109.691 32.9843 109.97C33.1804 110.005 33.3791 110.023 33.5782 110.023H50.0859C51.9379 110.023 53.4393 108.521 53.4393 106.668C53.4393 104.815 51.9379 103.313 50.0859 103.313Z" fill="#E8A600"/>
</svg>
