<svg id="Layer_1" data-name="Layer 1" xmlns="http://www.w3.org/2000/svg" viewBox="0 0 500 500"><defs><style>.cls-1{fill:#f3ab82;}.cls-2,.cls-5{fill:#facad4;}.cls-3{fill:#f7a9b9;}.cls-4{fill:#bf7f93;}.cls-5{font-size:60px;font-family:GloriaHallelujah, Gloria Hallelujah;}</style></defs><path class="cls-1" d="M391,150.87c-4.17-13.18-1.64-28.75,4.69-39.31,3.72,1.71,48.75,25.93,48.71,26-13.24,10.49-31.92,18.74-49.28,22.21A37.21,37.21,0,0,1,391,150.87Z"/><path class="cls-1" d="M260.84,316.54l7.94,3.16q.68,21.8,1.34,43.6c0,.34.11,3.74.14,3.75,3.07,1.14,6,2,9.19,2.85,2.65.74,10.58,2.71,9.08,6.36-1.82,4.46-16.15-.78-19.13-2.56,1.51.9-2.86,12.64-3.36,14.3a5.43,5.43,0,0,1-2.09,3.05,3.59,3.59,0,0,1-3.82.1c-2-1.43-1.1-5.5-.92-7.51a33.84,33.84,0,0,1,2.33-9c-2.18-.24-4.14.69-6.26,1-2.61.33-9.61,2.82-10.85-.74-1.8-5.17,12.1-5.48,15.06-7,1.6-.83,1.19-.46,1.59-1.82a14.33,14.33,0,0,0,0-3.7L261,350q-.06-13.83-.13-27.66Z"/><path class="cls-1" d="M209.21,321l7.94,3.15q.67,21.81,1.34,43.6c0,.35.11,3.75.14,3.76,3.06,1.14,6,2,9.19,2.84,2.65.75,10.58,2.71,9.08,6.36-1.82,4.46-16.15-.78-19.13-2.55,1.51.89-2.86,12.63-3.36,14.29a5.37,5.37,0,0,1-2.09,3.05,3.59,3.59,0,0,1-3.82.1c-2-1.42-1.1-5.5-.92-7.5a33.37,33.37,0,0,1,2.33-9c-2.18-.25-4.14.69-6.26,1-2.61.33-9.61,2.82-10.85-.74-1.8-5.18,12.1-5.48,15.06-7,1.6-.83,1.19-.46,1.59-1.82a14.41,14.41,0,0,0,0-3.71l-.06-12.33q-.06-13.83-.13-27.66Z"/><path class="cls-2" d="M364,59.63C345.78,47,324,40.66,302.43,42.9c-50.22,5.23-78.79,44.32-101.54,80.57-13,20.75-25.93,41.79-43.07,59.76-8.2,8.59-18.33,16.24-31.2,18.29-14.38,2.28-33.36.38-42.56,12-8.67,11-6,27.38.56,39.87,9.63,18.21,28.08,33,45.3,45.09,24.54,17.21,50.84,32.29,80.45,39.55,73.28,17.95,134.15-24.63,169.24-76C416.14,208.56,433.33,107.55,364,59.63Z"/><path class="cls-3" d="M273.74,216.05l-.71.9c-16.13,20.14-41.71,36.77-69,45.67-37.22,12.16-72.38,8.07-98.92-3.26-17.39-7.42-34.86-16.81-44.56-30.3-6.33-8.82-12.94-21.71,6.75-27.44,23.69-6.9,43.6-14.48,66.11-26.3,18-9.47,35-20.46,53.25-29.59,38-19,79.65-12.28,94.05,10.41C291,172.3,290.18,195.14,273.74,216.05Z"/><circle class="cls-4" cx="333.08" cy="123.06" r="15.4"/><text class="cls-5" transform="translate(111.53 457.71)">Early Bird</text></svg>