<svg id="Layer_1" data-name="Layer 1" xmlns="http://www.w3.org/2000/svg" viewBox="0 0 74 74"><defs><style>.cls-1{fill:#fff;isolation:isolate;}.cls-2{fill:#d82b2f;}.cls-3{fill:#00a64f;}.cls-4{fill:#2c76bc;}.cls-5{fill:#fcb019;}.cls-6{fill:#72277f;}</style></defs><g id="Layer_2" data-name="Layer 2"><g id="Layer_1-2" data-name="Layer 1-2"><rect class="cls-1" width="74" height="74" rx="16"/><path class="cls-2" d="M47.31,19.12A10.3,10.3,0,0,1,43.61,27a13.51,13.51,0,0,0-13.24,0,10.32,10.32,0,1,1,16.94-7.92"/><path class="cls-3" d="M23.42,38.89a14.36,14.36,0,0,0,.25,2.62A10.31,10.31,0,1,1,26.94,27.3a11,11,0,0,1,.83,1.64,13.5,13.5,0,0,0-4.35,10"/><path class="cls-4" d="M33.73,60.94a10.32,10.32,0,1,1-9-16.35,13.58,13.58,0,0,0,10.7,7.77,10.25,10.25,0,0,1-1.65,8.58"/><path d="M54.68,63.22A10.31,10.31,0,0,1,38.62,52.36a13.53,13.53,0,0,0,10.69-7.77,10.31,10.31,0,0,1,5.37,18.63"/><path class="cls-5" d="M59,42.59a10.25,10.25,0,0,1-8.66-1.08,14.36,14.36,0,0,0,.25-2.62,13.51,13.51,0,0,0-4.34-9.95A10.31,10.31,0,1,1,59,42.59"/><path class="cls-6" d="M35,32.91A4,4,0,0,0,27.57,34a3.8,3.8,0,0,0-.1.89A4.19,4.19,0,0,0,28,37l3.41,5.9.59-1h0l1.8-3.12.07-.13,1.13-2A3.61,3.61,0,0,0,35,33"/><path class="cls-6" d="M46.2,36.74,40.57,46.5a4.11,4.11,0,0,1-3.55,2,3.88,3.88,0,0,1-1.77-.42,4,4,0,0,1-1.82-5.36c0-.09.09-.17.14-.26l5.52-9.57a4.08,4.08,0,0,1,3.54-2,3.7,3.7,0,0,1,1.76.41l.22.11a3.75,3.75,0,0,1,1.74,5,1.59,1.59,0,0,1-.15.29"/></g></g></svg>