<?xml version="1.0" encoding="utf-8"?>
<!-- Generator: Adobe Illustrator 26.1.0, SVG Export Plug-In . SVG Version: 6.00 Build 0)  -->
<svg version="1.1" id="Layer_1" xmlns="http://www.w3.org/2000/svg" xmlns:xlink="http://www.w3.org/1999/xlink" x="0px" y="0px"
	 viewBox="0 0 200 200" style="enable-background:new 0 0 200 200;" xml:space="preserve">
<style type="text/css">
	.st0{fill:#DFF4ED;}
	.st1{fill:#109995;}
	.st2{fill:#E8A600;}
</style>
<rect class="st0" width="200" height="199.2"/>
<path class="st1" d="M58.1,78c0.9,0,1.6,0.3,2.2,0.9c0.6,0.6,1,1.4,1,2.4v5.8c0.8-0.5,1.7-0.9,2.7-1.1c1-0.2,2-0.3,3-0.3
	c1.6,0,3.2,0.3,4.7,0.9c1.5,0.6,2.8,1.4,3.9,2.5c1.1,1.1,2,2.3,2.6,3.8c0.7,1.4,1,3,1,4.6v9.2c0,0.9-0.3,1.7-0.9,2.3
	c-0.6,0.6-1.4,1-2.3,1c-0.9,0-1.6-0.3-2.2-0.9c-0.6-0.6-1-1.3-1.1-2.2v-9.1c0-0.7-0.1-1.5-0.4-2.1c-0.3-0.7-0.7-1.3-1.2-1.8
	c-0.5-0.5-1.1-0.9-1.8-1.2c-0.7-0.3-1.4-0.5-2.2-0.5c-1.5,0-2.8,0.5-3.9,1.6c-1.1,1-1.7,2.3-1.8,3.8v9.1c0,0.9-0.3,1.7-0.9,2.3
	c-0.6,0.6-1.4,1-2.3,1c-0.8,0-1.6-0.3-2.1-0.9c-0.6-0.6-1-1.3-1.1-2.2V81.1c0.1-0.8,0.4-1.6,1-2.2C56.4,78.3,57.1,78,58.1,78z"/>
<path class="st1" d="M93,86.1c1.6,0,3.2,0.3,4.7,1c1.5,0.6,2.8,1.5,3.9,2.6c1.1,1.1,2,2.4,2.6,3.9c0.7,1.5,1,3.1,1,4.8
	c0,1.7-0.3,3.3-1,4.7s-1.5,2.8-2.6,3.9c-1.1,1.1-2.4,2-3.9,2.6c-1.5,0.6-3.1,1-4.8,1c-1.7,0-3.3-0.3-4.7-0.9
	c-1.5-0.6-2.8-1.5-3.9-2.5c-1.1-1.1-2-2.4-2.6-3.9s-1-3.1-1-4.8c0-1.7,0.3-3.3,0.9-4.7c0.6-1.5,1.5-2.7,2.6-3.8
	c1.1-1.1,2.4-2,3.9-2.6S91.3,86.1,93,86.1z M93,92.7c-0.8,0-1.5,0.1-2.2,0.4c-0.7,0.3-1.3,0.7-1.8,1.2c-0.5,0.5-0.9,1.1-1.2,1.8
	c-0.3,0.7-0.5,1.4-0.5,2.2c0,0.8,0.2,1.5,0.5,2.2c0.3,0.7,0.7,1.3,1.2,1.8c0.5,0.5,1.1,0.9,1.8,1.2c0.7,0.3,1.4,0.5,2.2,0.5
	c0.8,0,1.5-0.2,2.2-0.5c0.7-0.3,1.3-0.7,1.8-1.2c0.5-0.5,0.9-1.1,1.2-1.8c0.3-0.7,0.5-1.4,0.5-2.2c-0.1-1.5-0.6-2.9-1.7-3.9
	S94.6,92.8,93,92.7z"/>
<path class="st1" d="M109.8,85.5c0.9,0,1.6,0.3,2.3,1c0.7,0.7,1,1.5,1,2.4v8.9c0,0.8,0.2,1.5,0.5,2.2c0.3,0.7,0.7,1.3,1.2,1.8
	c0.5,0.5,1.1,0.9,1.8,1.2c0.7,0.3,1.4,0.5,2.2,0.5c0.7,0,1.4-0.1,2.1-0.4c0.7-0.3,1.3-0.6,1.8-1.1c0.5-0.5,0.9-1,1.2-1.7
	c0.3-0.7,0.5-1.4,0.5-2.2v-9.2c0-0.7,0.2-1.2,0.5-1.7c0.1-0.1,0.1-0.2,0.2-0.3c0.1-0.1,0.2-0.2,0.3-0.3c0.6-0.7,1.4-1,2.3-1
	s1.7,0.3,2.4,1c0.6,0.6,1,1.4,1,2.2v9.1c0,1.7-0.3,3.3-1,4.7c-0.6,1.5-1.5,2.8-2.6,3.9c-1.1,1.1-2.4,2-3.9,2.6c-1.5,0.6-3.1,1-4.8,1
	c-1.6,0.1-3.2-0.2-4.6-0.8c-1.5-0.6-2.8-1.5-3.9-2.6c-1.1-1.1-2-2.4-2.7-3.8c-0.7-1.5-1-3-1-4.6v-9.3c0-0.9,0.3-1.6,0.9-2.3
	C108.1,85.9,108.8,85.5,109.8,85.5z"/>
<path class="st1" d="M149.2,85.5c0.9,0,1.7,0.3,2.3,1c0.6,0.7,0.9,1.4,0.9,2.2c0,0.9-0.3,1.6-1,2.3c-0.7,0.7-1.4,1-2.2,1h-8.7
	c-0.4,0-0.7,0.1-0.9,0.4c-0.2,0.2-0.3,0.5-0.3,0.9c0,0.3,0.1,0.6,0.3,0.9c0.2,0.3,0.5,0.4,0.9,0.4h5.7c1,0,2,0.2,2.9,0.6
	c0.9,0.4,1.7,1,2.3,1.7c0.7,0.7,1.2,1.5,1.5,2.5c0.4,0.9,0.6,1.9,0.6,2.9c0,1.1-0.2,2.2-0.6,3.2c-0.4,1-1,1.8-1.7,2.5
	c-0.7,0.7-1.5,1.2-2.5,1.6c-1,0.4-2.1,0.6-3.2,0.6H137c-0.9,0-1.6-0.3-2.2-0.9c-0.6-0.6-0.9-1.4-0.9-2.3c0-0.8,0.3-1.6,0.9-2.3
	c0.6-0.7,1.3-1.1,2.2-1.1h8.5c0.9,0,1.4-0.4,1.4-1.2c0-0.8-0.5-1.2-1.4-1.2H140c-1,0-2-0.2-2.9-0.6c-0.9-0.4-1.7-1-2.3-1.7
	c-0.7-0.7-1.2-1.5-1.5-2.5c-0.4-0.9-0.6-2-0.6-3c0-1,0.2-2,0.6-2.9c0.4-0.9,0.9-1.7,1.6-2.4c0.7-0.7,1.5-1.3,2.4-1.7
	c0.9-0.4,1.9-0.6,3-0.7H149.2z"/>
<path class="st1" d="M166.7,85.6c1.6,0,3.2,0.3,4.6,1c1.5,0.7,2.8,1.6,3.9,2.7c1.1,1.1,2,2.4,2.7,3.9c0.7,1.5,1,3,1,4.6
	c0,0.9-0.3,1.6-1,2.3c-0.7,0.7-1.5,1-2.4,1h-13.4c1.1,1.6,2.6,2.4,4.6,2.4c0.5,0,1-0.1,1.4-0.2c0.4-0.1,0.7-0.2,1-0.4
	c0.3-0.1,0.6-0.2,0.9-0.4c0.3-0.1,0.6-0.2,1-0.2c0.7,0,1.3,0.2,1.8,0.6c0.5,0.4,0.9,0.8,1.2,1.4c0.3,0.6,0.3,1.2,0.3,1.8
	s-0.4,1.2-0.9,1.8c-0.9,0.7-1.9,1.3-3,1.5c-1.1,0.3-2.3,0.4-3.5,0.5c-1.6,0.1-3.2-0.2-4.6-0.9c-1.5-0.7-2.8-1.5-3.9-2.7
	s-2-2.4-2.7-4c-0.7-1.5-1-3.1-1-4.7c0-1.6,0.3-3.1,1-4.6c0.7-1.5,1.5-2.8,2.6-3.9c1.1-1.1,2.4-2,3.9-2.7
	C163.5,86,165.1,85.6,166.7,85.6z M171.3,94.5c-0.6-0.7-1.2-1.3-2-1.7c-0.8-0.4-1.6-0.6-2.6-0.6c-1,0-1.8,0.2-2.6,0.6
	c-0.8,0.4-1.4,1-2,1.7H171.3z"/>
<path class="st1" d="M68.9,103.6c1.3,0,2.3-1,2.3-2.3c0-1.3-1-2.3-2.3-2.3c-1.3,0-2.3,1-2.3,2.3C66.6,102.5,67.7,103.6,68.9,103.6z"
	/>
<path class="st2" d="M68.9,102.6c1.3,0,2.3-1,2.3-2.3c0-1.3-1-2.3-2.3-2.3c-1.3,0-2.3,1-2.3,2.3C66.6,101.5,67.7,102.6,68.9,102.6z"
	/>
<path class="st2" d="M21.9,83.7c0.6,0.6,1.4,0.9,2.4,0.9c0.9,0,1.6-0.3,2.2-1c0.6-0.7,0.9-1.4,0.9-2.3c0-0.9-0.3-1.6-0.9-2.3
	c-0.6-0.7-1.4-1-2.2-1c-0.9,0-1.6,0.3-2.3,0.9c-0.7,0.6-1,1.3-1,2.2C21,82.3,21.3,83.1,21.9,83.7z"/>
<path class="st2" d="M50.1,103.3h-9.8l9.1-12.1c1.1-1.5,0.8-3.6-0.7-4.7c-0.6-0.4-1.3-0.7-2-0.7H24.4v0c0,0,0,0-0.1,0
	c-0.4,0-0.8,0.1-1.2,0.2h0l0,0l0,0c-0.2,0.1-0.4,0.2-0.6,0.3c0,0,0,0,0,0l0,0l0,0c-0.1,0.1-0.3,0.2-0.4,0.3
	c-0.3,0.3-0.5,0.6-0.7,0.9l0,0c0,0,0,0,0,0c0,0,0,0,0,0l0,0c-0.1,0.3-0.2,0.6-0.3,0.9c0,0,0,0,0,0c0,0,0,0,0,0c0,0.1,0,0.2,0,0.3
	v18.3c0.1,1,0.5,1.7,1.1,2.3s1.3,0.8,2.2,0.8c1-0.1,1.7-0.4,2.3-1c0.6-0.6,0.9-1.4,0.9-2.3V92.5H40l-9,12c-0.1,0.1-0.1,0.2-0.2,0.3
	c0,0-0.1,0.1-0.1,0.1l0,0c-0.3,0.5-0.5,1.1-0.5,1.7v0c0,0,0,0,0,0.1c0,1.7,1.2,3,2.8,3.3c0.2,0,0.4,0.1,0.6,0.1h16.5
	c1.9,0,3.4-1.5,3.4-3.4C53.4,104.8,51.9,103.3,50.1,103.3z"/>
</svg>
