<svg xmlns="http://www.w3.org/2000/svg" viewBox="0 0 416.99 90.71"><defs><style>.cls-1{fill:#72277f;}.cls-2{fill:#d82b2f;}.cls-3{fill:#00a64f;}.cls-4{fill:#2c76bc;}.cls-5{fill:#fcb019;}</style></defs><g id="Layer_2" data-name="Layer 2"><g id="Layer_1-2" data-name="Layer 1"><polygon class="cls-1" points="133.01 38.1 117.62 2.4 108.29 2.4 128.53 48.71 137 48.71 157.17 2.4 148.57 2.4 133.01 38.1"/><rect class="cls-1" x="162.07" y="2.4" width="8.6" height="46.3"/><polygon class="cls-1" points="191.76 28.73 214.12 28.73 214.12 21.65 191.76 21.65 191.76 9.61 216.97 9.61 216.97 2.4 183.16 2.4 183.16 48.71 217.89 48.71 217.89 41.5 191.76 41.5 191.76 28.73"/><polygon class="cls-1" points="221.53 9.68 236.88 9.68 236.88 48.71 245.48 48.71 245.48 9.68 260.82 9.68 260.82 2.4 221.53 2.4 221.53 9.68"/><path class="cls-1" d="M300.77,5.31A28.66,28.66,0,0,0,287.54,2.4H267.3V48.71h20.24a28.66,28.66,0,0,0,13.23-2.91,21.7,21.7,0,0,0,8.87-8.11,22.84,22.84,0,0,0,3.17-12.14,22.82,22.82,0,0,0-3.17-12.17,21.88,21.88,0,0,0-8.87-8.07m1.29,28.58a14.41,14.41,0,0,1-5.88,5.56,19.34,19.34,0,0,1-9,2H275.9V9.68h11.25a19.34,19.34,0,0,1,9,2,14.47,14.47,0,0,1,5.88,5.53,16.19,16.19,0,0,1,2.09,8.36,16.24,16.24,0,0,1-2.09,8.34"/><polygon class="cls-1" points="330.54 28.73 352.9 28.73 352.9 21.65 330.54 21.65 330.54 9.61 355.74 9.61 355.74 2.4 321.94 2.4 321.94 48.71 356.67 48.71 356.67 41.5 330.54 41.5 330.54 28.73"/><polygon class="cls-1" points="366.26 48.71 374.86 48.71 374.86 30.98 397.21 30.98 397.21 23.7 374.86 23.7 374.86 9.61 400.06 9.61 400.06 2.4 366.26 2.4 366.26 48.71"/><rect class="cls-1" x="408.39" y="2.4" width="8.6" height="46.3"/><path d="M121.66,83.94l.66-2a13,13,0,0,0,1.74.71,8.32,8.32,0,0,0,2.78.43,3.37,3.37,0,0,0,2.43-.66,2.26,2.26,0,0,0,.63-1.62,3.36,3.36,0,0,0-.24-1.4,2.16,2.16,0,0,0-1.31-.92l-3.62-1.32a5.27,5.27,0,0,1-2.31-1.43,3.45,3.45,0,0,1-.66-2.23,4.24,4.24,0,0,1,1.06-3c.71-.74,2-1.12,3.88-1.12a16.82,16.82,0,0,1,3,.25,12.25,12.25,0,0,1,2.17.58l-.61,2.07a8.53,8.53,0,0,0-1.14-.37c-.47-.12-1-.23-1.46-.32a8.19,8.19,0,0,0-1.41-.14,4,4,0,0,0-2.39.47,1.88,1.88,0,0,0-.54,1.5,1.66,1.66,0,0,0,.27,1,2.54,2.54,0,0,0,1,.64l3.57,1.39a6.54,6.54,0,0,1,1.93,1,2.76,2.76,0,0,1,.89,1.33,7.11,7.11,0,0,1,.23,2,4.83,4.83,0,0,1-.5,2.19,3.66,3.66,0,0,1-1.59,1.6,6.18,6.18,0,0,1-2.91.59,11.75,11.75,0,0,1-3.57-.47,13.4,13.4,0,0,1-2-.76"/><path d="M136.78,63.25h2.78v3h-2.78Zm0,6.39h2.7V84.86h-2.7Z"/><path d="M145.09,69.64h2.7v1.48a5.08,5.08,0,0,1,1.69-1.27,6.14,6.14,0,0,1,2.67-.5,6.25,6.25,0,0,1,2.85.56,3.73,3.73,0,0,1,1.61,1.44,7.16,7.16,0,0,1,2.16-1.49,7,7,0,0,1,2.82-.51,6.21,6.21,0,0,1,3,.61,3.61,3.61,0,0,1,1.55,1.62,5.29,5.29,0,0,1,.47,2.22V84.86h-2.7V73.64A1.88,1.88,0,0,0,163.1,72a3.78,3.78,0,0,0-2.19-.55,4.23,4.23,0,0,0-2.83.75,2.34,2.34,0,0,0-.85,1.85V84.86h-2.7V73.64A1.86,1.86,0,0,0,153.7,72a4,4,0,0,0-2.24-.55,4.26,4.26,0,0,0-2.83.75,2.36,2.36,0,0,0-.84,1.85V84.86h-2.7Z"/><path d="M171.79,90.71V69.64h2.12l.32,1.15a5.39,5.39,0,0,1,1.74-1,6.62,6.62,0,0,1,2.45-.45,6,6,0,0,1,4.34,1.42,4.91,4.91,0,0,1,1.43,3.62v5.53a5,5,0,0,1-1.57,3.77,6.39,6.39,0,0,1-4.55,1.48,7.88,7.88,0,0,1-2.16-.26,9.93,9.93,0,0,1-1.43-.54v6.34Zm6.11-7.61a4.19,4.19,0,0,0,2.59-.75,2.52,2.52,0,0,0,1-2.15v-6a2.33,2.33,0,0,0-1-2.06,4.18,4.18,0,0,0-2.49-.7,4.37,4.37,0,0,0-1.7.32,5.1,5.1,0,0,0-1.22.71,3.72,3.72,0,0,0-.6.58v9.26a8,8,0,0,0,1.38.55,6.93,6.93,0,0,0,2,.26"/><path d="M189,79.72V63.25h2.7v16.5a5.93,5.93,0,0,0,.23,1.87,1.36,1.36,0,0,0,.83.86,5.21,5.21,0,0,0,1.74.22H195L194.7,85h-.78a8.22,8.22,0,0,1-2.75-.39,2.76,2.76,0,0,1-1.61-1.52,8.25,8.25,0,0,1-.52-3.34"/><path d="M198.43,79.49v-5.3a4.5,4.5,0,0,1,1.48-3.5c1-.89,2.57-1.34,4.75-1.34a7.15,7.15,0,0,1,4.61,1.23A4.19,4.19,0,0,1,210.75,74v3.62h-9.62v2.14a3.64,3.64,0,0,0,.74,2.61,4,4,0,0,0,2.89.76,17.76,17.76,0,0,0,2-.09,1.52,1.52,0,0,0,1.09-.57,3.45,3.45,0,0,0,.46-1.63h2.39a6.42,6.42,0,0,1-.79,2.73,3,3,0,0,1-1.83,1.29,12.87,12.87,0,0,1-3.34.34q-3.4,0-4.87-1.42a5.71,5.71,0,0,1-1.46-4.26m9.7-3.72V73.69a1.82,1.82,0,0,0-.95-1.83,6.16,6.16,0,0,0-2.52-.44,5.13,5.13,0,0,0-2.57.56,2.08,2.08,0,0,0-1,2v1.82Z"/><polygon points="220.74 69.64 223.21 69.64 226.58 81.6 230.24 69.64 232.84 69.64 236.66 81.57 239.91 69.64 242.41 69.64 237.96 84.86 235.45 84.86 231.56 72.74 227.67 84.86 225.11 84.86 220.74 69.64"/><path d="M251.58,85.17a9.1,9.1,0,0,1-3.66-.62,4.16,4.16,0,0,1-2-1.72,4.91,4.91,0,0,1-.63-2.5V74.2a4.94,4.94,0,0,1,.63-2.5,4.11,4.11,0,0,1,2-1.72,10.95,10.95,0,0,1,7.32,0,4.2,4.2,0,0,1,2,1.72,4.85,4.85,0,0,1,.64,2.5v6.13a4.82,4.82,0,0,1-.64,2.5,4.26,4.26,0,0,1-2,1.72,9.13,9.13,0,0,1-3.66.62m0-2.07a5.27,5.27,0,0,0,2.6-.56,2.09,2.09,0,0,0,1-2V74a2.11,2.11,0,0,0-1-2,5.27,5.27,0,0,0-2.6-.57A5.19,5.19,0,0,0,249,72a2.1,2.1,0,0,0-1,2v6.59a2.08,2.08,0,0,0,1,2,5.2,5.2,0,0,0,2.6.56"/><path d="M262.68,69.64h2.7v2.15a2.76,2.76,0,0,1,1.2-1.38,6.37,6.37,0,0,1,2-.76,10.63,10.63,0,0,1,2.11-.23l-.08,2.32a8.56,8.56,0,0,0-2.49.35,6.31,6.31,0,0,0-1.95.91,1.52,1.52,0,0,0-.76,1.2V84.86h-2.7Z"/><polygon points="274.14 63.25 276.83 63.25 276.83 77.33 284.11 69.64 287.07 69.64 280.88 76.33 287.69 84.86 284.57 84.86 279.12 77.79 276.83 80.06 276.83 84.86 274.14 84.86 274.14 63.25"/><path d="M297.38,79.49v-5.3a4.52,4.52,0,0,1,1.47-3.5c1-.89,2.57-1.34,4.76-1.34a7.1,7.1,0,0,1,4.6,1.23A4.16,4.16,0,0,1,309.69,74v3.62h-9.61v2.14a3.69,3.69,0,0,0,.73,2.61,4.09,4.09,0,0,0,2.9.76,17.45,17.45,0,0,0,2-.09,1.48,1.48,0,0,0,1.09-.57,3.44,3.44,0,0,0,.47-1.63h2.38a6.3,6.3,0,0,1-.78,2.73,3,3,0,0,1-1.83,1.29,12.92,12.92,0,0,1-3.34.34q-3.4,0-4.87-1.42a5.67,5.67,0,0,1-1.46-4.26m9.7-3.72V73.69a1.82,1.82,0,0,0-.95-1.83,6.16,6.16,0,0,0-2.52-.44A5.1,5.1,0,0,0,301,72a2.08,2.08,0,0,0-1,2v1.82Z"/><path d="M318.26,85.17a5.58,5.58,0,0,1-2.73-.58A3.65,3.65,0,0,1,314,83.05a4.34,4.34,0,0,1-.5-2,3.8,3.8,0,0,1,.45-1.93,4.05,4.05,0,0,1,1.71-1.42,21.92,21.92,0,0,1,3.69-1.35c.84-.24,1.51-.46,2-.66a2.38,2.38,0,0,0,1.1-.73,2,2,0,0,0,.35-1.28,3.33,3.33,0,0,0-.19-1.12,1.57,1.57,0,0,0-.79-.8,4.25,4.25,0,0,0-1.82-.3,5.8,5.8,0,0,0-2.23.32,1.58,1.58,0,0,0-.89.82,3.15,3.15,0,0,0-.2,1.13v.67h-2.59v-.69a3.69,3.69,0,0,1,1.5-3.28,8,8,0,0,1,4.5-1c2,0,3.41.47,4.21,1.41a5.6,5.6,0,0,1,1.2,3.76V81a2.53,2.53,0,0,0,.31,1.55,1.72,1.72,0,0,0,1.28.34L326.78,85h-.55a3.27,3.27,0,0,1-2.2-.6,3.6,3.6,0,0,1-1-1.67,6,6,0,0,1-.91,1.09,4.88,4.88,0,0,1-1.5,1,5.89,5.89,0,0,1-2.34.4m.33-2a4.71,4.71,0,0,0,1.71-.35,6,6,0,0,0,1.59-.93,2.75,2.75,0,0,0,.91-1.29v-4a7.51,7.51,0,0,1-1.1.82,8.58,8.58,0,0,1-2.23.93,10.1,10.1,0,0,0-2.59,1,1.74,1.74,0,0,0-.83,1.55,2.2,2.2,0,0,0,.6,1.7,2.83,2.83,0,0,0,1.94.54"/><path d="M330.45,83.94l.66-2a13,13,0,0,0,1.74.71,8.32,8.32,0,0,0,2.78.43,3.37,3.37,0,0,0,2.43-.66,2.26,2.26,0,0,0,.63-1.62,3.36,3.36,0,0,0-.24-1.4,2.13,2.13,0,0,0-1.31-.92l-3.62-1.32a5.27,5.27,0,0,1-2.31-1.43,3.45,3.45,0,0,1-.66-2.23,4.24,4.24,0,0,1,1.06-3c.71-.74,2-1.12,3.88-1.12a16.82,16.82,0,0,1,2.95.25,12.25,12.25,0,0,1,2.17.58L340,72.25a8.53,8.53,0,0,0-1.14-.37c-.47-.12-1-.23-1.46-.32a8.19,8.19,0,0,0-1.41-.14,4,4,0,0,0-2.39.47,1.88,1.88,0,0,0-.54,1.5,1.66,1.66,0,0,0,.27,1,2.62,2.62,0,0,0,1,.64l3.57,1.39a6.54,6.54,0,0,1,1.93,1,2.76,2.76,0,0,1,.89,1.33,7.11,7.11,0,0,1,.23,2,4.83,4.83,0,0,1-.5,2.19,3.66,3.66,0,0,1-1.59,1.6,6.18,6.18,0,0,1-2.91.59,11.75,11.75,0,0,1-3.57-.47,13.4,13.4,0,0,1-2-.76"/><path d="M345.49,90.68V88.57a4.72,4.72,0,0,0,2.6-.64,4.86,4.86,0,0,0,1.7-2.3l.27-.65-6.32-15.34h2.79l4.72,12.14,3.92-12.14h2.7l-5.8,16.62a6.79,6.79,0,0,1-2.26,3.33,7.17,7.17,0,0,1-4.32,1.09"/><path d="M368.78,79.72V63.25h2.7v16.5a5.65,5.65,0,0,0,.23,1.87,1.36,1.36,0,0,0,.83.86,5.21,5.21,0,0,0,1.74.22h.47L374.43,85h-.77a8.22,8.22,0,0,1-2.75-.39,2.76,2.76,0,0,1-1.61-1.52,8.25,8.25,0,0,1-.52-3.34"/><path d="M379,63.25h2.79v3H379Zm.05,6.39h2.7V84.86H379Z"/><path d="M388.72,71.68h-2.54v-2h2.54V67.33a3.82,3.82,0,0,1,1.17-3.11,5.38,5.38,0,0,1,3.51-1h1.7l.18,1.91h-1.67a2.18,2.18,0,0,0-1.71.55,1.93,1.93,0,0,0-.49,1.36v2.57h3.69v2h-3.69V84.86h-2.69Z"/><path d="M398.06,79.49v-5.3a4.5,4.5,0,0,1,1.48-3.5c1-.89,2.57-1.34,4.75-1.34a7.14,7.14,0,0,1,4.61,1.23A4.19,4.19,0,0,1,410.38,74v3.62h-9.62v2.14a3.68,3.68,0,0,0,.74,2.61,4.06,4.06,0,0,0,2.89.76,17.64,17.64,0,0,0,2-.09,1.52,1.52,0,0,0,1.09-.57,3.56,3.56,0,0,0,.47-1.63h2.38a6.58,6.58,0,0,1-.78,2.73,3,3,0,0,1-1.83,1.29,13,13,0,0,1-3.35.34q-3.4,0-4.86-1.42a5.68,5.68,0,0,1-1.47-4.26m9.71-3.72V73.69a1.81,1.81,0,0,0-1-1.83,6.16,6.16,0,0,0-2.52-.44,5.13,5.13,0,0,0-2.57.56,2.08,2.08,0,0,0-1,2v1.82Z"/><path class="cls-2" d="M63.31,16.56a16.53,16.53,0,0,1-5.94,12.71,21.78,21.78,0,0,0-21.26,0,16.57,16.57,0,1,1,27.2-12.71"/><path class="cls-3" d="M24.94,48.31a22.4,22.4,0,0,0,.41,4.2,16.55,16.55,0,1,1,6.57-20.19,21.68,21.68,0,0,0-7,16"/><path class="cls-4" d="M41.5,83.71A16.57,16.57,0,1,1,27,57.46,21.8,21.8,0,0,0,44.14,69.93,16.39,16.39,0,0,1,41.5,83.71"/><path d="M75.14,87.37A16.55,16.55,0,0,1,49.36,69.93,21.76,21.76,0,0,0,66.52,57.46a16.55,16.55,0,0,1,8.62,29.91"/><path class="cls-5" d="M82.05,54.24a16.48,16.48,0,0,1-13.91-1.73,22.4,22.4,0,0,0,.4-4.2,21.74,21.74,0,0,0-7-16A16.56,16.56,0,1,1,82.05,54.24"/><path class="cls-1" d="M43.57,38.7a6.49,6.49,0,0,0-12,1.82,6.31,6.31,0,0,0-.16,1.42,6.6,6.6,0,0,0,.87,3.25l5.47,9.47L38.73,53h0l2.9-5a2.21,2.21,0,0,0,.11-.21l1.81-3.13a5.85,5.85,0,0,0,0-5.94"/><path class="cls-1" d="M61.53,44.86l-9,15.67a6.62,6.62,0,0,1-5.71,3.23A6.18,6.18,0,0,1,44,63.1a6.4,6.4,0,0,1-2.71-9L50.11,38.7a6.57,6.57,0,0,1,5.69-3.22,6.24,6.24,0,0,1,2.82.66l.36.18a6.06,6.06,0,0,1,2.55,8.54"/></g></g></svg>