<svg id="Layer_1" data-name="Layer 1" xmlns="http://www.w3.org/2000/svg" viewBox="0 0 300 300"><defs><style>.cls-1{fill:#44aecb;}.cls-2{fill:#f4aa82;}.cls-3{fill:#f9c9d3;}.cls-4{fill:#f5a8b9;}.cls-5{fill:#bf7f93;}.cls-6{fill:#fff;}</style></defs><rect class="cls-1" width="300" height="300" rx="24.16"/><path class="cls-2" d="M223.18,93.58a25.52,25.52,0,0,1,2.35-19.79c1.87.86,24.49,13,24.47,13.07A60.93,60.93,0,0,1,225.24,98,18.56,18.56,0,0,1,223.18,93.58Z"/><path class="cls-2" d="M157.8,177l4,1.59q.35,11,.68,21.95c0,.17.05,1.88.07,1.89,1.54.57,3,1,4.61,1.43,1.35.38,5.32,1.35,4.57,3.21-.92,2.24-8.12-.4-9.61-1.29.75.45-1.44,6.36-1.68,7.19a2.74,2.74,0,0,1-1.06,1.54,1.8,1.8,0,0,1-1.91.05c-1-.72-.56-2.77-.47-3.78a17.2,17.2,0,0,1,1.17-4.52,12.07,12.07,0,0,0-3.14.48c-1.31.17-4.83,1.42-5.45-.37-.91-2.61,6.08-2.76,7.56-3.53.81-.42.6-.24.8-.92a7.24,7.24,0,0,0,0-1.86l0-6.21-.06-13.92C157.82,178.92,157.81,178,157.8,177Z"/><path class="cls-2" d="M131.87,179.19l4,1.59q.33,11,.67,21.95c0,.17.05,1.88.07,1.89,1.54.57,3,1,4.62,1.43,1.34.37,5.31,1.35,4.56,3.2-.92,2.25-8.12-.39-9.61-1.29.76.46-1.44,6.36-1.68,7.2a2.7,2.7,0,0,1-1.05,1.53,1.85,1.85,0,0,1-.95.31,1.83,1.83,0,0,1-1-.25c-1-.72-.55-2.77-.47-3.78a16.91,16.91,0,0,1,1.18-4.53,12.53,12.53,0,0,0-3.15.49c-1.31.16-4.83,1.41-5.45-.38-.9-2.6,6.08-2.75,7.57-3.52.8-.42.59-.24.8-.92a7.8,7.8,0,0,0,0-1.87l0-6.2q0-7-.07-13.93C131.88,181.14,131.87,180.16,131.87,179.19Z"/><path class="cls-3" d="M209.64,47.65c-9.17-6.34-20.13-9.55-30.95-8.43-25.22,2.64-39.57,22.31-51,40.57-6.55,10.45-13,21-21.64,30.08-4.12,4.33-9.2,8.17-15.67,9.2-7.23,1.15-16.76.2-21.38,6.07-4.37,5.54-3,13.78.28,20.07,4.83,9.16,14.11,16.61,22.76,22.7,12.32,8.66,25.54,16.25,40.41,19.91,36.81,9,67.39-12.41,85-38.26C235.82,122.62,244.46,71.77,209.64,47.65Z"/><path class="cls-4" d="M164.29,126.39l-.36.45c-8.11,10.14-21,18.51-34.64,23a70.68,70.68,0,0,1-49.7-1.64c-8.75-3.74-17.51-8.46-22.38-15.25C54,128.5,50.71,122,60.6,119.12a169.06,169.06,0,0,0,33.2-13.24c9.06-4.77,17.59-10.3,26.76-14.9,19.09-9.57,40-6.18,47.25,5.24C173,104.36,172.54,115.85,164.29,126.39Z"/><path class="cls-5" d="M195.91,87.33a7.75,7.75,0,1,0-7.74-7.75A7.74,7.74,0,0,0,195.91,87.33Z"/><path class="cls-6" d="M57.05,233a3.44,3.44,0,0,1-.59-.07l-.74-.24-.74-.27a3.73,3.73,0,0,1-.47-.24.42.42,0,0,1,0-.15.59.59,0,0,1,0-.2,1.26,1.26,0,0,1,.43-.94,3.7,3.7,0,0,1,1-.62A5.63,5.63,0,0,1,57,229.9a6.11,6.11,0,0,1,.86-.2h.86c.63.06,1.42.13,2.38.24s2,.22,3.05.35,2.19.22,3.28.35,2.12.22,3,.35l2.27.28c.62,0,1,.07,1.09.07a7.25,7.25,0,0,1,.78.16,5.16,5.16,0,0,1,2,.82,1.62,1.62,0,0,1,.63.7,8.4,8.4,0,0,1-.55,1,2.06,2.06,0,0,1-.51.51,1.17,1.17,0,0,1-.58.15h-.7c-1.1,0-2.21,0-3.33-.11l-3.28-.24-3.32-.23c-1.09-.08-2.2-.12-3.32-.12a16.66,16.66,0,0,1-.19,2.11c-.11.94-.2,1.93-.28,3a21.68,21.68,0,0,0,.08,3.12,5.9,5.9,0,0,0,.9,2.58,5.87,5.87,0,0,1,2.85-.86c1,0,2,0,3,0h1.68a7.77,7.77,0,0,1,2,.24,3.85,3.85,0,0,1,1.64.78,2,2,0,0,1,.67,1.64,1.9,1.9,0,0,1-.31,1.17c-.21.26-.69.39-1.45.39a2.76,2.76,0,0,1-.51-.11l-.78-.28-.74-.27a1.92,1.92,0,0,0-.47-.12h-.31a4.55,4.55,0,0,0-.59,0H68c-.21,0-.38,0-.51,0a12.79,12.79,0,0,0-1.76.12,4,4,0,0,0-1.44.47,2.67,2.67,0,0,0-1,1,3.76,3.76,0,0,0-.35,1.72c0,.24,0,.64.08,1.21s.12,1.22.19,1.92.24,1.38.39,2.11a12.05,12.05,0,0,0,.63,2,7.42,7.42,0,0,0,.86,1.52,1.56,1.56,0,0,0,1.21.59l.39,0,.39,0c.89-.6,1.77-1.25,2.66-1.95a33,33,0,0,1,2.81-2,17.91,17.91,0,0,1,3-1.56,8.23,8.23,0,0,1,3.24-.66v1.91c0,.11-.26.39-.78.86a23.33,23.33,0,0,1-2,1.64c-.81.63-1.72,1.29-2.74,2s-2,1.36-3.05,2a28,28,0,0,1-2.92,1.44,6.16,6.16,0,0,1-2.31.59,3.15,3.15,0,0,1-2.38-1.17,12.5,12.5,0,0,1-1.84-3.17,26.66,26.66,0,0,1-1.37-4.57c-.36-1.72-.69-3.49-1-5.31s-.48-3.63-.67-5.43-.28-3.5-.39-5-.18-2.86-.23-4S57.08,233.47,57.05,233ZM98,259c-1,.68-1.85,1.29-2.58,1.84a16.19,16.19,0,0,1-2.07,1.32,9,9,0,0,1-2.19.83,12.31,12.31,0,0,1-2.81.27q-3.63,0-5.39-1.92c-1.17-1.3-1.76-3.22-1.76-5.78a13,13,0,0,1,.39-3.08,16.94,16.94,0,0,1,1.13-3.17,18.69,18.69,0,0,1,1.84-3A13.72,13.72,0,0,1,87,243.73,11.24,11.24,0,0,1,89.79,242a8,8,0,0,1,3.2-.67,9.15,9.15,0,0,1,4.41,1.41,6.89,6.89,0,0,1,2.42,2.85,13.45,13.45,0,0,1,1.14,3.87c.21,1.41.36,2.86.47,4.37s.28,3,.46,4.54a14.25,14.25,0,0,0,1.14,4.17,6.16,6.16,0,0,1-1,1.8.67.67,0,0,1-1,.2,5,5,0,0,1-1.28-1.72C99.32,261.92,98.73,260.63,98,259ZM84.55,255.6a5.29,5.29,0,0,0,.82,3.28,3.77,3.77,0,0,0,3,1A8.36,8.36,0,0,0,94,257.79a7.89,7.89,0,0,0,1.76-2.42,7.29,7.29,0,0,0,.67-3.13q0-.7,0-2a13.39,13.39,0,0,0-.15-2.54,5.94,5.94,0,0,0-.74-2.15,1.81,1.81,0,0,0-1.64-.94,7,7,0,0,0-3.75,1.06,10.47,10.47,0,0,0-3,2.62,12.54,12.54,0,0,0-2,3.55A10.94,10.94,0,0,0,84.55,255.6Zm20.94-8a5.48,5.48,0,0,1,0-.7,2.3,2.3,0,0,1,.15-.66,1.19,1.19,0,0,1,.36-.51,1.23,1.23,0,0,1,.74-.2c.26,0,.54.21.86.63a9.29,9.29,0,0,1,1,1.52,19.44,19.44,0,0,1,1,2c.34.73.62,1.41.86,2s.47,1.12.62,1.56a4.92,4.92,0,0,0,.28.7c.33-.91.71-1.9,1.13-3a16,16,0,0,1,1.52-3,9.63,9.63,0,0,1,2.19-2.34,5.14,5.14,0,0,1,3.13-.94,5,5,0,0,1,1.75.31,3.94,3.94,0,0,1,1.49.86,4.13,4.13,0,0,1,1.05,1.33A4,4,0,0,1,124,249a1.24,1.24,0,0,1-.7,1.21,3.24,3.24,0,0,1-1.52.35h-.39l-1.68-1.68c-.06,0-.1,0-.12,0h-.16a.16.16,0,0,0-.11,0,2.9,2.9,0,0,0-2.15.78,4.8,4.8,0,0,0-1.14,1.88,9.27,9.27,0,0,0-.5,2.34c-.06.81-.08,1.55-.08,2.23a8.91,8.91,0,0,0,.15,1.6q.17.78.36,1.56c.13.5.24,1,.35,1.57a8.62,8.62,0,0,1,.15,1.64c0,1.09-.58,1.64-1.75,1.64a3.05,3.05,0,0,1-2-1,17,17,0,0,1-2.1-2.65,37.09,37.09,0,0,1-2-3.52c-.62-1.3-1.17-2.56-1.64-3.79s-.84-2.33-1.13-3.32A9.69,9.69,0,0,1,105.49,247.59Zm20.9-5.7a15.56,15.56,0,0,0-.16-2.19,8.54,8.54,0,0,1-.08-1.91,2.14,2.14,0,0,1,.59-1.37,2.85,2.85,0,0,1,2-.51,12.75,12.75,0,0,1,.82,2.74c.29,1.22.56,2.63.82,4.22s.51,3.32.74,5.19.45,3.71.63,5.59.38,3.72.51,5.55.27,3.43.35,4.92c-.86.57-1.55.61-2.07.11a5.52,5.52,0,0,1-1.29-2.5,26.1,26.1,0,0,1-.78-4.33c-.18-1.72-.37-3.49-.55-5.31s-.35-3.66-.58-5.43A40,40,0,0,0,126.39,241.89Zm7.54,1.91v-.7a2.48,2.48,0,0,1,.15-.7,1.19,1.19,0,0,1,.39-.51,1.32,1.32,0,0,1,.78-.19h.24l.19,0a9.55,9.55,0,0,1,1.29,2.62c.37,1,.72,2.16,1.06,3.36s.7,2.37,1.09,3.59a13.7,13.7,0,0,0,1.53,3.25,7.42,7.42,0,0,0,2.3,2.3,5.64,5.64,0,0,0,3.4.74,1.14,1.14,0,0,0,1.17-1,9.63,9.63,0,0,0,.27-2.5c0-1,0-2.14-.08-3.36s-.05-2.38,0-3.48a10.55,10.55,0,0,1,.59-2.93,2.83,2.83,0,0,1,1.72-1.68,11.22,11.22,0,0,1,.82,3.21,49.88,49.88,0,0,1,.51,5q.15,2.81.15,6.13c0,2.19-.05,4.37-.15,6.56s-.26,4.25-.47,6.25-.44,3.76-.7,5.27a17.64,17.64,0,0,1-.94,3.56c-.34.88-.7,1.26-1.09,1.13a5.43,5.43,0,0,1-1.3-2,14.48,14.48,0,0,1-.62-2.77,28.27,28.27,0,0,1-.12-3.25q0-1.68.12-3.39c.08-1.15.16-2.27.23-3.36s.16-2.1.16-3a6.73,6.73,0,0,1-2.89-.43,10.86,10.86,0,0,1-2.85-1.68,18.61,18.61,0,0,1-2.7-2.81,20.93,20.93,0,0,1-2.22-3.71,23.59,23.59,0,0,1-1.49-4.46A23.2,23.2,0,0,1,133.93,243.8Zm38.47-8.94a7.61,7.61,0,0,1,1.72-3.75A6.24,6.24,0,0,1,177,229.2a7.79,7.79,0,0,1,3.48-.24,9.77,9.77,0,0,1,3.51,1.13,10.13,10.13,0,0,1,2.94,2.35,8.12,8.12,0,0,1,1.75,3.24,7.61,7.61,0,0,1,0,3.91,11.18,11.18,0,0,1-2.3,4.33q1.41.51,2.61,1a7,7,0,0,1,2,1.25,5,5,0,0,1,1.32,1.79,6.36,6.36,0,0,1,.47,2.62,8.72,8.72,0,0,1-.47,2.74,13.5,13.5,0,0,1-1.32,2.85,17.54,17.54,0,0,1-2,2.69,15.63,15.63,0,0,1-2.38,2.23,12.74,12.74,0,0,1-2.66,1.56,6.69,6.69,0,0,1-2.61.55,2.21,2.21,0,0,1-1.68-1.1,14.45,14.45,0,0,1-1.61-2.89c-.51-1.19-1-2.57-1.52-4.14s-1-3.17-1.37-4.84-.79-3.36-1.13-5-.64-3.2-.9-4.61-.43-2.62-.58-3.63A21.28,21.28,0,0,1,172.4,234.86Zm6.95,16.91a6.73,6.73,0,0,0,.32,1.76,19.14,19.14,0,0,0,.78,2.19,19.38,19.38,0,0,0,1.09,2,3.23,3.23,0,0,0,1.25,1.21,1.32,1.32,0,0,0,1.29,0,5.87,5.87,0,0,0,1.49-1.17,15.45,15.45,0,0,0,1.48-1.84,23.26,23.26,0,0,0,1.25-2.07,12.06,12.06,0,0,0,.9-1.87,4.3,4.3,0,0,0,.35-1.37,4.19,4.19,0,0,0-.27-1.64,2.39,2.39,0,0,0-.82-1.05,3,3,0,0,0-1.25-.55,7.23,7.23,0,0,0-3.64.16,7.83,7.83,0,0,0-2,.89,6.33,6.33,0,0,0-1.56,1.45A3.15,3.15,0,0,0,179.35,251.77Zm-2.5-13.28c0,.47,0,1.06,0,1.76s0,1.38,0,2.11a14.8,14.8,0,0,0,.23,2.19,5,5,0,0,0,.7,1.87,8.29,8.29,0,0,0,3.32-1.33,8.17,8.17,0,0,0,2.31-2.26,9.15,9.15,0,0,0,1.29-2.81,8.53,8.53,0,0,0,.27-2.9,6.47,6.47,0,0,0-.66-2.57,4.13,4.13,0,0,0-1.57-1.8,4.38,4.38,0,0,0-2.46-.66,7.66,7.66,0,0,0-3.32.93c0,.21,0,.58,0,1.1s0,1.06-.05,1.64v2.73Zm20.08,10.86v-.74c0-.37,0-.74,0-1.13s0-.77,0-1.14,0-.62,0-.78a3.44,3.44,0,0,1,1.1-1,8.26,8.26,0,0,1,1.4-.63,27.23,27.23,0,0,0,.66,4.49c.37,1.59.76,3.19,1.18,4.81s.78,3.16,1.09,4.73a20.61,20.61,0,0,1,.51,4.37,1.57,1.57,0,0,1-1.8,1.76,2.3,2.3,0,0,1-1.84-.9,7.15,7.15,0,0,1-1.2-2.27,22.22,22.22,0,0,1-.71-3.08q-.27-1.72-.39-3.36c-.05-1.09-.09-2.1-.12-3Zm.55-14.65a2.92,2.92,0,0,1,1.25,1,1.83,1.83,0,0,1,.43,1.29c0,.36-.31.62-.86.78a5.63,5.63,0,0,1-2.73-.47,4.12,4.12,0,0,1,.39-1.84A1.58,1.58,0,0,1,197.48,234.7Zm7,12.89a5.48,5.48,0,0,1,0-.7,2.28,2.28,0,0,1,.16-.66,1.17,1.17,0,0,1,.35-.51,1.25,1.25,0,0,1,.74-.2c.26,0,.55.21.86.63a8.69,8.69,0,0,1,1,1.52,21.79,21.79,0,0,1,1,2c.34.73.63,1.41.86,2s.47,1.12.63,1.56a4.33,4.33,0,0,0,.27.7c.34-.91.72-1.9,1.13-3a16,16,0,0,1,1.53-3,9.41,9.41,0,0,1,2.18-2.34,5.49,5.49,0,0,1,4.89-.63,4,4,0,0,1,1.48.86,4.3,4.3,0,0,1,1.06,1.33,4,4,0,0,1,.39,1.8,1.24,1.24,0,0,1-.71,1.21,3.24,3.24,0,0,1-1.52.35h-.39l-1.68-1.68a.16.16,0,0,1-.12,0h-.15a.21.21,0,0,0-.12,0,2.91,2.91,0,0,0-2.15.78,4.9,4.9,0,0,0-1.13,1.88,9.73,9.73,0,0,0-.51,2.34c-.05.81-.08,1.55-.08,2.23a8.11,8.11,0,0,0,.16,1.6c.1.52.22,1,.35,1.56s.25,1,.35,1.57a7.87,7.87,0,0,1,.16,1.64c0,1.09-.59,1.64-1.76,1.64a3,3,0,0,1-2-1,17,17,0,0,1-2.11-2.65,35,35,0,0,1-1.95-3.52c-.63-1.3-1.18-2.56-1.64-3.79s-.85-2.33-1.14-3.32A9.69,9.69,0,0,1,204.51,247.59Zm19.1,11.8a7.22,7.22,0,0,1,1.14-4,12,12,0,0,1,2.81-3.05,17.79,17.79,0,0,1,3.63-2.23,36.14,36.14,0,0,1,3.63-1.52c1.12-.42,2.06-.74,2.82-1s1.13-.47,1.13-.62a21,21,0,0,0-.16-2.66c-.07-.88-.17-1.77-.27-2.65s-.21-1.76-.31-2.62-.12-1.76-.12-2.62v-2.54c1.07-.39,1.82-.35,2.27.12s.54,1.28.23,2.42c.1.57.25,1.47.43,2.7s.38,2.6.59,4.14.47,3.15.7,4.84.49,3.32.7,4.88.43,2.92.59,4.14.27,2.1.35,2.7a7.26,7.26,0,0,1,.08.78c0,.37,0,.77,0,1.21s0,.81,0,1.17,0,.63,0,.79a11.33,11.33,0,0,1-2-.12.9.9,0,0,1-.66-.47,3.29,3.29,0,0,1-.12-1,6.25,6.25,0,0,0-.39-1.83A23.07,23.07,0,0,1,238,262.2a15.76,15.76,0,0,1-2.58,1.21,12.56,12.56,0,0,1-2.62.59,18.5,18.5,0,0,1-2.77.2,14.73,14.73,0,0,1-2.42-.2,6.56,6.56,0,0,1-2-.78,4.2,4.2,0,0,1-1.44-1.49A4.6,4.6,0,0,1,223.61,259.39Zm3.4-.82a1.69,1.69,0,0,0,.28,1,2.33,2.33,0,0,0,.7.66,3,3,0,0,0,.9.39,6.67,6.67,0,0,0,1,.08,9.47,9.47,0,0,0,2.93-.51,11.36,11.36,0,0,0,2.93-1.48,8.43,8.43,0,0,0,2.23-2.31,5,5,0,0,0,.9-2.89,2.53,2.53,0,0,0-.43-1.68,2.21,2.21,0,0,0-1.64-.47,9.1,9.1,0,0,0-2.93.59,16.29,16.29,0,0,0-3.2,1.56,10.26,10.26,0,0,0-2.58,2.31A4.22,4.22,0,0,0,227,258.57Z"/></svg>