<svg width="472" height="260" viewBox="0 0 472 260" fill="none" xmlns="http://www.w3.org/2000/svg">
<path d="M471.381 260H0.619423C0.455141 260 0.297589 259.935 0.181425 259.819C0.0652604 259.702 0 259.545 0 259.381C0 259.216 0.0652604 259.059 0.181425 258.943C0.297589 258.826 0.455141 258.761 0.619423 258.761H471.381C471.545 258.761 471.702 258.826 471.819 258.943C471.935 259.059 472 259.216 472 259.381C472 259.545 471.935 259.702 471.819 259.819C471.702 259.935 471.545 260 471.381 260Z" fill="#CCCCCC"/>
<path d="M312.616 88.4953C312.821 88.7792 313.005 89.0773 313.168 89.3873L344.207 92.8748L348.723 86.7733L358.819 92.3854L349.93 107.202L311.904 97.248C310.962 98.1563 309.771 98.7646 308.483 98.9959C307.195 99.2272 305.867 99.0712 304.667 98.5477C303.468 98.0241 302.45 97.1564 301.744 96.0545C301.038 94.9526 300.674 93.6659 300.699 92.3573C300.724 91.0487 301.137 89.7769 301.885 88.703C302.633 87.629 303.683 86.8011 304.902 86.324C306.121 85.8469 307.454 85.742 308.732 86.0227C310.01 86.3033 311.177 86.9569 312.084 87.9007C312.274 88.0874 312.452 88.286 312.616 88.4953Z" fill="#FFB8B8"/>
<path d="M154.236 80.486C152.811 81.3214 151.112 81.5572 149.513 81.1414C147.914 80.7256 146.545 79.6924 145.707 78.2684C145.521 77.9523 145.364 77.6207 145.236 77.2773L123.11 77.7419L129.236 68.0042L149.281 69.0635C150.755 68.6065 152.346 68.71 153.748 69.3539C155.151 69.9978 156.266 71.137 156.88 72.5527C157.494 73.9685 157.564 75.5612 157.076 77.0253C156.588 78.4894 155.577 79.7217 154.236 80.486Z" fill="#FFB8B8"/>
<path d="M144.505 77.6985C144.329 78.2848 143.965 78.797 143.469 79.1563C142.973 79.5155 142.373 79.702 141.761 79.6869L101.257 78.6648L64.581 67.806C62.5981 67.1777 60.9408 65.7964 59.9655 63.9591C58.9903 62.1217 58.7748 59.975 59.3655 57.9805C59.9562 55.986 61.3059 54.3029 63.1245 53.2931C64.943 52.2832 67.0851 52.0272 69.0904 52.5802L69.3134 52.6483L102.446 63.5133L142.213 67.3476C142.909 67.4202 143.553 67.7501 144.018 68.2726C144.483 68.7952 144.736 69.4727 144.728 70.1723L144.617 76.9861C144.608 77.2272 144.57 77.4663 144.505 77.6985Z" fill="#3F3D56"/>
<path d="M85.7653 251.83H93.3594L96.9706 222.536H85.7653V251.83Z" fill="#FFB8B8"/>
<path d="M83.8265 249.352H98.7855C100.037 249.351 101.276 249.597 102.432 250.075C103.588 250.554 104.639 251.256 105.524 252.14C106.409 253.025 107.11 254.076 107.589 255.232C108.067 256.388 108.313 257.627 108.312 258.879V259.189H83.8265V249.352Z" fill="#2F2E41"/>
<path d="M63.466 251.83H71.0602L74.6714 222.536H63.466V251.83Z" fill="#FFB8B8"/>
<path d="M61.5272 249.352H76.4863C77.7376 249.351 78.9768 249.597 80.133 250.075C81.2892 250.554 82.3397 251.256 83.2245 252.14C84.1093 253.025 84.811 254.076 85.2895 255.232C85.768 256.388 86.0138 257.627 86.013 258.879V259.189H61.5272V249.352Z" fill="#2F2E41"/>
<path d="M58.3682 133.448L60.1831 241.045C60.1887 241.37 60.2584 241.692 60.3882 241.99C60.518 242.288 60.7052 242.558 60.9394 242.785C61.1735 243.011 61.4498 243.188 61.7526 243.308C62.0554 243.427 62.3788 243.485 62.7042 243.479H62.8838L71.7725 242.674C72.3553 242.62 72.9001 242.362 73.3106 241.945C73.721 241.527 73.9705 240.978 74.0148 240.395L79.218 173.284C79.218 173.12 79.2832 172.963 79.3994 172.846C79.5155 172.73 79.6731 172.665 79.8374 172.665C80.0017 172.665 80.1592 172.73 80.2754 172.846C80.3915 172.963 80.4568 173.12 80.4568 173.284L83.0584 241.931C83.0824 242.572 83.354 243.178 83.8161 243.623C84.2782 244.068 84.8947 244.316 85.5361 244.316H95.069C95.7001 244.317 96.308 244.077 96.7684 243.646C97.2289 243.214 97.5072 242.623 97.5467 241.993L104.218 132.816L64.5748 122.905L58.3682 133.448Z" fill="#2F2E41"/>
<path d="M87.1218 32.4173C95.5237 32.4173 102.335 25.606 102.335 17.2039C102.335 8.80171 95.5237 1.9904 87.1218 1.9904C78.7199 1.9904 71.9088 8.80171 71.9088 17.2039C71.9088 25.606 78.7199 32.4173 87.1218 32.4173Z" fill="#FFB8B8"/>
<path d="M103.623 137.437H103.58L68.0064 136.892C67.323 136.881 66.6676 136.619 66.1642 136.157C65.6608 135.694 65.3444 135.063 65.2748 134.384L64.8721 130.351C64.8721 130.269 64.8395 130.19 64.7814 130.132C64.7233 130.074 64.6446 130.041 64.5624 130.041C64.4803 130.041 64.4015 130.074 64.3434 130.132C64.2853 130.19 64.2527 130.269 64.2527 130.351L63.8315 134.514C63.7623 135.161 63.4684 135.763 63.001 136.216C62.5336 136.668 61.9222 136.943 61.2733 136.991L58.7584 137.183C58.3939 137.215 58.0268 137.174 57.6781 137.063C57.3293 136.953 57.0059 136.774 56.7262 136.538C56.4466 136.302 56.2163 136.014 56.0484 135.688C55.8805 135.363 55.7785 135.008 55.748 134.644C55.7252 134.334 55.7524 134.022 55.8286 133.721L57.9965 125.47C62.4742 108.316 62.835 90.3474 59.0496 73.0279L57.9965 68.1343C57.1853 64.4786 57.5563 60.6596 59.0559 57.2284C60.5555 53.7971 63.1062 50.9309 66.3402 49.0431L73.3272 44.9486L76.4987 40.1913C77.1135 39.2716 77.9415 38.5142 78.9122 37.9836C79.8829 37.4529 80.9675 37.1648 82.0735 37.1437C86.4962 37.0446 94.0779 37.856 95.5026 44.323C99.0327 45.5318 102.089 47.8278 104.234 50.8815C106.378 53.9351 107.5 57.5895 107.439 61.3205L106.411 134.687C106.399 135.419 106.101 136.118 105.579 136.632C105.058 137.147 104.356 137.436 103.623 137.437Z" fill="#3F3D56"/>
<path d="M85.9325 25.9752C85.8706 28.1246 84.3777 29.3697 82.5443 30.4971C80.7108 31.6245 78.5676 32.1138 76.4677 32.5846C76.0361 32.8049 75.5355 32.8479 75.0727 32.7044C74.6098 32.5609 74.2213 32.2423 73.99 31.8165C73.8476 31.5519 73.7731 31.256 73.7732 30.9555L71.8468 23.6337C71.165 21.2938 70.6699 18.9035 70.3664 16.4853C69.9018 11.8395 70.9858 6.83443 74.2502 3.47706C77.5145 0.11969 83.1265 -1.08202 87.0165 1.50724C91.6064 -4.39603 112.735 8.66798 107.501 12.7377C106.578 13.4625 105.159 12.5395 103.982 12.4528C102.806 12.366 101.505 12.5705 100.743 13.481C99.7704 14.6766 100.192 16.4482 99.789 17.9348C99.6242 18.4556 99.3583 18.9388 99.0066 19.3568C98.6549 19.7748 98.2242 20.1193 97.7392 20.3708C97.2543 20.6222 96.7245 20.7755 96.1802 20.822C95.6359 20.8685 95.0878 20.8073 94.5673 20.6418C93.5948 20.1634 92.6804 19.5752 91.8418 18.8888C90.9436 18.2693 89.8039 17.8481 88.788 18.226C87.4501 18.7215 86.9731 20.363 86.8493 21.7815C86.6399 23.1987 86.3336 24.5999 85.9325 25.9752Z" fill="#2F2E41"/>
<path d="M89.488 66.753L91.9657 97.1056L104.974 128.697L85.7714 97.725L89.488 66.753Z" fill="black"/>
<path d="M249.516 232.968L113.757 152.44C111.428 151.055 109.744 148.802 109.074 146.176C108.404 143.551 108.803 140.767 110.183 138.435L173.438 31.7855C174.453 30.0779 176.104 28.8428 178.028 28.3515C179.953 27.8602 181.993 28.1529 183.702 29.1653L324.051 112.431C325.785 113.464 327.039 115.143 327.539 117.099C328.038 119.055 327.741 121.13 326.714 122.868L263.533 229.412C262.144 231.74 259.887 233.421 257.26 234.088C254.632 234.754 251.847 234.351 249.516 232.968Z" fill="#F2F2F2"/>
<path d="M127.496 148.662L246.208 219.092C248.469 220.432 251.169 220.82 253.715 220.169C256.261 219.519 258.445 217.884 259.786 215.623L308.318 133.857C308.982 132.737 309.42 131.498 309.605 130.209C309.79 128.92 309.72 127.608 309.398 126.346C309.076 125.085 308.508 123.899 307.727 122.857C306.947 121.815 305.969 120.937 304.849 120.273L186.136 49.836C183.876 48.4959 181.176 48.1084 178.629 48.7589C176.083 49.4094 173.9 51.0446 172.559 53.3049L124.027 135.108C122.695 137.367 122.312 140.061 122.962 142.602C123.612 145.142 125.242 147.321 127.496 148.662Z" fill="white"/>
<path d="M326.956 122.187L173.612 31.2094L176.269 26.7371C177.66 24.4004 179.92 22.7106 182.555 22.0382C185.19 21.3659 187.984 21.7659 190.324 23.1505L326.021 103.678C328.348 105.066 330.031 107.319 330.703 109.944C331.375 112.569 330.981 115.354 329.607 117.69L326.956 122.187Z" fill="#CCCCCC"/>
<path d="M193.582 36.741C195.046 36.741 196.233 35.5541 196.233 34.0898C196.233 32.6256 195.046 31.4386 193.582 31.4386C192.118 31.4386 190.931 32.6256 190.931 34.0898C190.931 35.5541 192.118 36.741 193.582 36.741Z" fill="white"/>
<path d="M202.241 41.8762C203.706 41.8762 204.893 40.6892 204.893 39.225C204.893 37.7608 203.706 36.5738 202.241 36.5738C200.777 36.5738 199.59 37.7608 199.59 39.225C199.59 40.6892 200.777 41.8762 202.241 41.8762Z" fill="white"/>
<path d="M210.907 47.0176C212.371 47.0176 213.558 45.8306 213.558 44.3664C213.558 42.9021 212.371 41.7152 210.907 41.7152C209.443 41.7152 208.256 42.9021 208.256 44.3664C208.256 45.8306 209.443 47.0176 210.907 47.0176Z" fill="white"/>
<path d="M292.837 137.716L292.663 138.009L294.411 139.045L294.585 138.752L292.837 137.716Z" fill="#E6E6E6"/>
<path d="M289.14 135.914L285.61 133.82L285.783 133.529L289.307 135.622L289.14 135.914ZM282.085 131.726L278.561 129.639L278.734 129.347L282.258 131.435L282.085 131.726ZM275.024 127.545L271.499 125.451L271.666 125.16L275.197 127.254L275.024 127.545ZM267.968 123.364L264.444 121.27L264.617 120.979L268.142 123.073L267.968 123.364ZM260.919 119.176L257.407 117.07L257.574 116.779L261.105 118.867L260.919 119.176ZM253.864 114.995L250.34 112.901L250.513 112.61L254.038 114.704L253.864 114.995ZM246.815 110.808L243.291 108.72L243.464 108.429L246.989 110.516L246.815 110.808ZM239.766 106.626L236.235 104.533L236.409 104.242L239.933 106.335L239.766 106.626ZM232.711 102.445L229.186 100.345L229.36 100.054L232.884 102.148L232.711 102.445ZM225.662 98.2577L222.131 96.1702L222.305 95.8791L225.835 97.9666L225.662 98.2577ZM218.607 94.0765L215.082 91.9828L215.256 91.6917L218.78 93.7854L218.607 94.0765ZM211.558 89.8891L208.033 87.8016L208.2 87.5104L211.731 89.598L211.558 89.8891ZM204.502 85.7079L200.99 83.6203L201.164 83.3292L204.688 85.4229L204.502 85.7079ZM197.453 81.5266L193.929 79.4329L194.102 79.1418L197.627 81.2355L197.453 81.5266ZM190.398 77.3392L186.874 75.2455L187.066 74.9482L190.59 77.0357L190.398 77.3392ZM183.349 73.158L179.825 71.0643L179.998 70.7731L183.523 72.8669L183.349 73.158Z" fill="#E6E6E6"/>
<path d="M174.744 67.6504L174.57 67.9434L176.317 68.9801L176.491 68.6871L174.744 67.6504Z" fill="#E6E6E6"/>
<path d="M219.489 130.768L219.315 131.061L221.063 132.098L221.236 131.805L219.489 130.768Z" fill="#E6E6E6"/>
<path d="M215.838 129.001L212.363 126.938L212.536 126.647L216.011 128.709L215.838 129.001ZM208.888 124.875L205.413 122.819L205.586 122.527L209.061 124.584L208.888 124.875ZM201.932 120.787L198.457 118.724L198.63 118.433L202.105 120.496L201.932 120.787ZM194.994 116.637L191.519 114.592L191.693 114.301L195.168 116.364L194.994 116.637ZM188.051 112.511L184.588 110.455L184.761 110.163L188.23 112.22L188.051 112.511ZM181.101 108.398L177.626 106.335L177.799 106.044L181.274 108.107L181.101 108.398ZM174.157 104.273L170.682 102.204L170.855 101.912L174.324 103.975L174.157 104.273ZM167.207 100.153L163.732 98.0905L163.905 97.7993L167.38 99.8621L167.207 100.153Z" fill="#E6E6E6"/>
<path d="M158.687 94.6987L158.513 94.9918L160.26 96.0285L160.434 95.7354L158.687 94.6987Z" fill="#E6E6E6"/>
<path d="M177.859 123.373L177.686 123.666L179.433 124.703L179.607 124.41L177.859 123.373Z" fill="#E6E6E6"/>
<path d="M174.107 121.549L170.533 119.424L170.707 119.139L174.281 121.258L174.107 121.549ZM166.959 117.306L163.385 115.212L163.559 114.921L167.133 117.039L166.959 117.306ZM159.811 113.069L156.237 110.944L156.404 110.653L159.978 112.777L159.811 113.069Z" fill="#E6E6E6"/>
<path d="M151.094 107.5L150.92 107.793L152.668 108.83L152.841 108.537L151.094 107.5Z" fill="#E6E6E6"/>
<path d="M164.895 145.217L164.721 145.51L166.469 146.546L166.643 146.253L164.895 145.217Z" fill="#E6E6E6"/>
<path d="M161.149 143.39L157.575 141.272L157.748 140.981L161.322 143.099L161.149 143.39ZM154.001 139.147L150.433 137.029L150.6 136.737L154.174 138.856L154.001 139.147ZM146.859 134.91L143.285 132.785L143.458 132.5L147.026 134.619L146.859 134.91Z" fill="#E6E6E6"/>
<path d="M138.136 129.343L137.962 129.636L139.71 130.673L139.883 130.38L138.136 129.343Z" fill="#E6E6E6"/>
<path d="M147.67 135.697L248.271 195.38C250.705 196.825 253.614 197.245 256.358 196.548C259.102 195.851 261.457 194.094 262.908 191.663L292.306 142.108L292.101 141.996L225.408 159.006L220.13 138.323C220.035 137.94 219.851 137.584 219.594 137.284C219.337 136.984 219.014 136.748 218.65 136.595C218.094 136.371 217.481 136.336 216.903 136.496L181.955 145.416L178.09 130.289C177.925 129.632 177.506 129.068 176.926 128.72C176.345 128.372 175.65 128.268 174.993 128.431C174.739 128.505 151.994 134.532 147.67 135.697Z" fill="#4285F4"/>
<path d="M147.07 135.728L146.989 135.399L174.956 128.263C175.694 128.077 176.476 128.191 177.131 128.58C177.786 128.969 178.26 129.601 178.449 130.339L182.234 145.162L216.99 136.273C217.728 136.085 218.511 136.198 219.166 136.587C219.821 136.976 220.295 137.61 220.483 138.348L225.693 158.734L292.727 141.619L292.813 141.947L225.47 159.192L220.18 138.472C220.098 138.148 219.952 137.843 219.752 137.576C219.551 137.308 219.3 137.083 219.012 136.913C218.724 136.744 218.405 136.632 218.074 136.586C217.743 136.54 217.406 136.56 217.083 136.645L181.993 145.564L178.121 130.407C178.042 130.08 177.899 129.772 177.7 129.501C177.501 129.23 177.25 129.002 176.962 128.829C176.674 128.656 176.354 128.542 176.021 128.494C175.688 128.446 175.349 128.464 175.024 128.548L147.07 135.728Z" fill="#3F3D56"/>
<path d="M179.515 126.925C180.822 126.925 181.881 125.866 181.881 124.559C181.881 123.252 180.822 122.193 179.515 122.193C178.208 122.193 177.149 123.252 177.149 124.559C177.149 125.866 178.208 126.925 179.515 126.925Z" fill="#3F3D56"/>
<path d="M221.14 134.315C222.447 134.315 223.506 133.256 223.506 131.949C223.506 130.642 222.447 129.583 221.14 129.583C219.833 129.583 218.774 130.642 218.774 131.949C218.774 133.256 219.833 134.315 221.14 134.315Z" fill="#3F3D56"/>
<path d="M293.662 140.02C294.969 140.02 296.028 138.961 296.028 137.654C296.028 136.347 294.969 135.288 293.662 135.288C292.355 135.288 291.296 136.347 291.296 137.654C291.296 138.961 292.355 140.02 293.662 140.02Z" fill="#3F3D56"/>
<path d="M108.015 140.46C106.728 139.425 105.904 137.921 105.724 136.279C105.544 134.637 106.023 132.991 107.055 131.701C107.286 131.416 107.541 131.151 107.817 130.908L99.5288 110.386L110.809 112.66L116.947 131.807C117.893 133.024 118.357 134.548 118.25 136.086C118.143 137.625 117.471 139.069 116.365 140.143C115.259 141.218 113.795 141.846 112.254 141.908C110.713 141.97 109.204 141.461 108.015 140.479V140.46Z" fill="#FFB8B8"/>
<path d="M107.879 131.565C107.267 131.609 106.659 131.451 106.146 131.116C105.633 130.78 105.245 130.285 105.042 129.707L91.625 91.4811L88.7633 53.3359C88.6597 51.2666 89.3689 49.2389 90.7395 47.6852C92.1101 46.1316 94.0336 45.1751 96.0995 45.02C98.1654 44.8648 100.21 45.5231 101.798 46.8546C103.385 48.186 104.389 50.0851 104.596 52.1465C104.596 52.2209 104.596 52.3014 104.596 52.3757L106.206 87.2069L116.736 125.749C116.92 126.424 116.843 127.145 116.521 127.767C116.198 128.388 115.654 128.866 114.996 129.106L108.61 131.41C108.374 131.496 108.128 131.548 107.879 131.565Z" fill="#3F3D56"/>
<path d="M356.614 97.6941C356.363 97.5831 356.13 97.4371 355.92 97.2604L343.445 86.7299C343.161 86.4904 342.926 86.1972 342.755 85.8671C342.584 85.5369 342.48 85.1764 342.448 84.8059C342.417 84.4355 342.458 84.0624 342.571 83.7081C342.684 83.3537 342.865 83.025 343.104 82.7407C343.155 82.68 343.209 82.6221 343.265 82.5673L354.582 71.2315C355.058 70.7514 355.691 70.4579 356.365 70.4045C357.039 70.3511 357.71 70.5412 358.255 70.9404L366.822 77.1348C367.356 77.5233 367.738 78.0864 367.901 78.7267C368.064 79.3671 367.998 80.0442 367.714 80.6408L360.312 96.3003C359.998 96.9679 359.436 97.4868 358.746 97.747C358.055 98.0072 357.291 97.9882 356.614 97.6941Z" fill="#4285F4"/>
<path d="M405.276 246.335L397.824 248.361L386.458 220.585L397.453 217.593L405.276 246.335Z" fill="#FFB8B8"/>
<path d="M391.772 247.723L406.292 243.771L408.769 252.821L385.355 259.189L385.312 259.04C384.994 257.871 384.909 256.652 385.062 255.45C385.216 254.249 385.604 253.09 386.206 252.039C386.808 250.988 387.611 250.065 388.569 249.325C389.527 248.584 390.622 248.04 391.791 247.723H391.772Z" fill="#2F2E41"/>
<path d="M341.574 252.022H333.856L330.177 222.233H341.574V252.022Z" fill="#FFB8B8"/>
<path d="M328.182 249.816H343.228V259.189H318.959V259.034C318.961 256.589 319.933 254.244 321.663 252.516C323.392 250.787 325.737 249.816 328.182 249.816Z" fill="#2F2E41"/>
<path d="M353.207 55.3553C361.749 55.3553 368.674 48.4302 368.674 39.8878C368.674 31.3454 361.749 24.4204 353.207 24.4204C344.665 24.4204 337.74 31.3454 337.74 39.8878C337.74 48.4302 344.665 55.3553 353.207 55.3553Z" fill="#FFB8B8"/>
<path d="M341.104 230.781H330.573C329.853 230.779 329.159 230.504 328.634 230.011C328.108 229.517 327.79 228.843 327.743 228.124C324.596 178.135 326.436 142.275 333.534 115.28C333.565 115.162 333.602 115.047 333.646 114.933L334.209 113.521C334.417 112.992 334.779 112.539 335.249 112.221C335.719 111.903 336.274 111.734 336.842 111.737H358.522C358.931 111.736 359.336 111.824 359.709 111.995C360.081 112.166 360.411 112.416 360.677 112.728L363.626 116.166L363.787 116.37C377.08 134.904 388.991 171.141 402.81 219.848C403.015 220.555 402.935 221.314 402.587 221.963C402.24 222.612 401.654 223.1 400.952 223.323L389.611 226.953C388.959 227.156 388.257 227.12 387.63 226.85C387.003 226.581 386.493 226.097 386.191 225.485L356.725 164.445C356.519 164.019 356.182 163.671 355.763 163.452C355.343 163.233 354.865 163.154 354.398 163.228C353.93 163.301 353.499 163.523 353.168 163.861C352.836 164.198 352.622 164.633 352.557 165.102L343.885 228.334C343.79 229.007 343.458 229.624 342.947 230.073C342.437 230.522 341.783 230.773 341.104 230.781Z" fill="#2F2E41"/>
<path d="M362.43 116.414H362.362L336.006 115.584C335.33 115.565 334.684 115.305 334.184 114.85C333.684 114.395 333.363 113.777 333.28 113.106C329.935 86.0547 339.103 78.8073 343.191 76.949C343.529 76.7921 343.821 76.5505 344.038 76.2477C344.255 75.9449 344.39 75.5911 344.43 75.2207L344.789 72.3899C344.848 71.8878 345.041 71.4108 345.347 71.0085C351.77 62.6956 360.535 60.032 365.168 59.1834C365.534 59.1173 365.91 59.124 366.273 59.2032C366.637 59.2823 366.981 59.4323 367.287 59.6446C367.592 59.8568 367.853 60.1272 368.054 60.4403C368.254 60.7534 368.392 61.103 368.457 61.4691V61.6054L368.99 65.6813C369.046 66.0696 369.202 66.4367 369.442 66.7468C382.828 84.2522 367.912 110.108 364.784 115.1C364.532 115.498 364.185 115.826 363.774 116.055C363.363 116.284 362.901 116.408 362.43 116.414Z" fill="#4285F4"/>
<path d="M370.229 30.2679C369.083 26.7845 368.235 23.2098 367.695 19.5825C367.522 17.4702 368.067 15.1969 369.603 13.7412C372.484 11.0095 377.371 12.3103 380.387 14.8934C384.723 18.61 386.904 24.3522 387.728 30.0263C388.551 35.7004 388.186 41.4984 388.378 47.1972C388.57 52.8961 389.394 58.8117 392.311 63.7487C395.229 68.6856 400.655 72.4642 406.366 72.043C408.674 71.9166 410.865 70.9876 412.56 69.4166C413.393 68.6256 414.024 67.6463 414.401 66.5609C414.777 65.4755 414.887 64.3156 414.722 63.1788C417.646 68.4069 416.165 75.4995 411.805 79.6126C407.444 83.7257 400.748 84.8902 395.018 83.131C389.288 81.3718 384.575 76.9737 381.756 71.6837C378.938 66.3937 377.91 60.286 378.04 54.296C378.151 49.6936 378.938 45.0601 378.157 40.5258C377.377 35.9915 374.559 31.3891 370.086 30.3484L370.229 30.2679Z" fill="#2F2E41"/>
<path d="M350.129 36.2331C349.367 38.779 346.449 40.3524 343.823 39.9497C342.517 39.6781 341.309 39.0578 340.328 38.1547C339.346 37.2516 338.627 36.0995 338.248 34.8208C337.522 32.2274 337.817 29.4542 339.072 27.0716C340.467 24.1901 342.949 21.9801 345.972 20.9267C347.479 20.4276 349.083 20.2976 350.651 20.5477C352.218 20.7978 353.702 21.4206 354.979 22.3638C355.113 21.7917 355.399 21.266 355.805 20.8412C356.211 20.4164 356.724 20.108 357.289 19.948C358.429 19.639 359.633 19.6562 360.764 19.9976C364.02 20.9262 366.842 22.9781 368.73 25.7893C370.588 28.5902 371.818 31.7599 372.335 35.0809C373.227 40.0365 372.899 45.5185 370.099 49.7431C367.299 53.9677 361.557 56.4393 356.911 54.4261C356.62 52.9456 357.308 51.4528 358.101 50.1643C358.893 48.8759 359.835 47.6308 360.145 46.1504C360.454 44.6699 359.866 42.8611 358.435 42.378C357.196 41.9691 355.908 42.6381 354.626 42.7187C353.895 42.7657 353.164 42.6194 352.508 42.2945C351.852 41.9695 351.293 41.4774 350.887 40.8676C350.481 40.2578 350.243 39.5519 350.197 38.821C350.151 38.09 350.298 37.3598 350.624 36.7039L350.129 36.2331Z" fill="#2F2E41"/>
<path d="M310.95 99.9612C311.205 100.199 311.441 100.456 311.656 100.729L342.801 98.3073L346.084 91.4625L357.054 95.0738L351.12 111.297L311.892 108.664C311.136 109.731 310.082 110.55 308.861 111.017C307.641 111.484 306.309 111.58 305.035 111.29C303.76 111.001 302.6 110.34 301.701 109.392C300.802 108.443 300.204 107.249 299.984 105.961C299.763 104.673 299.929 103.348 300.461 102.154C300.993 100.961 301.867 99.9514 302.972 99.2542C304.078 98.557 305.365 98.2033 306.671 98.2376C307.978 98.2719 309.245 98.6928 310.312 99.4471C310.535 99.6081 310.746 99.7816 310.932 99.9612H310.95Z" fill="#FFB8B8"/>
<path d="M356.862 105.877C356.6 105.802 356.35 105.692 356.118 105.549L342.324 96.833C341.69 96.4306 341.241 95.7932 341.076 95.0605C340.911 94.3278 341.044 93.5596 341.444 92.9244L341.574 92.7323L351.244 79.9037C351.649 79.3626 352.236 78.9854 352.897 78.841C353.557 78.6966 354.248 78.7945 354.842 79.117L364.171 84.1097C364.754 84.4214 365.209 84.9268 365.459 85.5386C365.709 86.1504 365.738 86.8303 365.54 87.4609L360.337 103.981C360.111 104.681 359.623 105.266 358.975 105.612C358.326 105.959 357.569 106.04 356.862 105.84V105.877Z" fill="#4285F4"/>
</svg>
