<svg width="424" height="277" viewBox="0 0 424 277" fill="none" xmlns="http://www.w3.org/2000/svg">
<g clip-path="url(#clip0_204_26)">
<path d="M98.6447 242.188L86.1921 237.831C84.8216 231.024 85.1297 223.985 87.0896 217.324C91.8144 228.721 106.548 231.912 114.75 241.136C117.273 244.035 119.115 247.465 120.138 251.173C121.161 254.881 121.339 258.773 120.66 262.559L123.042 271.613C116.884 270.907 110.952 268.873 105.654 265.649C100.356 262.426 95.8172 258.09 92.3506 252.94C90.4372 250.026 88.8954 246.884 87.7613 243.586C93.1409 243.207 98.6447 242.188 98.6447 242.188Z" fill="#F2F2F2"/>
<path d="M243.233 161.14H178.029C177.572 161.14 177.12 161.231 176.698 161.406C176.276 161.582 175.893 161.839 175.57 162.163C175.248 162.488 174.992 162.873 174.818 163.296C174.645 163.72 174.556 164.174 174.557 164.632V267.884H246.716V164.632C246.717 164.173 246.628 163.719 246.453 163.296C246.279 162.872 246.023 162.487 245.7 162.163C245.377 161.839 244.993 161.582 244.571 161.406C244.149 161.23 243.696 161.14 243.239 161.14H243.233ZM210.854 219.809C208.815 219.798 206.863 218.982 205.421 217.536C203.979 216.091 203.165 214.134 203.154 212.09V200.179C203.154 198.132 203.966 196.169 205.41 194.721C206.854 193.274 208.812 192.461 210.854 192.461C212.896 192.461 214.855 193.274 216.299 194.721C217.743 196.169 218.554 198.132 218.554 200.179V212.09C218.542 214.134 217.727 216.09 216.285 217.535C214.844 218.98 212.893 219.797 210.854 219.809Z" fill="#E6E6E6"/>
<path d="M174.332 264.579V274.544C174.333 275.06 174.538 275.554 174.902 275.919C175.266 276.284 175.759 276.489 176.273 276.491H244.989C245.502 276.486 245.994 276.28 246.357 275.916C246.72 275.552 246.926 275.059 246.931 274.544V264.579H174.332Z" fill="#CCCCCC"/>
<path d="M351.209 0H72.4862C70.0908 0 67.7935 0.953876 66.0997 2.65179C64.4059 4.3497 63.4544 6.65256 63.4544 9.05377V197.593C63.4544 199.994 64.4059 202.297 66.0997 203.995C67.7935 205.693 70.0908 206.647 72.4862 206.647H351.209C353.604 206.647 355.902 205.693 357.595 203.995C359.289 202.297 360.241 199.994 360.241 197.593V9.05377C360.241 6.65256 359.289 4.3497 357.595 2.65179C355.902 0.953876 353.604 0 351.209 0V0Z" fill="#E6E6E6"/>
<path d="M348.855 6.53564H74.8119C73.5328 6.5446 72.3089 7.05989 71.407 7.96926C70.5052 8.87864 69.9983 10.1084 69.9968 11.3907V195.256C69.9983 196.54 70.5079 197.771 71.4137 198.679C72.3196 199.587 73.5478 200.098 74.8289 200.1H348.855C350.137 200.1 351.366 199.589 352.272 198.681C353.178 197.772 353.687 196.54 353.687 195.256V11.3907C353.686 10.1055 353.176 8.87316 352.271 7.96331C351.365 7.05345 350.137 6.54013 348.855 6.53564Z" fill="white"/>
<path d="M355.358 10.7004V170.737C334.269 176.909 311.747 176.023 291.205 168.213C270.663 160.402 253.22 146.093 241.519 127.453C229.818 108.814 224.496 86.8588 226.36 64.915C228.224 42.9711 237.171 22.234 251.847 5.84534H350.549C351.828 5.85282 353.052 6.36781 353.953 7.27767C354.854 8.18753 355.36 9.41818 355.358 10.7004Z" fill="#6A2394"/>
<path d="M335.104 31.875H78.6617C78.3908 31.875 78.1309 31.767 77.9393 31.575C77.7477 31.3829 77.64 31.1224 77.64 30.8507C77.64 30.5791 77.7477 30.3186 77.9393 30.1265C78.1309 29.9344 78.3908 29.8265 78.6617 29.8265H335.104C335.375 29.8265 335.635 29.9344 335.827 30.1265C336.018 30.3186 336.126 30.5791 336.126 30.8507C336.126 31.1224 336.018 31.3829 335.827 31.575C335.635 31.767 335.375 31.875 335.104 31.875Z" fill="#CACACA"/>
<path d="M96.1158 24.6092C99.4173 24.6092 102.094 21.868 102.094 18.4866C102.094 15.1052 99.4173 12.364 96.1158 12.364C92.8142 12.364 90.1378 15.1052 90.1378 18.4866C90.1378 21.868 92.8142 24.6092 96.1158 24.6092Z" fill="#3F3D56"/>
<path d="M116.765 24.6092C120.066 24.6092 122.743 21.868 122.743 18.4866C122.743 15.1052 120.066 12.364 116.765 12.364C113.463 12.364 110.787 15.1052 110.787 18.4866C110.787 21.868 113.463 24.6092 116.765 24.6092Z" fill="#3F3D56"/>
<path d="M137.408 24.6092C140.71 24.6092 143.386 21.868 143.386 18.4866C143.386 15.1052 140.71 12.364 137.408 12.364C134.107 12.364 131.43 15.1052 131.43 18.4866C131.43 21.868 134.107 24.6092 137.408 24.6092Z" fill="#3F3D56"/>
<path d="M322.674 13.8806H307.997C307.739 13.9297 307.506 14.0677 307.338 14.2706C307.17 14.4736 307.079 14.729 307.079 14.9925C307.079 15.2561 307.17 15.5114 307.338 15.7144C307.506 15.9174 307.739 16.0554 307.997 16.1044H322.674C322.932 16.0554 323.165 15.9174 323.333 15.7144C323.501 15.5114 323.593 15.2561 323.593 14.9925C323.593 14.729 323.501 14.4736 323.333 14.2706C323.165 14.0677 322.932 13.9297 322.674 13.8806Z" fill="#3F3D56"/>
<path d="M322.674 18.0566H307.997C307.739 18.1057 307.506 18.2437 307.338 18.4467C307.17 18.6497 307.079 18.905 307.079 19.1686C307.079 19.4321 307.17 19.6874 307.338 19.8904C307.506 20.0934 307.739 20.2314 307.997 20.2805H322.674C322.932 20.2314 323.165 20.0934 323.333 19.8904C323.501 19.6874 323.593 19.4321 323.593 19.1686C323.593 18.905 323.501 18.6497 323.333 18.4467C323.165 18.2437 322.932 18.1057 322.674 18.0566Z" fill="#3F3D56"/>
<path d="M322.674 22.2271H307.997C307.736 22.273 307.498 22.41 307.328 22.6139C307.157 22.8178 307.063 23.0755 307.063 23.3418C307.063 23.6081 307.157 23.8658 307.328 24.0697C307.498 24.2736 307.736 24.4106 307.997 24.4565H322.674C322.936 24.4106 323.173 24.2736 323.344 24.0697C323.514 23.8658 323.608 23.6081 323.608 23.3418C323.608 23.0755 323.514 22.8178 323.344 22.6139C323.173 22.41 322.936 22.273 322.674 22.2271Z" fill="#3F3D56"/>
<path d="M143.381 143.887C144.065 143.14 144.425 142.15 144.381 141.137C144.338 140.124 143.895 139.169 143.149 138.483C142.985 138.331 142.807 138.195 142.618 138.076L145.746 124.846L139.124 127.268L137.171 139.456C136.722 140.283 136.591 141.245 136.802 142.162C137.013 143.078 137.552 143.886 138.316 144.431C139.081 144.977 140.018 145.223 140.951 145.122C141.885 145.022 142.749 144.583 143.381 143.887Z" fill="#9E616A"/>
<path d="M159.271 88.4609L156.618 95.3078C156.618 95.3078 157.747 102.155 155.856 103.677C153.965 105.199 154.727 105.199 154.727 106.342C154.662 107.158 154.428 107.952 154.039 108.672C153.65 109.392 153.115 110.023 152.469 110.524C150.95 111.656 144.12 134.856 144.12 134.856H137.29C137.51 133.088 137.51 131.299 137.29 129.531C136.911 126.872 138.419 120.025 139.186 118.882C139.954 117.739 139.186 116.216 139.186 113.936C139.186 111.656 140.705 110.513 140.705 106.71C140.705 102.907 145.26 73.2336 144.882 69.8102C144.504 66.3867 148.647 63.3763 148.647 63.3763H152.441L159.271 88.4609Z" fill="#E6E6E6"/>
<path d="M183.917 266.826H189.172L191.678 246.495H183.917V266.826Z" fill="#9E616A"/>
<path d="M182.201 263.216L190.6 262.712V266.322L198.588 271.851C198.976 272.127 199.267 272.52 199.419 272.972C199.571 273.424 199.577 273.913 199.436 274.368C199.294 274.824 199.012 275.223 198.631 275.509C198.25 275.795 197.788 275.952 197.312 275.959H187.309L185.582 272.388L184.91 275.959H181.139L182.201 263.216Z" fill="#2F2E41"/>
<path d="M118.012 262.35L122.895 264.296L132.723 246.336L125.514 243.461L118.012 262.35Z" fill="#9E616A"/>
<path d="M117.747 258.361L125.74 261.003L124.408 264.359L129.788 272.456C130.046 272.857 130.171 273.329 130.146 273.805C130.12 274.281 129.946 274.737 129.647 275.108C129.347 275.479 128.939 275.745 128.48 275.87C128.021 275.994 127.534 275.97 127.089 275.8L117.792 272.088L117.51 268.127L115.568 271.189L112.063 269.791L117.747 258.361Z" fill="#2F2E41"/>
<path d="M173.299 206.33L164.549 165.31L150.854 210.885L129.178 254.1L129.059 254.332L122.195 250.625C121.224 233.084 123.527 216.634 131.944 202.256L135.929 162.787C136.053 161.44 139.028 129.78 148.444 124.167L151.204 117.863L178.633 111.073L178.729 111.186C181.368 114.155 183.11 117.815 183.753 121.739L191.949 171.535L189.753 206.256L192.762 257.467H181.884C175.156 244.791 172.294 227.746 173.299 206.33Z" fill="#2F2E41"/>
<path d="M199.265 69.7253L215.889 63.8913C216.406 63.7104 216.973 63.7427 217.466 63.9809C217.958 64.2192 218.337 64.6439 218.517 65.1616C218.697 65.6794 218.665 66.2478 218.428 66.7418C218.19 67.2358 217.766 67.6149 217.25 67.7957L200.626 73.6241C200.112 73.7964 199.551 73.759 199.065 73.5201C198.579 73.2811 198.206 72.8599 198.027 72.3474C197.848 71.8349 197.878 71.2724 198.109 70.7817C198.341 70.291 198.756 69.9115 199.265 69.7253Z" fill="#2F2E41"/>
<path d="M217.12 67.2638C217.442 68.3955 218.847 68.9614 219.982 68.6388C221.107 68.2466 222.038 67.4363 222.584 66.3754C223.194 65.3738 223.612 64.2591 224.238 63.2688C225.438 61.3802 227.319 60.0283 229.488 59.4945C227.556 59.2405 225.594 59.6133 223.888 60.5584C223.287 60.971 222.624 61.2843 221.924 61.4864C221.171 61.527 220.417 61.5157 219.666 61.4524C218.997 61.4777 218.35 61.6971 217.803 62.0841C217.256 62.471 216.834 63.0089 216.586 63.6322C216.338 64.2556 216.277 64.9375 216.409 65.5953C216.541 66.2531 216.86 66.8583 217.329 67.3374" fill="#6A2394"/>
<path d="M214.941 69.0349C214.879 69.5334 214.719 70.0148 214.471 70.4513C214.224 70.8879 213.892 71.2712 213.496 71.5792C213.1 71.8872 212.648 72.1139 212.164 72.2464C211.681 72.3788 211.176 72.4143 210.679 72.3509C210.457 72.3233 210.238 72.276 210.024 72.2094L201.963 83.1815L199.536 76.5496L207.563 67.1676C207.9 66.2922 208.546 65.5708 209.377 65.1396C210.209 64.7084 211.169 64.5971 212.077 64.8269C212.985 65.0566 213.777 65.6114 214.305 66.3867C214.832 67.1619 215.059 68.1039 214.941 69.0349Z" fill="#9E616A"/>
<path d="M143.115 131.217C142.381 131.217 141.958 131.07 141.794 130.759C141.557 130.301 141.975 129.707 142.449 129.016C142.788 128.53 143.759 127.573 143.279 127.517C136.003 126.623 139.497 81.682 142.652 75.7122C143.29 74.5012 142.613 72.6509 143.335 70.6194C145.305 65.0231 147.998 63.3029 153.355 59.8681L154.716 58.9967C155.325 58.6062 155.28 57.2991 155.252 55.924C155.212 54.3962 155.173 52.8118 155.924 51.8216L155.969 51.7537H156.048C157.86 51.3349 163.951 50.554 167.552 51.7537H167.603L167.642 51.7933C168.495 52.6477 168.574 54.3113 168.653 55.9184C168.715 57.2425 168.771 58.4874 169.257 59.0306C172.96 63.1671 177.16 63.0878 177.205 63.0878H177.414V63.2972C180.01 68.2485 177.978 86.6559 179.779 98.092C181.613 109.703 197.278 119.595 183.866 121.349C183.892 121.394 183.906 121.446 183.906 121.499C183.906 121.551 183.892 121.603 183.866 121.649C183.087 123.154 145.904 131.217 143.115 131.217Z" fill="#E6E6E6"/>
<path d="M185.576 97.3902L178.334 93.3047C165.706 84.5282 162.596 77.5568 162.206 73.2563C161.789 68.6671 164.227 66.1547 164.334 66.0472L164.391 66.0076L170.922 62.6634C172.474 61.8704 174.277 61.7271 175.934 62.265C177.591 62.8028 178.968 63.9779 179.762 65.5323C179.885 65.7739 179.993 66.0235 180.084 66.2792L186.124 82.9268L192.819 77.9812L195.675 76.8495L197.978 73.7599L204.312 70.0591L209.008 74.3031L203.098 86.1579L199.83 86.9954L199.135 88.7948L199.073 88.8344L185.576 97.3902Z" fill="#E6E6E6"/>
<path d="M172.616 44.1371C171.271 46.5991 169.131 48.5288 166.547 49.6086C163.963 50.6884 161.089 50.8539 158.398 50.0779C155.708 49.3018 153.361 47.6305 151.744 45.3391C150.128 43.0477 149.338 40.2728 149.505 37.4713C149.671 34.6698 150.785 32.0087 152.662 29.9261C154.538 27.8436 157.067 26.4637 159.83 26.0138C162.594 25.5639 165.428 26.0707 167.865 27.4507C170.303 28.8308 172.199 31.0019 173.242 33.6065C173.299 33.7479 173.349 33.8894 173.4 34.0365C173.989 35.6801 174.223 37.4301 174.088 39.1711C173.953 40.9122 173.451 42.6047 172.616 44.1371Z" fill="#9E616A"/>
<path d="M174.388 34.0138C173.857 32.5256 174.089 33.3009 173.553 31.8183C173.723 32.5489 173.67 33.314 173.4 34.0138H158.723V25.4637C163.025 23.7661 167.23 22.3005 169.77 25.4637C172.034 25.4637 174.205 26.3651 175.806 27.9696C177.406 29.5742 178.306 31.7504 178.306 34.0195L174.388 34.0138Z" fill="#2F2E41"/>
<path d="M169.183 57.797C169.183 57.6385 169.183 57.4744 169.133 57.316C168.933 56.1541 168.614 55.0162 168.179 53.9208C167.755 52.7269 167.326 51.5272 166.897 50.3333C167.45 52.5005 167.282 54.7896 166.417 56.852C163.939 54.9167 165.503 50.4917 162.263 50.4917C154.473 50.4917 146.457 44.1597 146.457 36.3452C146.457 28.5307 149.799 22.6967 157.589 22.6967C165.379 22.6967 171.701 26.2729 171.859 34.0818C162.263 36.3452 170.995 57.0048 169.183 57.797Z" fill="#2F2E41"/>
<path d="M147.428 35.1512C152.416 35.1512 156.46 31.0977 156.46 26.0975C156.46 21.0972 152.416 17.0437 147.428 17.0437C142.44 17.0437 138.396 21.0972 138.396 26.0975C138.396 31.0977 142.44 35.1512 147.428 35.1512Z" fill="#2F2E41"/>
<path d="M150.459 26.4483C148.913 28.2534 146.508 28.9551 144.306 29.8944C140.45 31.5889 137.065 34.2013 134.444 37.5047C131.824 40.8082 130.047 44.7029 129.268 48.8508C128.664 52.2459 128.743 55.726 127.789 59.0362C126.835 62.3465 124.493 65.5606 121.123 66.1321C118.865 66.5226 116.556 65.6398 114.411 64.7684L110.872 63.3368L114.558 54.051C112.584 56.9708 110.291 59.6603 107.722 62.0693L95.0263 56.9426C105.447 56.9822 103.669 46.842 106 36.6678C107.281 31.0771 118.193 27.2915 120.332 21.9554C121.487 19.0692 123.443 16.5753 125.968 14.769C128.494 12.9628 131.482 11.9199 134.581 11.7639C137.679 11.6079 140.757 12.3453 143.45 13.8888C146.143 15.4323 148.339 17.7172 149.776 20.4729C151.916 21.3273 151.978 24.6659 150.459 26.4483Z" fill="#2F2E41"/>
<path d="M423.334 276.825L0.671744 277C0.493586 277 0.322725 276.929 0.196749 276.803C0.0707728 276.676 0 276.505 0 276.327C0 276.148 0.0707728 275.977 0.196749 275.85C0.322725 275.724 0.493586 275.653 0.671744 275.653L423.334 275.478C423.512 275.478 423.683 275.549 423.809 275.675C423.935 275.801 424.006 275.973 424.006 276.151C424.006 276.33 423.935 276.501 423.809 276.627C423.683 276.754 423.512 276.825 423.334 276.825Z" fill="#CACACA"/>
</g>
<defs>
<clipPath id="clip0_204_26">
<rect width="424" height="277" fill="white"/>
</clipPath>
</defs>
</svg>
