<svg width="396" height="298" viewBox="0 0 396 298" fill="none" xmlns="http://www.w3.org/2000/svg">
<g clip-path="url(#clip0_204_3235)">
<path d="M146.62 79.3144C163.633 68.3165 187.067 72.5889 203.645 84.2438C209.055 88.1002 214.024 92.5417 218.462 97.4881C221.049 100.332 223.507 103.318 225.85 106.405C226.428 107.163 227.001 107.926 227.565 108.702C227.95 109.221 228.336 109.749 228.716 110.278C233.472 116.907 237.838 123.876 242.107 130.785C252.769 148.031 263.711 165.786 279.959 177.896C283.307 180.39 287.975 182.632 291.424 180.253C294.4 178.185 294.524 173.821 293.849 170.275C291.332 157.072 282.247 146.129 272.598 136.789C262.95 127.45 252.269 118.873 244.978 107.599C237.686 96.3258 234.357 81.2485 240.745 69.4283C246.248 59.2389 258.089 53.5286 269.636 53.2622C281.183 52.9957 292.423 57.4978 302.196 63.6767C311.968 69.8555 320.562 77.702 329.537 84.988C334.943 89.3936 342.496 93.767 348.389 90.0413C353.37 86.8899 353.755 79.319 350.788 74.2244C347.821 69.1297 342.533 65.9231 337.452 62.937L290.162 35.1253C285.324 32.2816 280.385 29.3507 276.813 25.0186C273.241 20.6865 271.259 14.595 273.231 9.33489C275.194 4.13454 280.596 0.854467 286.081 0.165375C291.566 -0.523717 297.087 1.00607 302.223 3.06875C321.443 10.8004 366.701 61.4118 378.762 70.0347C386.516 75.5933 394.656 82.6221 395.44 92.1407C396.417 103.984 384.654 113.815 372.841 114.963C361.028 116.112 349.591 110.971 339.039 105.537C328.487 100.102 317.723 94.1024 305.883 93.3444C294.042 92.5863 280.752 98.9352 277.946 110.48C275.506 120.531 281.711 130.9 289.796 137.331C296.124 142.385 303.553 145.715 310.721 149.487C312.716 150.53 314.683 151.609 316.609 152.762C321.53 155.715 326.131 159.175 330.335 163.085C334.75 167.191 338.711 171.763 342.148 176.72C344.896 180.662 347.293 184.839 349.311 189.202C349.617 189.866 349.922 190.542 350.228 191.228C350.534 191.914 350.798 192.577 351.022 193.217C354.314 201.904 355.607 211.643 351.388 219.751C347.169 227.86 338.089 232.614 329.032 233.294C323.784 233.61 318.524 232.915 313.537 231.245C309.869 230.051 306.319 228.522 302.929 226.679C287.218 218.231 274.781 204.835 263.422 191.067C252.063 177.299 241.373 162.796 227.891 151.099C214.408 139.403 197.514 130.569 179.684 130.702C161.854 130.836 143.456 141.728 138.411 158.845C131.028 146.101 126.029 131.575 126.699 116.861C127.368 102.146 134.265 87.2849 146.62 79.3144Z" fill="#3F3D56"/>
<path d="M215.798 126.926C216.879 126.926 217.756 126.048 217.756 124.964C217.756 123.881 216.879 123.003 215.798 123.003C214.716 123.003 213.84 123.881 213.84 124.964C213.84 126.048 214.716 126.926 215.798 126.926Z" fill="#F4C300"/>
<path d="M141.97 129.728C143.641 129.728 144.996 128.371 144.996 126.696C144.996 125.022 143.641 123.664 141.97 123.664C140.298 123.664 138.943 125.022 138.943 126.696C138.943 128.371 140.298 129.728 141.97 129.728Z" fill="#FF6584"/>
<path d="M360.886 102.886C361.504 102.886 362.005 102.384 362.005 101.765C362.005 101.146 361.504 100.644 360.886 100.644C360.268 100.644 359.767 101.146 359.767 101.765C359.767 102.384 360.268 102.886 360.886 102.886Z" fill="#FF6584"/>
<path d="M338.241 42.6318C338.859 42.6318 339.36 42.1299 339.36 41.5109C339.36 40.8918 338.859 40.39 338.241 40.39C337.623 40.39 337.122 40.8918 337.122 41.5109C337.122 42.1299 337.623 42.6318 338.241 42.6318Z" fill="#FF6584"/>
<path d="M309.446 152.096C309.763 151.178 310.191 150.302 310.721 149.487C312.716 150.53 314.683 151.609 316.609 152.762C321.53 155.715 326.13 159.175 330.335 163.085C328.652 165.418 326.186 167.063 323.389 167.72C320.593 168.376 317.653 167.999 315.112 166.657C312.571 165.316 310.598 163.101 309.557 160.419C308.516 157.737 308.477 154.768 309.446 152.06V152.096Z" fill="#FF6584"/>
<path d="M166.724 115.616C167.357 115.616 167.871 115.102 167.871 114.467C167.871 113.833 167.357 113.319 166.724 113.319C166.091 113.319 165.578 113.833 165.578 114.467C165.578 115.102 166.091 115.616 166.724 115.616Z" fill="#F0F0F0"/>
<path d="M306.947 30.784C307.58 30.784 308.093 30.2698 308.093 29.6355C308.093 29.0012 307.58 28.487 306.947 28.487C306.313 28.487 305.8 29.0012 305.8 29.6355C305.8 30.2698 306.313 30.784 306.947 30.784Z" fill="#F0F0F0"/>
<path d="M296.642 10.3639C297.275 10.3639 297.789 9.84975 297.789 9.21546C297.789 8.58117 297.275 8.06697 296.642 8.06697C296.009 8.06697 295.496 8.58117 295.496 9.21546C295.496 9.84975 296.009 10.3639 296.642 10.3639Z" fill="#F0F0F0"/>
<path d="M377.688 86.4902C378.322 86.4902 378.835 85.976 378.835 85.3417C378.835 84.7074 378.322 84.1932 377.688 84.1932C377.055 84.1932 376.542 84.7074 376.542 85.3417C376.542 85.976 377.055 86.4902 377.688 86.4902Z" fill="#F0F0F0"/>
<path d="M317.568 88.1394C318.201 88.1394 318.714 87.6252 318.714 86.9909C318.714 86.3566 318.201 85.8424 317.568 85.8424C316.934 85.8424 316.421 86.3566 316.421 86.9909C316.421 87.6252 316.934 88.1394 317.568 88.1394Z" fill="#F0F0F0"/>
<path d="M285.664 197.498C286.297 197.498 286.81 196.984 286.81 196.35C286.81 195.716 286.297 195.201 285.664 195.201C285.03 195.201 284.517 195.716 284.517 196.35C284.517 196.984 285.03 197.498 285.664 197.498Z" fill="#F0F0F0"/>
<path d="M249.697 89.9448C250.33 89.9448 250.843 89.4306 250.843 88.7963C250.843 88.1621 250.33 87.6479 249.697 87.6479C249.063 87.6479 248.55 88.1621 248.55 88.7963C248.55 89.4306 249.063 89.9448 249.697 89.9448Z" fill="#F0F0F0"/>
<path d="M248.092 68.266C248.725 68.266 249.238 67.7518 249.238 67.1175C249.238 66.4832 248.725 65.9691 248.092 65.9691C247.458 65.9691 246.945 66.4832 246.945 67.1175C246.945 67.7518 247.458 68.266 248.092 68.266Z" fill="#F0F0F0"/>
<path d="M310.831 201.215C312.721 195.744 315.88 190.8 320.049 186.79C320.599 186.263 321.164 185.753 321.745 185.26C327.509 180.381 334.633 177.399 342.148 176.72C344.896 180.662 347.293 184.839 349.311 189.202C349.617 189.866 349.922 190.542 350.228 191.228C350.534 191.914 350.798 192.577 351.022 193.217C354.314 201.904 355.607 211.643 351.388 219.751C347.169 227.86 338.089 232.614 329.032 233.294C323.784 233.61 318.524 232.915 313.537 231.245C310.837 226.445 309.249 221.097 308.891 215.598C308.845 214.905 308.822 214.22 308.818 213.517C308.781 209.331 309.462 205.17 310.831 201.215Z" fill="#F4C300"/>
<path d="M295.684 193.961C297.518 188.655 304.397 185.531 315.055 185.159C317.187 185.085 319.53 185.972 321.745 185.269C332.499 181.856 342.253 184.089 350.214 191.241C350.49 191.897 350.754 192.56 351.008 193.231L350.687 193.116C339.928 189.376 329.248 187.194 320.049 186.813C318.347 186.744 316.32 185.761 315.11 186.813C305.383 195.082 298.807 191.627 297.225 194.521C294.895 198.752 299.027 205.34 306.506 211.684C307.243 212.312 308.008 212.934 308.799 213.55C308.799 214.243 308.827 214.928 308.873 215.631C307.668 214.739 306.525 213.836 305.443 212.92C297.312 205.988 293.845 199.262 295.684 193.961Z" fill="#E4E4E4"/>
<path d="M335.98 231.544C336.613 231.544 337.126 231.03 337.126 230.395C337.126 229.761 336.613 229.247 335.98 229.247C335.347 229.247 334.833 229.761 334.833 230.395C334.833 231.03 335.347 231.544 335.98 231.544Z" fill="#F0F0F0"/>
<path d="M315.733 216.797C316.366 216.797 316.88 216.283 316.88 215.649C316.88 215.015 316.366 214.5 315.733 214.5C315.1 214.5 314.587 215.015 314.587 215.649C314.587 216.283 315.1 216.797 315.733 216.797Z" fill="#F0F0F0"/>
<path d="M331.224 219.912C337.371 219.912 342.354 214.92 342.354 208.763C342.354 202.605 337.371 197.613 331.224 197.613C325.077 197.613 320.094 202.605 320.094 208.763C320.094 214.92 325.077 219.912 331.224 219.912Z" fill="#F0F0F0"/>
<path opacity="0.3" d="M156.356 85.5025C158.956 85.6265 164.34 86.922 170.168 88.5942C175.997 90.2664 182.321 92.3107 188.558 94.3321L221.333 104.935L225.85 106.405C226.428 107.163 227.001 107.926 227.565 108.702C226.24 108.243 224.905 107.783 223.58 107.324C217.903 105.486 212.977 104.255 207.465 102.574C198.986 99.9918 190.039 96.6015 181.367 93.4317C172.695 90.2618 162.744 86.8807 156.356 85.5025Z" fill="#F0F0F0"/>
<path opacity="0.3" d="M350.595 63.0565L375.166 103.943L351.98 62.2663C351.961 62.1533 351.92 62.0452 351.859 61.9485C351.798 61.8519 351.717 61.7686 351.623 61.7038C351.529 61.6389 351.422 61.5939 351.31 61.5713C351.198 61.5486 351.083 61.549 350.971 61.5722C350.859 61.5954 350.753 61.6411 350.659 61.7065C350.565 61.7719 350.485 61.8556 350.424 61.9526C350.364 62.0496 350.323 62.1579 350.305 62.271C350.287 62.3842 350.292 62.4998 350.32 62.6109C350.36 62.7856 350.457 62.9422 350.595 63.0565Z" fill="#F0F0F0"/>
<path d="M338.612 183.652C339.245 183.652 339.759 183.138 339.759 182.504C339.759 181.869 339.245 181.355 338.612 181.355C337.979 181.355 337.466 181.869 337.466 182.504C337.466 183.138 337.979 183.652 338.612 183.652Z" fill="#F0F0F0"/>
<path d="M137.861 179.867C141.913 179.867 145.198 176.576 145.198 172.516C145.198 168.457 141.913 165.166 137.861 165.166C133.808 165.166 130.523 168.457 130.523 172.516C130.523 176.576 133.808 179.867 137.861 179.867Z" fill="#F4C300"/>
<path d="M133.513 168.478C132.849 168.296 132.228 167.984 131.684 167.561C131.14 167.138 130.685 166.612 130.344 166.012C130.003 165.413 129.784 164.752 129.698 164.068C129.613 163.384 129.662 162.689 129.845 162.024C129.924 161.725 130.032 161.434 130.166 161.156L116.867 148.049L126.341 146.028L137.503 158.781C138.63 159.412 139.487 160.435 139.911 161.657C140.335 162.878 140.297 164.213 139.804 165.409C139.311 166.604 138.398 167.577 137.236 168.143C136.075 168.709 134.747 168.828 133.504 168.478H133.513Z" fill="#A0616A"/>
<path d="M69.9898 66.5065L77.4006 71.3991L86.0725 73.4342C86.0725 73.4342 92.9513 122.658 96.3448 125.631C99.7384 128.603 96.8768 128.846 97.794 132.94C98.7111 137.033 100.83 145.343 100.83 145.343C80.2392 158.128 61.8499 159.69 46.1524 147.443C45.9038 146.636 45.9399 145.768 46.2547 144.985C46.5696 144.202 47.1439 143.551 47.8813 143.143C50.5319 141.489 44.7766 135.021 46.9641 133.725C49.1516 132.43 45.2948 122.741 45.2948 122.741L45.969 101.93L44.0658 98.7698L46.6935 78.2808L53.4623 75.2672L55.7827 68.3763L69.9898 66.5065Z" fill="#F4C300"/>
<path d="M73.1999 68.2339L85.4167 72.3087C85.4167 72.3087 98.9313 70.88 99.4816 91.0336C100.032 111.187 97.5097 122.001 97.5097 122.001C97.5097 122.001 125.621 178.636 95.1709 161.909L86.2559 126.793L77.0842 71.6655L73.1999 68.2339Z" fill="#2F2E41"/>
<path d="M85.4534 112.791L91.7911 111.913C91.7911 111.913 92.401 121.482 95.4322 122.939C98.4635 124.395 97.4409 124.629 97.7986 126.154C98.1562 127.679 95.1066 131.943 97.5051 133.004C99.9035 134.065 120.893 160.568 120.893 160.568L133.275 149.083C132.427 146.786 128.331 148.651 128.075 146.202C127.749 142.5 121.269 132.388 119.889 131.088C118.508 129.788 119.054 127.505 118.339 124.436C117.623 121.367 118.123 124.211 116.931 119.093C115.739 113.976 99.5916 87.8959 99.0459 83.1688C98.5002 78.4416 91.9103 75.6623 91.9103 75.6623L86.8016 76.8567L85.4534 112.791Z" fill="#2F2E41"/>
<path d="M31.95 282.987L39.4066 284.949L50.509 257.063L39.5029 254.165L31.95 282.987Z" fill="#A0616A"/>
<path d="M29.6432 290.709L52.5726 296.746L52.6506 296.452C52.9582 295.278 53.0319 294.054 52.8675 292.851C52.703 291.648 52.3036 290.49 51.6921 289.442C51.0805 288.393 50.2688 287.476 49.3034 286.742C48.3379 286.008 47.2376 285.472 46.0653 285.165L42.713 280.878L34.0595 282.004L32.0554 281.476L29.6432 290.709Z" fill="#2F2E41"/>
<path d="M70.1824 288.573H77.8913L81.56 258.777H70.1824V288.573Z" fill="#A0616A"/>
<path d="M69.9118 296.636H93.6254V296.337C93.6242 293.885 92.6512 291.533 90.9203 289.799C89.1893 288.065 86.842 287.091 84.394 287.089L80.0604 283.8L71.9801 287.094H69.9118V296.636Z" fill="#2F2E41"/>
<path d="M50.8942 145.986C49.0323 148.32 49.977 156.249 49.977 156.249C49.977 156.249 46.7165 181.911 48.1152 184.24C49.5139 186.569 47.198 188.439 45.7855 191.705C44.3731 194.972 42.9927 202.901 42.9927 202.901C35.0775 209.433 35.5407 239.289 35.5407 239.289L32.7479 265.884C33.6651 268.681 46.7165 269.15 48.5783 268.681C50.4402 268.213 68.6049 202.437 68.6049 202.437C68.6049 202.437 67.6877 265.884 67.6877 268.681C67.6877 271.479 80.2622 270.06 83.055 270.06C85.8478 270.06 103.545 155.762 103.545 155.762V149.253L101.22 145.986C101.22 145.986 52.779 143.657 50.8942 145.986Z" fill="#2F2E41"/>
<path d="M55.315 69.612L43.8778 76.9118L38.3473 81.5563L45.6847 128.415C45.6847 128.415 34.5364 171.005 52.1049 168.382C69.6734 165.759 68.6874 127.496 68.6874 127.496L55.315 69.612Z" fill="#2F2E41"/>
<path d="M70.618 136.174C70.0259 136.526 69.3701 136.758 68.6884 136.856C68.0066 136.955 67.3122 136.918 66.6448 136.747C65.9775 136.576 65.3502 136.275 64.7989 135.862C64.2476 135.448 63.7831 134.93 63.432 134.336C63.2724 134.071 63.1388 133.791 63.033 133.5L44.3914 133.959L49.5276 125.732L66.4403 126.563C67.6777 126.188 69.0096 126.281 70.1829 126.825C71.3563 127.368 72.2894 128.325 72.805 129.513C73.3205 130.7 73.3826 132.036 72.9794 133.267C72.5763 134.498 71.7359 135.537 70.618 136.187V136.174Z" fill="#A0616A"/>
<path d="M61.3179 63.2724C69.453 63.2724 76.0478 56.666 76.0478 48.5166C76.0478 40.3673 69.453 33.7609 61.3179 33.7609C53.1828 33.7609 46.5881 40.3673 46.5881 48.5166C46.5881 56.666 53.1828 63.2724 61.3179 63.2724Z" fill="#A0616A"/>
<path d="M44.6115 38.8234C46.2671 36.26 49.3717 34.5511 52.38 35.0334C52.659 33.1093 53.4599 31.2987 54.6954 29.7991C55.9309 28.2996 57.5536 27.1685 59.3866 26.5292C61.2197 25.89 63.1927 25.767 65.0907 26.1738C66.9887 26.5806 68.7388 27.5015 70.1503 28.8362C70.6126 28.5109 71.1507 28.31 71.7128 28.2529C72.2749 28.1958 72.8423 28.2843 73.3604 28.51C74.3953 28.983 75.2954 29.7079 75.979 30.6186C77.706 32.7755 78.8168 35.3612 79.1931 38.1004C79.5695 40.8396 79.1972 43.6297 78.116 46.1737C78.4828 44.8323 77.1438 43.5736 75.7909 43.275C74.4381 42.9764 73.0165 43.275 71.6636 43.0591C69.9027 42.811 68.3205 41.7865 66.5596 41.5568C65.0783 41.3639 63.5925 41.7452 62.1479 42.1265C60.7034 42.5078 59.1992 42.8983 57.7272 42.7237C56.2551 42.5491 54.3382 48.1767 54.3611 52.1413C54.3611 52.8947 54.2098 53.8594 53.4806 54.0202C52.5635 54.2177 52.0544 52.9682 51.1877 52.642C50.7918 52.5278 50.3672 52.5722 50.0034 52.766C49.6397 52.9597 49.3655 53.2876 49.2387 53.6803C49.1301 54.0792 49.1184 54.4984 49.2045 54.9028C49.2907 55.3072 49.4722 55.685 49.734 56.0048C50.2548 56.6377 50.8742 57.1822 51.5683 57.6173L51.2152 57.9113C50.6236 58.6922 49.3809 58.7244 48.5554 58.242C47.7445 57.6931 47.0876 56.9449 46.6477 56.0691C45.0747 53.4506 43.699 50.6666 43.1441 47.6622C42.5892 44.6577 42.9606 41.3869 44.6115 38.8234Z" fill="#2F2E41"/>
<path d="M49.8119 82.9345L43.1945 77.2518C43.1945 77.2518 35.4673 79.6682 34.1557 84.7445C23.8421 97.9567 18.2886 113.388 16.7936 130.712C30.2623 135.806 46.7486 137.602 64.4867 138.062L60.818 124.28L35.5957 119.686L49.8119 82.9345Z" fill="#2F2E41"/>
<path d="M26.3598 290.14L22.8241 284.448L22.1178 287.7C21.994 288.27 21.8702 288.849 21.7555 289.423C20.7512 288.564 19.6827 287.769 18.6371 287.007L9.00681 279.996L10.0111 285.831C10.6302 289.423 11.2768 293.089 12.8085 296.374C12.9782 296.746 13.1616 297.113 13.3588 297.472H28.2858C28.4087 297.14 28.4918 296.794 28.5335 296.443C28.5357 296.42 28.5357 296.397 28.5335 296.374C28.7719 294.146 27.5567 292.046 26.3598 290.14Z" fill="#F2F2F2"/>
<path d="M158.254 283.598L164.945 272.83L166.279 278.986C166.513 280.061 166.738 281.159 166.967 282.243C168.866 280.617 170.888 279.114 172.865 277.649C178.936 273.236 185.007 268.815 191.075 264.386L189.177 275.412C188.003 282.206 186.783 289.143 183.885 295.358C183.564 296.06 183.217 296.752 182.844 297.435H154.585C154.36 296.805 154.206 296.152 154.127 295.487C154.12 295.445 154.12 295.401 154.127 295.358C153.668 291.178 155.998 287.204 158.254 283.598Z" fill="#F2F2F2"/>
<path d="M152.99 297.688H122.264C120.867 297.686 119.526 297.131 118.536 296.143C117.546 295.154 116.987 293.814 116.981 292.414V184.456C116.981 183.76 117.118 183.071 117.384 182.429C117.65 181.786 118.04 181.202 118.532 180.711C119.023 180.219 119.607 179.829 120.249 179.564C120.891 179.299 121.579 179.163 122.273 179.164H152.999C154.397 179.17 155.736 179.732 156.721 180.726C157.707 181.719 158.258 183.064 158.254 184.465V292.423C158.246 293.818 157.688 295.154 156.702 296.14C155.717 297.125 154.382 297.682 152.99 297.688Z" fill="#F2F2F2"/>
<path d="M145.739 181.92H129.987C129.461 181.923 128.955 181.716 128.58 181.346C128.205 180.976 127.992 180.472 127.987 179.945V174.271C127.989 173.745 128.198 173.24 128.571 172.868C128.943 172.496 129.447 172.287 129.973 172.287H145.726C146.251 172.288 146.754 172.497 147.125 172.869C147.496 173.241 147.705 173.745 147.707 174.271V179.945C147.702 180.466 147.493 180.965 147.125 181.335C146.758 181.704 146.26 181.914 145.739 181.92Z" fill="#3F3D56"/>
<path d="M190.782 297.858L1.04114 298C0.896408 298 0.757602 297.942 0.65526 297.84C0.552918 297.737 0.495422 297.598 0.495422 297.453C0.495422 297.308 0.552918 297.169 0.65526 297.067C0.757602 296.964 0.896408 296.907 1.04114 296.907L190.782 296.769C190.927 296.769 191.065 296.826 191.168 296.929C191.27 297.031 191.328 297.171 191.328 297.316C191.328 297.46 191.27 297.6 191.168 297.702C191.065 297.805 190.927 297.862 190.782 297.862V297.858Z" fill="#CACACA"/>
</g>
<defs>
<clipPath id="clip0_204_3235">
<rect width="395" height="298" fill="white" transform="translate(0.5)"/>
</clipPath>
</defs>
</svg>
