<svg width="402" height="321" viewBox="0 0 402 321" fill="none" xmlns="http://www.w3.org/2000/svg">
<g clip-path="url(#clip0_204_2500)">
<path d="M71.7673 218.863C72.0671 219.415 72.4745 219.902 72.9656 220.294C73.4567 220.687 74.0215 220.977 74.6265 221.147C75.2316 221.318 75.8647 221.365 76.4883 221.287C77.112 221.208 77.7137 221.006 78.2578 220.691C78.8019 220.376 79.2774 219.956 79.6563 219.454C80.0351 218.952 80.3096 218.38 80.4635 217.771C80.6173 217.161 80.6475 216.527 80.5522 215.906C80.4569 215.284 80.238 214.688 79.9086 214.153C79.7775 213.932 79.6293 213.722 79.4654 213.524L83.4227 185.317L83.5412 184.472L84.3451 178.716L84.4636 177.886H84.0256L76.3583 178.237L74.2972 178.329L74.0396 183.58L72.5814 213.102C71.8185 213.831 71.3233 214.796 71.1756 215.841C71.028 216.886 71.2363 217.95 71.7673 218.863Z" fill="#FFB8B8"/>
<path d="M83.5155 184.714L73.7768 183.822C73.2758 183.774 72.8138 183.531 72.4901 183.145C72.1664 182.76 72.0067 182.263 72.0455 181.761L73.849 161.515C74.0648 159.599 75.0213 157.844 76.5142 156.624C78.0071 155.404 79.918 154.816 81.8384 154.986C83.7588 155.157 85.5365 156.071 86.7915 157.535C88.0466 158.998 88.6794 160.895 88.5548 162.819C88.5548 162.958 88.5239 163.097 88.5033 163.236L85.5869 183.096C85.5211 183.552 85.2931 183.968 84.9447 184.269C84.5963 184.57 84.1511 184.735 83.6906 184.734L83.5155 184.714Z" fill="black"/>
<path d="M76.1367 168.353C75.1512 165.565 75.1047 162.531 76.0043 159.714C76.9039 156.896 78.7003 154.451 81.1194 152.75C84.7933 150.235 89.8172 149.333 95.2276 155.775C106.048 168.657 108.882 182.828 108.882 182.828L86.7256 186.435C86.7256 186.435 79.1872 177.247 76.1367 168.353Z" fill="black"/>
<g opacity="0.2">
<path d="M90.08 152.683C88.4414 157.192 86.772 161.881 86.6637 166.915C86.5551 170.764 87.4426 174.575 89.2401 177.979C90.9766 181.127 93.5117 183.426 96.3045 184.389C96.8275 184.612 97.4044 184.677 97.9637 184.575C98.2753 184.488 98.5587 184.321 98.7857 184.09C99.0126 183.86 99.1751 183.574 99.257 183.261C99.5095 182.369 99.2055 181.385 98.9066 180.524C95.5934 170.971 93.9858 162.669 90.6622 153.121L90.08 152.683Z" fill="black"/>
</g>
<path d="M111.969 313.466H118.286L121.29 289.098H111.969V313.466Z" fill="#FFB8B8"/>
<path d="M130.472 319.33H110.614V311.663H122.8C124.834 311.663 126.784 312.47 128.223 313.908C129.662 315.346 130.471 317.296 130.472 319.33Z" fill="#2F2E41"/>
<path d="M60.0345 307.958L66.0323 309.936L76.5335 287.748L67.6812 284.821L60.0345 307.958Z" fill="#FFB8B8"/>
<path d="M75.7554 319.33L56.9068 313.1L59.3131 305.819L70.881 309.643C71.8372 309.959 72.7218 310.46 73.4842 311.118C74.2467 311.776 74.8722 312.577 75.3248 313.477C75.7775 314.376 76.0485 315.356 76.1224 316.361C76.1962 317.365 76.0716 318.374 75.7554 319.33Z" fill="#2F2E41"/>
<path d="M90.0439 146.36C97.0331 146.36 102.699 140.694 102.699 133.704C102.699 126.715 97.0331 121.049 90.0439 121.049C83.0547 121.049 77.3889 126.715 77.3889 133.704C77.3889 140.694 83.0547 146.36 90.0439 146.36Z" fill="#FFB8B8"/>
<path d="M101.122 306.685L95.2585 267.94C95.1981 267.524 94.9946 267.143 94.6832 266.861C94.3718 266.58 93.9719 266.416 93.5525 266.397C93.1331 266.379 92.7205 266.508 92.3857 266.761C92.0509 267.014 91.815 267.376 91.7186 267.785L82.7889 304.706C82.6479 305.272 82.3009 305.764 81.8158 306.087C81.3306 306.411 80.7424 306.541 80.1662 306.453L55.5207 302.49C55.2199 302.442 54.9315 302.335 54.6721 302.175C54.4126 302.015 54.1872 301.806 54.0087 301.559C53.8302 301.312 53.7021 301.033 53.6318 300.736C53.5615 300.44 53.5502 300.132 53.5988 299.831C53.5988 299.728 53.64 299.63 53.6709 299.527L85.8032 193.587C85.8959 193.285 85.9066 192.963 85.8342 192.655L84.7675 188.017C84.6521 187.516 84.7069 186.99 84.9234 186.524C85.1399 186.057 85.5057 185.676 85.963 185.44C90.3376 183.209 101.421 178.566 109.784 183.652C110.056 183.818 110.292 184.037 110.476 184.296C110.66 184.556 110.79 184.851 110.856 185.162L135.96 303.165C136.028 303.486 136.028 303.818 135.958 304.139C135.889 304.459 135.752 304.762 135.558 305.026C135.363 305.29 135.114 305.509 134.828 305.67C134.542 305.831 134.225 305.929 133.899 305.958L103.621 308.648H103.415C102.862 308.648 102.327 308.449 101.907 308.09C101.486 307.73 101.208 307.232 101.122 306.685Z" fill="#2F2E41"/>
<path d="M121.156 210.288C121.699 209.175 121.778 207.893 121.376 206.722C120.974 205.551 120.124 204.588 119.013 204.043C118.766 203.922 118.509 203.824 118.245 203.749L102.431 171.424L94.2795 177.484L112.314 207.248C112.073 208.372 112.253 209.545 112.818 210.546C113.384 211.547 114.296 212.306 115.383 212.681C116.47 213.055 117.656 213.018 118.718 212.577C119.78 212.136 120.643 211.322 121.146 210.288H121.156Z" fill="#FFB8B8"/>
<path d="M93.2798 179.504L83.4588 161.721C82.8629 160.652 82.5433 159.451 82.529 158.228C82.5146 157.004 82.8058 155.796 83.3763 154.713C83.8414 153.801 84.4989 153.001 85.3034 152.369C86.343 151.541 87.5864 151.008 88.9029 150.827C90.2194 150.645 91.5605 150.822 92.7852 151.338C94.4876 152.079 95.8604 153.417 96.6446 155.1L105.27 173.027C105.484 173.469 105.52 173.977 105.37 174.445C105.221 174.913 104.897 175.305 104.466 175.542L95.9026 180.251C95.4574 180.495 94.9339 180.552 94.4465 180.411C93.959 180.271 93.547 179.943 93.3005 179.499L93.2798 179.504Z" fill="black"/>
<path d="M83.7576 122.657C84.809 122.288 85.7888 121.741 86.6534 121.038C87.0804 120.681 87.4084 120.22 87.606 119.699C87.8035 119.179 87.8641 118.616 87.7819 118.065C87.447 116.555 85.6744 115.726 84.1338 115.896C82.5931 116.066 81.2482 116.962 79.9652 117.833C78.8368 118.601 77.6774 119.405 76.9715 120.575C76.2656 121.744 76.1625 123.388 77.0951 124.383C78.0278 125.377 79.6251 125.372 80.8257 124.78C82.0263 124.187 82.9435 123.141 83.7679 122.11L83.7576 122.657Z" fill="#2F2E41"/>
<path d="M80.3002 118.251C80.9597 114.747 77.5022 111.413 73.9366 111.315C70.3709 111.217 67.1195 113.592 65.1203 116.55C60.9053 122.796 61.3742 131.025 62.6366 138.456C63.8991 145.886 65.7695 153.549 63.8424 160.835C62.7442 164.76 60.6068 168.316 57.6557 171.128C54.7046 173.94 51.0492 175.902 47.0754 176.809C50.5896 179.386 55.6032 178.525 59.442 176.464C67.9491 171.888 73.0039 161.634 71.453 152.101C70.6903 147.396 68.5159 143.057 67.0628 138.523C65.6098 133.988 64.9141 128.85 67.0628 124.609C69.2115 120.369 75.0135 117.751 78.9708 120.4L80.3002 118.251Z" fill="#2F2E41"/>
<path d="M89.7451 138.775C89.0443 136.714 88.4517 134.101 90.7756 132.916C91.2745 132.676 91.816 132.538 92.3688 132.508C92.9216 132.479 93.4747 132.56 93.9961 132.746C96.1654 133.483 98.5665 134.096 100.89 133.735C101.756 133.628 102.591 133.346 103.346 132.908C104.1 132.47 104.758 131.883 105.281 131.185C106.945 128.783 106.218 125.29 104.25 123.141C103.032 121.861 101.464 120.97 99.7414 120.578C98.0189 120.187 96.2191 120.313 94.568 120.941C91.8371 118.982 88.0601 118.812 84.9428 120.07C81.8254 121.327 79.3417 123.873 77.6723 126.794C76.1731 129.293 75.4054 132.162 75.4566 135.075C75.5597 137.116 76.1535 139.103 77.1878 140.865C78.222 142.628 79.6662 144.115 81.3977 145.201C82.0685 145.642 82.8433 145.898 83.6445 145.945C84.4457 145.992 85.2452 145.828 85.963 145.469C85.963 145.469 87.9828 144.335 88.8897 142.65C89.5802 141.357 90.1161 139.873 89.7451 138.775Z" fill="#2F2E41"/>
<path d="M197.334 320.5H1.01527C0.878613 320.5 0.747552 320.446 0.65092 320.349C0.554287 320.252 0.5 320.121 0.5 319.985C0.5 319.848 0.554287 319.717 0.65092 319.62C0.747552 319.524 0.878613 319.469 1.01527 319.469H197.334C197.471 319.469 197.602 319.524 197.698 319.62C197.795 319.717 197.849 319.848 197.849 319.985C197.849 320.121 197.795 320.252 197.698 320.349C197.602 320.446 197.471 320.5 197.334 320.5Z" fill="#3F3D56"/>
<path d="M314.909 198.56H252.468C250.769 198.557 249.14 197.881 247.938 196.679C246.737 195.478 246.061 193.849 246.058 192.15V91.7438C246.059 90.0441 246.735 88.4144 247.937 87.2125C249.139 86.0107 250.768 85.3349 252.468 85.3335H314.909V198.56ZM252.468 86.3641C251.042 86.3668 249.675 86.9345 248.667 87.9428C247.659 88.9511 247.091 90.3179 247.088 91.7438V192.15C247.091 193.576 247.659 194.942 248.667 195.951C249.675 196.959 251.042 197.527 252.468 197.529H313.878V86.3641H252.468Z" fill="#3F3D56"/>
<path d="M313.296 85.3335H375.716C377.415 85.3349 379.045 86.0107 380.247 87.2125C381.449 88.4144 382.124 90.0441 382.126 91.7438V192.15C382.123 193.849 381.447 195.478 380.245 196.679C379.044 197.881 377.415 198.557 375.716 198.56H313.296V85.3335Z" fill="#3F3D56"/>
<path d="M268.41 59.3316H267.705V92.0942H268.41V59.3316Z" fill="#2F2E41"/>
<path d="M268.266 60.0375C266.802 60.0396 265.371 59.6073 264.153 58.7955C262.934 57.9836 261.984 56.8287 261.423 55.4767C260.861 54.1248 260.713 52.6366 260.997 51.2006C261.282 49.7645 261.986 48.445 263.02 47.4091C264.055 46.3732 265.373 45.6675 266.809 45.3811C268.244 45.0947 269.732 45.2407 271.085 45.8004C272.438 46.3602 273.594 47.3086 274.407 48.5257C275.221 49.7428 275.655 51.1739 275.655 52.6378C275.655 54.5986 274.877 56.4791 273.492 57.8666C272.106 59.254 270.227 60.0348 268.266 60.0375ZM268.266 45.9441C266.941 45.9441 265.646 46.337 264.545 47.0731C263.443 47.8092 262.585 48.8554 262.078 50.0794C261.571 51.3035 261.438 52.6504 261.696 53.9499C261.955 55.2493 262.593 56.443 263.53 57.3798C264.466 58.3167 265.66 58.9547 266.959 59.2131C268.259 59.4716 269.606 59.339 270.83 58.8319C272.054 58.3249 273.1 57.4663 273.836 56.3647C274.572 55.2631 274.965 53.9679 274.965 52.643C274.965 50.8663 274.259 49.1625 273.003 47.9062C271.747 46.6499 270.043 45.9441 268.266 45.9441Z" fill="#2F2E41"/>
<path d="M340.497 15.2942H339.791V91.0378H340.497V15.2942Z" fill="#2F2E41"/>
<path d="M340.353 15.2942C338.889 15.2942 337.458 14.8601 336.241 14.0468C335.024 13.2335 334.076 12.0775 333.516 10.7251C332.956 9.37265 332.81 7.88456 333.096 6.44902C333.382 5.01348 334.087 3.695 335.122 2.66034C336.158 1.62568 337.477 0.921337 338.912 0.636401C340.348 0.351465 341.836 0.498739 343.188 1.05959C344.54 1.62045 345.695 2.56968 346.507 3.78723C347.32 5.00478 347.753 6.43594 347.752 7.89968C347.752 8.87117 347.561 9.83315 347.189 10.7306C346.817 11.6281 346.272 12.4435 345.584 13.1302C344.897 13.8169 344.082 14.3615 343.184 14.7328C342.286 15.1041 341.324 15.2949 340.353 15.2942ZM340.353 1.20596C339.028 1.20596 337.733 1.59884 336.631 2.33492C335.53 3.071 334.671 4.11722 334.164 5.34128C333.657 6.56534 333.524 7.91226 333.783 9.21171C334.041 10.5112 334.679 11.7048 335.616 12.6416C336.553 13.5785 337.746 14.2165 339.046 14.475C340.345 14.7335 341.692 14.6008 342.916 14.0938C344.14 13.5868 345.186 12.7281 345.922 11.6265C346.658 10.5249 347.051 9.22974 347.051 7.90483C347.051 7.02512 346.878 6.15403 346.541 5.34128C346.205 4.52854 345.711 3.79006 345.089 3.16801C344.467 2.54596 343.729 2.05253 342.916 1.71588C342.103 1.37923 341.232 1.20596 340.353 1.20596Z" fill="#2F2E41"/>
<path d="M314.136 165.942C307.912 165.942 301.944 163.469 297.543 159.068C293.142 154.667 290.67 148.699 290.67 142.475C290.67 136.251 293.142 130.282 297.543 125.881C301.944 121.481 307.912 119.008 314.136 119.008V165.942Z" fill="black"/>
<path d="M314.136 119.018C320.359 119.018 326.328 121.491 330.728 125.892C335.129 130.293 337.601 136.261 337.601 142.485C337.601 148.709 335.129 154.678 330.728 159.079C326.328 163.479 320.359 165.952 314.136 165.952V119.018Z" fill="#E6E6E6"/>
<path d="M395.513 211.772H233.465C231.878 211.769 230.356 211.138 229.234 210.015C228.112 208.893 227.48 207.372 227.477 205.784V77.7586C227.479 76.171 228.11 74.6488 229.232 73.5262C230.355 72.4035 231.877 71.7722 233.465 71.7709H395.513C397.101 71.7709 398.623 72.4017 399.746 73.5247C400.869 74.6476 401.5 76.1706 401.5 77.7586V205.784C401.499 207.372 400.867 208.894 399.745 210.017C398.622 211.14 397.1 211.771 395.513 211.772ZM233.465 72.4717C232.064 72.4744 230.721 73.0325 229.731 74.0235C228.741 75.0146 228.185 76.3578 228.183 77.7586V205.784C228.183 207.185 228.74 208.529 229.73 209.519C230.721 210.51 232.064 211.066 233.465 211.066H395.513C396.913 211.065 398.256 210.508 399.247 209.518C400.238 208.528 400.797 207.185 400.799 205.784V77.7586C400.797 76.3573 400.239 75.0141 399.248 74.0232C398.257 73.0323 396.914 72.4744 395.513 72.4717H233.465Z" fill="#3F3D56"/>
<path d="M303.964 38.632H303.258V128.686H303.964V38.632Z" fill="#2F2E41"/>
<path d="M303.82 38.9103C302.356 38.9124 300.924 38.4801 299.706 37.6683C298.488 36.8564 297.538 35.7015 296.976 34.3495C296.415 32.9976 296.267 31.5094 296.551 30.0734C296.836 28.6373 297.539 27.3178 298.574 26.2819C299.608 25.246 300.927 24.5403 302.362 24.2539C303.798 23.9675 305.286 24.1135 306.639 24.6732C307.991 25.233 309.148 26.1814 309.961 27.3985C310.775 28.6156 311.209 30.0467 311.209 31.5106C311.209 33.4714 310.431 35.3519 309.045 36.7394C307.66 38.1268 305.781 38.9076 303.82 38.9103ZM303.82 24.8169C302.495 24.8169 301.2 25.2098 300.098 25.9459C298.997 26.682 298.138 27.7282 297.631 28.9522C297.124 30.1763 296.992 31.5232 297.25 32.8227C297.509 34.1221 298.147 35.3158 299.083 36.2526C300.02 37.1895 301.214 37.8275 302.513 38.0859C303.812 38.3444 305.159 38.2118 306.383 37.7047C307.607 37.1977 308.653 36.3391 309.39 35.2375C310.126 34.1359 310.518 32.8407 310.518 31.5158C310.518 29.7391 309.813 28.0353 308.556 26.779C307.3 25.5227 305.596 24.8169 303.82 24.8169Z" fill="#2F2E41"/>
<path d="M257.878 192.706C260.439 192.706 262.516 190.63 262.516 188.068C262.516 185.507 260.439 183.431 257.878 183.431C255.317 183.431 253.241 185.507 253.241 188.068C253.241 190.63 255.317 192.706 257.878 192.706Z" fill="#3F3D56"/>
<path d="M371.753 192.706C374.315 192.706 376.391 190.63 376.391 188.068C376.391 185.507 374.315 183.431 371.753 183.431C369.192 183.431 367.116 185.507 367.116 188.068C367.116 190.63 369.192 192.706 371.753 192.706Z" fill="#E6E6E6"/>
<path d="M257.878 100.468C260.439 100.468 262.516 98.3914 262.516 95.8301C262.516 93.2688 260.439 91.1924 257.878 91.1924C255.317 91.1924 253.241 93.2688 253.241 95.8301C253.241 98.3914 255.317 100.468 257.878 100.468Z" fill="#3F3D56"/>
<path d="M371.753 100.468C374.315 100.468 376.391 98.3914 376.391 95.8301C376.391 93.2688 374.315 91.1924 371.753 91.1924C369.192 91.1924 367.116 93.2688 367.116 95.8301C367.116 98.3914 369.192 100.468 371.753 100.468Z" fill="#E6E6E6"/>
<path d="M266.154 62.1503C270.044 62.1503 273.197 58.9965 273.197 55.1061C273.197 51.2158 270.044 48.062 266.154 48.062C262.263 48.062 259.11 51.2158 259.11 55.1061C259.11 58.9965 262.263 62.1503 266.154 62.1503Z" fill="#F2F2F2"/>
<path d="M338.24 17.4069C342.13 17.4069 345.284 14.2531 345.284 10.3628C345.284 6.47243 342.13 3.31866 338.24 3.31866C334.35 3.31866 331.196 6.47243 331.196 10.3628C331.196 14.2531 334.35 17.4069 338.24 17.4069Z" fill="#3F3D56"/>
<path d="M301.707 41.023C305.597 41.023 308.751 37.8693 308.751 33.9789C308.751 30.0885 305.597 26.9348 301.707 26.9348C297.817 26.9348 294.664 30.0885 294.664 33.9789C294.664 37.8693 297.817 41.023 301.707 41.023Z" fill="black"/>
</g>
<defs>
<clipPath id="clip0_204_2500">
<rect width="401" height="320" fill="white" transform="translate(0.5 0.5)"/>
</clipPath>
</defs>
</svg>
