<svg width="422" height="277" viewBox="0 0 422 277" fill="none" xmlns="http://www.w3.org/2000/svg">
<g clip-path="url(#clip0_204_1714)">
<path d="M369.75 185.727C369.384 185.288 369.107 184.781 368.936 184.235C368.766 183.688 368.704 183.114 368.755 182.543C368.806 181.973 368.969 181.419 369.234 180.912C369.499 180.404 369.861 179.955 370.3 179.588C370.495 179.424 370.706 179.279 370.927 179.154L368.079 163.922L375.49 167.039L377.061 181.027C377.527 181.992 377.625 183.094 377.335 184.126C377.045 185.157 376.388 186.047 375.488 186.626C374.587 187.206 373.507 187.434 372.449 187.27C371.392 187.105 370.432 186.558 369.75 185.732V185.727Z" fill="#FFB6B6"/>
<path d="M352.143 9.6665H26.8239V164.308H352.143V9.6665Z" fill="#E6E6E6"/>
<path d="M342.837 22.9258H36.1254V151.946H342.837V22.9258Z" fill="white"/>
<path d="M352.004 0.730103H26.6854V14.5748H352.004V0.730103Z" fill="#009F3D"/>
<path d="M36.9564 9.70114C38.3716 9.70114 39.5188 8.55191 39.5188 7.13426C39.5188 5.71661 38.3716 4.56738 36.9564 4.56738C35.5413 4.56738 34.3941 5.71661 34.3941 7.13426C34.3941 8.55191 35.5413 9.70114 36.9564 9.70114Z" fill="white"/>
<path d="M46.6778 9.70114C48.0929 9.70114 49.2401 8.55191 49.2401 7.13426C49.2401 5.71661 48.0929 4.56738 46.6778 4.56738C45.2626 4.56738 44.1154 5.71661 44.1154 7.13426C44.1154 8.55191 45.2626 9.70114 46.6778 9.70114Z" fill="white"/>
<path d="M56.4034 9.70114C57.8186 9.70114 58.9658 8.55191 58.9658 7.13426C58.9658 5.71661 57.8186 4.56738 56.4034 4.56738C54.9883 4.56738 53.8411 5.71661 53.8411 7.13426C53.8411 8.55191 54.9883 9.70114 56.4034 9.70114Z" fill="white"/>
<path d="M54.0662 105.933C53.7229 105.953 53.4001 106.103 53.164 106.353C52.9279 106.604 52.7964 106.935 52.7964 107.279C52.7964 107.624 52.9279 107.955 53.164 108.206C53.4001 108.456 53.7229 108.606 54.0662 108.626H127.82C128.163 108.606 128.486 108.456 128.722 108.206C128.959 107.955 129.09 107.624 129.09 107.279C129.09 106.935 128.959 106.604 128.722 106.353C128.486 106.103 128.163 105.953 127.82 105.933H54.0662Z" fill="#E6E6E6"/>
<path d="M54.0662 114.015C53.7229 114.035 53.4001 114.185 53.164 114.435C52.9279 114.686 52.7964 115.017 52.7964 115.362C52.7964 115.706 52.9279 116.037 53.164 116.288C53.4001 116.538 53.7229 116.688 54.0662 116.708H91.7223C92.0655 116.688 92.3883 116.538 92.6244 116.288C92.8605 116.037 92.9921 115.706 92.9921 115.362C92.9921 115.017 92.8605 114.686 92.6244 114.435C92.3883 114.185 92.0655 114.035 91.7223 114.015H54.0662Z" fill="#E6E6E6"/>
<path d="M127.916 129.269H99.9158C99.5534 129.268 99.2062 129.123 98.9499 128.867C98.6936 128.61 98.5492 128.262 98.548 127.899V123.403C98.5492 123.039 98.6935 122.691 98.9496 122.433C99.2058 122.176 99.553 122.03 99.9158 122.028H127.937C128.3 122.03 128.647 122.176 128.903 122.433C129.159 122.691 129.304 123.039 129.305 123.403V127.899C129.304 128.081 129.268 128.26 129.198 128.428C129.127 128.595 129.025 128.747 128.895 128.874C128.766 129.002 128.613 129.102 128.445 129.17C128.277 129.238 128.097 129.271 127.916 129.269Z" fill="#009F3D"/>
<path d="M127.916 82.441H99.9158C99.5534 82.4398 99.2062 82.2951 98.9499 82.0384C98.6936 81.7817 98.5492 81.4338 98.548 81.0708V76.5744C98.5492 76.211 98.6935 75.8627 98.9496 75.6053C99.2058 75.3479 99.553 75.2022 99.9158 75.2H127.937C128.3 75.2022 128.647 75.3479 128.903 75.6053C129.159 75.8627 129.304 76.211 129.305 76.5744V81.0708C129.304 81.2524 129.268 81.4321 129.198 81.5995C129.127 81.7669 129.025 81.9187 128.895 82.0461C128.766 82.1735 128.613 82.274 128.445 82.3418C128.277 82.4096 128.097 82.4433 127.916 82.441Z" fill="#009F3D"/>
<path d="M177.297 45.49C176.832 45.49 176.386 45.675 176.057 46.0043C175.729 46.3336 175.544 46.7803 175.544 47.246C175.544 47.7118 175.729 48.1584 176.057 48.4878C176.386 48.8171 176.832 49.0021 177.297 49.0021H323.987C324.452 49.0021 324.898 48.8171 325.227 48.4878C325.555 48.1584 325.74 47.7118 325.74 47.246C325.74 46.7803 325.555 46.3336 325.227 46.0043C324.898 45.675 324.452 45.49 323.987 45.49H177.297Z" fill="#E6E6E6"/>
<path d="M177.297 56.035C176.832 56.035 176.386 56.22 176.057 56.5494C175.729 56.8787 175.544 57.3254 175.544 57.7911C175.544 58.2568 175.729 58.7035 176.057 59.0328C176.386 59.3621 176.832 59.5471 177.297 59.5471H276.882C277.347 59.5471 277.793 59.3621 278.122 59.0328C278.451 58.7035 278.635 58.2568 278.635 57.7911C278.635 57.3254 278.451 56.8787 278.122 56.5494C277.793 56.22 277.347 56.035 276.882 56.035H177.297Z" fill="#E6E6E6"/>
<path d="M177.297 66.3373C176.847 66.3597 176.422 66.5547 176.111 66.882C175.8 67.2093 175.627 67.6437 175.627 68.0955C175.627 68.5473 175.8 68.9817 176.111 69.309C176.422 69.6363 176.847 69.8313 177.297 69.8537H323.987C324.438 69.8313 324.862 69.6363 325.173 69.309C325.484 68.9817 325.657 68.5473 325.657 68.0955C325.657 67.6437 325.484 67.2093 325.173 66.882C324.862 66.5547 324.438 66.3597 323.987 66.3373H177.297Z" fill="#E6E6E6"/>
<path d="M177.297 76.8822C176.832 76.8822 176.386 77.0672 176.057 77.3965C175.729 77.7259 175.544 78.1725 175.544 78.6383C175.544 79.104 175.729 79.5506 176.057 79.88C176.386 80.2093 176.832 80.3943 177.297 80.3943H276.882C277.347 80.3943 277.793 80.2093 278.122 79.88C278.451 79.5506 278.635 79.104 278.635 78.6383C278.635 78.1725 278.451 77.7259 278.122 77.3965C277.793 77.0672 277.347 76.8822 276.882 76.8822H177.297Z" fill="#E6E6E6"/>
<path d="M324.42 99.685H296.42C296.057 99.6827 295.71 99.537 295.454 99.2796C295.198 99.0222 295.054 98.6739 295.053 98.3105V93.8141C295.054 93.4511 295.198 93.1032 295.454 92.8465C295.711 92.5898 296.058 92.4451 296.42 92.444H324.442C324.804 92.4451 325.151 92.5898 325.408 92.8465C325.664 93.1032 325.808 93.4511 325.809 93.8141V98.3105C325.809 98.4923 325.772 98.6722 325.702 98.8398C325.632 99.0075 325.529 99.1595 325.4 99.2873C325.271 99.415 325.118 99.5159 324.95 99.5842C324.781 99.6525 324.601 99.6867 324.42 99.685Z" fill="#009F3D"/>
<path d="M85.8315 47.3936C85.3337 47.3936 84.9312 48.0439 84.9312 48.8418C84.9312 49.6396 85.3337 50.277 85.8315 50.2813H128.327C128.824 50.2813 129.227 49.6309 129.227 48.8331C129.227 48.0353 128.82 47.3936 128.327 47.3936H85.8315Z" fill="#E4E4E4"/>
<path d="M85.8315 55.7576C85.3337 55.7576 84.9312 56.408 84.9312 57.2058C84.9312 58.0036 85.3337 58.6453 85.8315 58.6453H128.327C128.824 58.6453 129.227 57.9949 129.227 57.1971C129.227 56.3993 128.82 55.7619 128.327 55.7576H85.8315Z" fill="#E4E4E4"/>
<path d="M85.8315 64.0348C85.3337 64.0348 84.9312 64.6852 84.9312 65.483C84.9312 66.2808 85.3337 66.9225 85.8315 66.9225H104.119C104.616 66.9225 105.019 66.2721 105.014 65.4743C105.01 64.6765 104.612 64.0348 104.119 64.0348H85.8315Z" fill="#E4E4E4"/>
<path d="M64.255 68.5919C70.6231 68.5919 75.7855 63.4203 75.7855 57.0409C75.7855 50.6615 70.6231 45.49 64.255 45.49C57.8868 45.49 52.7244 50.6615 52.7244 57.0409C52.7244 63.4203 57.8868 68.5919 64.255 68.5919Z" fill="#E4E4E4"/>
<path d="M303.03 97.3956C302.953 97.9654 302.991 98.5446 303.14 99.0997C303.289 99.6548 303.547 100.175 303.899 100.629C304.25 101.083 304.689 101.463 305.188 101.746C305.688 102.029 306.238 102.21 306.808 102.278C307.062 102.312 307.318 102.322 307.574 102.308L313.301 116.691L317.876 110.07L311.721 97.4216C311.599 96.355 311.091 95.3702 310.293 94.6539C309.495 93.9376 308.462 93.5396 307.391 93.5353C306.319 93.531 305.283 93.9208 304.479 94.6307C303.675 95.3406 303.16 96.3214 303.03 97.3869V97.3956Z" fill="#FFB6B6"/>
<path d="M368.006 270.322H362.699L360.176 249.821H368.006V270.322Z" fill="#FFB6B6"/>
<path d="M369.361 275.477H352.255V275.26C352.255 273.491 352.956 271.794 354.205 270.543C355.453 269.292 357.146 268.588 358.912 268.587H369.365L369.361 275.477Z" fill="#2F2E41"/>
<path d="M350.641 270.157L345.585 268.548L349.355 248.239L356.822 250.606L350.641 270.157Z" fill="#FFB6B6"/>
<path d="M350.381 275.477L334.076 270.304L334.141 270.096C334.676 268.411 335.857 267.008 337.424 266.195C338.991 265.382 340.817 265.225 342.499 265.76L352.454 268.917L350.381 275.477Z" fill="#2F2E41"/>
<path d="M344.356 170.114C344.356 170.114 336.483 182.497 339.27 193.549C342.058 204.602 345.083 225.852 345.083 225.852L360.167 261.815L371.421 261.355L360.254 218.954L360.687 190.601C360.687 190.601 368.447 177.051 366.937 172.824C365.426 168.596 344.356 170.114 344.356 170.114Z" fill="#2F2E41"/>
<path d="M370.079 174.541C370.079 174.541 371.049 186.829 368.019 192.032C364.989 197.235 361.777 217.037 361.777 217.037L356.627 256.646L345.962 253.177L355.051 208.799L362.21 173.886L370.079 174.541Z" fill="#2F2E41"/>
<path d="M373.862 115.069L365.539 109.337L352.874 108.968L348.464 113.304L341.733 116.747L341.11 172.837C341.11 172.837 361.267 182.515 372.109 177.845L377.303 134.151C379.489 125.475 373.862 115.069 373.862 115.069Z" fill="#3F3D56"/>
<path d="M343.425 131.732H321.226L306.639 106.583L316.123 102.82L324.156 117.128L335.777 116.066L343.036 115.715C344.084 115.666 345.132 115.824 346.119 116.181C347.106 116.537 348.013 117.085 348.789 117.793C349.564 118.501 350.193 119.355 350.639 120.306C351.086 121.257 351.341 122.288 351.39 123.337C351.41 123.792 351.395 124.247 351.342 124.699C351.103 126.636 350.167 128.418 348.709 129.713C347.252 131.008 345.373 131.726 343.425 131.732Z" fill="#3F3D56"/>
<path d="M360.241 104.35C366.306 104.35 371.222 99.4254 371.222 93.3501C371.222 87.2748 366.306 82.3499 360.241 82.3499C354.176 82.3499 349.26 87.2748 349.26 93.3501C349.26 99.4254 354.176 104.35 360.241 104.35Z" fill="#FFB6B6"/>
<path d="M373.464 90.844C373.131 88.4289 371.494 86.1395 369.174 85.4067C368.253 82.7228 365.807 80.7456 363.115 79.8871C360.617 79.0874 357.924 79.1406 355.459 80.0382C352.994 80.9358 350.896 82.6272 349.494 84.8474C349.286 85.1726 348.628 85.9747 348.671 86.3606C348.671 86.8549 349.446 87.3666 349.823 87.6614C350.763 88.3895 351.779 89.0146 352.852 89.5259C356.8 91.5768 355.488 94.8027 355.449 98.4536C355.424 100.227 356.016 101.745 357.527 102.759C359.691 104.22 362.829 103.626 365.201 103.05C367.893 102.386 370.131 100.015 371.663 97.7338C372.992 95.7349 373.806 93.2591 373.464 90.844Z" fill="#2F2E41"/>
<path d="M373.546 129.391L377.818 176.34L364.093 175.603L373.546 129.391Z" fill="#3F3D56"/>
<path d="M420.85 276.73H252.782C252.646 276.728 252.516 276.672 252.421 276.575C252.325 276.477 252.272 276.346 252.272 276.21C252.272 276.074 252.325 275.944 252.421 275.848C252.517 275.752 252.647 275.698 252.782 275.698H420.85C420.918 275.698 420.985 275.711 421.047 275.737C421.11 275.763 421.166 275.801 421.214 275.849C421.262 275.897 421.3 275.954 421.326 276.017C421.352 276.079 421.365 276.146 421.365 276.214C421.364 276.351 421.309 276.481 421.213 276.578C421.117 276.674 420.986 276.729 420.85 276.73Z" fill="#CACACA"/>
<path d="M36.7573 271.583H40.8735L42.8342 255.679H36.7573V271.583Z" fill="#9E616A"/>
<path d="M35.7099 270.235H43.8168C44.4952 270.235 45.167 270.369 45.7938 270.629C46.4206 270.889 46.99 271.271 47.4695 271.751C47.9491 272.232 48.3294 272.803 48.5886 273.431C48.8478 274.059 48.981 274.732 48.9804 275.412V275.577H35.7099V270.235Z" fill="#2F2E41"/>
<path d="M74.6948 271.583H78.811L80.7674 255.679H74.6948V271.583Z" fill="#9E616A"/>
<path d="M73.6473 270.235H81.7369C82.4179 270.231 83.093 270.362 83.7233 270.62C84.3535 270.879 84.9265 271.259 85.4093 271.741C85.8921 272.222 86.275 272.794 86.5362 273.424C86.7973 274.054 86.9315 274.73 86.9309 275.412V275.577H73.6473V270.235Z" fill="#2F2E41"/>
<path d="M69.7259 143.816L72.4138 160.965L46.8985 161.303L50.2529 144.822L69.7259 143.816Z" fill="#9E616A"/>
<path d="M71.6693 156.781L79.7978 178.46L80.8063 268.292H73.946L57.4985 196.116L42.3495 266.402H35.6493L40.3498 187.366C40.3498 187.366 38.9647 171.505 46.0588 162.144L47.7901 157.145L71.6693 156.781Z" fill="#2F2E41"/>
<path d="M36.8136 173.678C38.1027 173.326 39.1994 172.475 39.8626 171.313C40.5257 170.151 40.701 168.773 40.3498 167.482C40.2712 167.196 40.1684 166.917 40.0425 166.649L50.8935 131.199L42.9122 129.612L32.983 164.36C31.8983 164.964 31.0728 165.946 30.6631 167.119C30.2534 168.293 30.2882 169.576 30.7607 170.726C31.2333 171.875 32.1108 172.811 33.2266 173.355C34.3424 173.899 35.6189 174.014 36.8136 173.678Z" fill="#9E616A"/>
<path d="M51.1273 153.286C50.9819 153.286 50.8369 153.272 50.6944 153.243C50.203 153.145 49.7571 152.888 49.4249 152.512C49.0927 152.136 48.8925 151.662 48.8549 151.161C48.6039 147.693 47.353 141.674 45.1412 133.254C44.3932 130.391 44.5582 127.366 45.6132 124.602C46.6682 121.838 48.5602 119.474 51.0239 117.842C53.4877 116.21 56.3997 115.391 59.3515 115.5C62.3033 115.609 65.1471 116.641 67.4839 118.451C68.9798 119.6 70.2284 121.039 71.1544 122.684C72.0805 124.329 72.6649 126.144 72.8726 128.02C73.972 137.724 71.8987 147.471 70.9552 151.213C70.8313 151.699 70.5532 152.13 70.1627 152.443C69.7723 152.756 69.2908 152.933 68.791 152.948L51.2052 153.286H51.1273Z" fill="#3F3D56"/>
<path d="M100.266 122.136C100.162 122.374 100.075 122.619 100.007 122.869L77.993 130.375L73.7383 126.655L67.2891 132.348L74.1841 139.675C74.7405 140.266 75.4733 140.661 76.2725 140.799C77.0716 140.937 77.894 140.812 78.6162 140.443L102.175 128.389C103.005 128.898 103.967 129.15 104.939 129.112C105.912 129.074 106.851 128.747 107.639 128.175C108.426 127.602 109.026 126.808 109.363 125.893C109.701 124.978 109.759 123.984 109.532 123.036C109.305 122.088 108.803 121.229 108.089 120.567C107.374 119.905 106.48 119.47 105.519 119.317C104.557 119.164 103.573 119.3 102.688 119.708C101.804 120.115 101.061 120.776 100.552 121.607C100.447 121.783 100.352 121.964 100.266 122.149V122.136Z" fill="#9E616A"/>
<path d="M77.2269 130.808L69.1849 137.807C68.7641 138.175 68.2145 138.361 67.6569 138.323C67.0993 138.286 66.5793 138.028 66.2113 137.607C66.1408 137.53 66.0784 137.446 66.0252 137.356L60.2816 128.402C59.2796 127.224 58.7825 125.697 58.8984 124.154C59.0144 122.61 59.7341 121.175 60.9009 120.161C62.0677 119.146 63.5872 118.634 65.1289 118.736C66.6705 118.838 68.1096 119.546 69.1329 120.706L77.1922 127.587C77.4033 127.767 77.5768 127.986 77.703 128.233C77.8292 128.48 77.9056 128.75 77.9277 129.027C77.9498 129.303 77.9173 129.582 77.8319 129.846C77.7466 130.11 77.6101 130.354 77.4303 130.565C77.3626 130.643 77.2903 130.717 77.2139 130.787L77.2269 130.808Z" fill="#3F3D56"/>
<path d="M49.6253 140.274L39.7092 136.371C39.1883 136.166 38.7699 135.763 38.5459 135.249C38.322 134.735 38.3107 134.153 38.5146 133.631C38.5536 133.536 38.6012 133.44 38.6488 133.349L43.9423 124.122C44.5162 122.675 45.6406 121.516 47.068 120.899C48.4954 120.282 50.1089 120.258 51.5536 120.833C52.9983 121.408 54.1558 122.535 54.7714 123.965C55.3871 125.395 55.4106 127.011 54.8366 128.458L52.456 138.795C52.3226 139.335 51.9821 139.801 51.5081 140.092C51.0342 140.383 50.465 140.474 49.924 140.347C49.822 140.326 49.7221 140.295 49.6253 140.256V140.274Z" fill="#3F3D56"/>
<path d="M56.9791 113.313C62.9361 113.313 67.7652 108.475 67.7652 102.508C67.7652 96.5402 62.9361 91.7025 56.9791 91.7025C51.0221 91.7025 46.193 96.5402 46.193 102.508C46.193 108.475 51.0221 113.313 56.9791 113.313Z" fill="#9E616A"/>
<path d="M168.943 276.73H0.875775C0.739528 276.728 0.609631 276.672 0.51409 276.575C0.418549 276.477 0.365017 276.346 0.365036 276.21C0.365036 276.074 0.418846 275.944 0.514628 275.848C0.61041 275.752 0.740318 275.698 0.875775 275.698H168.943C169.011 275.698 169.078 275.712 169.14 275.737C169.202 275.763 169.259 275.802 169.306 275.85C169.354 275.897 169.391 275.954 169.416 276.017C169.442 276.08 169.455 276.147 169.454 276.214C169.454 276.35 169.4 276.481 169.305 276.577C169.209 276.674 169.079 276.729 168.943 276.73Z" fill="#CACACA"/>
<path d="M64.4238 98.1631L71.349 98.1241C71.5135 96.5414 70.8123 94.9718 69.7865 93.7578C68.71 92.5868 67.4813 91.5659 66.1334 90.7226C64.8047 89.8077 63.4283 88.8755 61.8528 88.5546C60.5283 88.2902 59.1606 88.4723 57.8231 88.6587L52.508 89.4002C50.5603 89.6733 48.526 89.9768 46.9461 91.1345C44.808 92.7128 43.9899 95.4705 43.306 98.072L39.5015 112.303L61.9523 114.661C62.7656 114.802 63.5987 114.777 64.4021 114.588C64.8048 114.486 65.1684 114.267 65.4466 113.958C65.7248 113.65 65.9051 113.265 65.9646 112.853C66.0296 111.938 65.3024 111.184 64.7138 110.481C63.307 108.734 62.4627 106.6 62.2927 104.362C62.1227 102.124 62.6349 99.8866 63.7615 97.9463L64.4238 98.1631Z" fill="#2F2E41"/>
</g>
<defs>
<clipPath id="clip0_204_1714">
<rect width="421" height="276" fill="white" transform="translate(0.365036 0.730103)"/>
</clipPath>
</defs>
</svg>
