<svg width="448" height="287" viewBox="0 0 448 287" fill="none" xmlns="http://www.w3.org/2000/svg">
<path d="M417.903 253.201H305.2C301.099 253.196 297.167 251.566 294.267 248.667C291.367 245.768 289.736 241.838 289.732 237.738V60.0233C289.735 55.9232 291.365 51.9918 294.265 49.0926C297.165 46.1933 301.098 44.5634 305.2 44.5606H417.903C422.003 44.5634 425.935 46.1926 428.835 49.0907C431.735 51.9888 433.366 55.9189 433.37 60.0181V237.738C433.366 241.838 431.735 245.768 428.835 248.667C425.936 251.566 422.004 253.196 417.903 253.201Z" fill="#E6E6E6"/>
<path d="M419.769 53.7874H304.987C303.703 53.7902 302.473 54.3011 301.565 55.2085C300.658 56.1158 300.147 57.3457 300.144 58.6289V238.661C300.145 239.944 300.656 241.175 301.564 242.083C302.472 242.99 303.703 243.501 304.987 243.502H419.769C421.053 243.499 422.283 242.988 423.191 242.081C424.098 241.174 424.61 239.944 424.612 238.661V58.6289C424.61 57.3457 424.098 56.1158 423.191 55.2085C422.283 54.3011 421.053 53.7902 419.769 53.7874Z" fill="white"/>
<path d="M307.974 44.5606C307.974 44.2467 308.098 43.9455 308.32 43.7231C308.541 43.5006 308.842 43.3749 309.156 43.3736H317.204C317.504 43.3935 317.786 43.5269 317.992 43.7468C318.198 43.9668 318.313 44.2568 318.313 44.558C318.313 44.8593 318.198 45.1493 317.992 45.3692C317.786 45.5891 317.504 45.7226 317.204 45.7425H309.135C308.825 45.737 308.53 45.6101 308.313 45.3891C308.095 45.168 307.974 44.8705 307.974 44.5606Z" fill="#E6E6E6"/>
<path d="M321.201 44.5606C321.204 44.2466 321.33 43.9463 321.552 43.7242C321.774 43.5022 322.075 43.3763 322.389 43.3736H330.431C330.732 43.3935 331.014 43.5269 331.22 43.7468C331.426 43.9668 331.54 44.2568 331.54 44.558C331.54 44.8593 331.426 45.1493 331.22 45.3692C331.014 45.5891 330.732 45.7226 330.431 45.7425H322.389C322.075 45.7425 321.774 45.6181 321.551 45.3966C321.329 45.1751 321.203 44.8745 321.201 44.5606Z" fill="#E6E6E6"/>
<path d="M400.708 44.5606C400.711 44.2466 400.837 43.9463 401.059 43.7242C401.281 43.5022 401.581 43.3763 401.895 43.3736H409.938C410.239 43.3935 410.52 43.5269 410.726 43.7468C410.932 43.9668 411.047 44.2568 411.047 44.558C411.047 44.8593 410.932 45.1493 410.726 45.3692C410.52 45.5891 410.239 45.7226 409.938 45.7425H401.895C401.581 45.7425 401.28 45.6181 401.058 45.3966C400.835 45.1751 400.709 44.8745 400.708 44.5606Z" fill="#E6E6E6"/>
<path d="M378.282 239.791C378.282 241.035 378.282 242.279 378.204 243.502H304.987C303.703 243.501 302.472 242.99 301.564 242.083C300.656 241.175 300.145 239.944 300.144 238.661V148.046C321.947 151.567 341.784 162.733 356.102 179.544C370.419 196.355 378.282 217.712 378.282 239.791Z" fill="#F2F2F2"/>
<path d="M375.798 100.056H348.492C347.249 100.056 346.241 101.063 346.241 102.306V105.11C346.241 106.353 347.249 107.36 348.492 107.36H375.798C377.041 107.36 378.048 106.353 378.048 105.11V102.306C378.048 101.063 377.041 100.056 375.798 100.056Z" fill="#DF0024"/>
<path d="M393.153 114.664H331.137C329.894 114.664 328.886 115.671 328.886 116.913V119.718C328.886 120.96 329.894 121.967 331.137 121.967H393.153C394.396 121.967 395.403 120.96 395.403 119.718V116.913C395.403 115.671 394.396 114.664 393.153 114.664Z" fill="#E6E6E6"/>
<path d="M393.153 129.276H331.137C329.894 129.276 328.886 130.283 328.886 131.526V134.33C328.886 135.573 329.894 136.58 331.137 136.58H393.153C394.396 136.58 395.403 135.573 395.403 134.33V131.526C395.403 130.283 394.396 129.276 393.153 129.276Z" fill="#E6E6E6"/>
<path d="M382.533 231.196C382.178 231.212 381.827 231.118 381.527 230.928C381.226 230.738 380.992 230.46 380.854 230.132C380.717 229.805 380.683 229.443 380.758 229.095C380.833 228.748 381.013 228.432 381.273 228.19L381.393 227.718L381.346 227.604C380.986 226.761 380.385 226.042 379.619 225.538C378.852 225.034 377.954 224.767 377.037 224.77C376.12 224.774 375.224 225.047 374.461 225.557C373.698 226.066 373.103 226.789 372.749 227.635C371.338 231.02 369.549 234.415 369.119 238.002C368.922 239.584 369.005 241.187 369.363 242.74C366.059 235.536 364.343 227.707 364.333 219.782C364.33 217.794 364.439 215.807 364.66 213.831C364.846 212.214 365.1 210.602 365.422 209.005C367.196 200.341 370.997 192.22 376.513 185.306C379.186 183.851 381.347 181.611 382.705 178.888C383.199 177.907 383.549 176.86 383.742 175.778C383.441 175.82 383.135 175.846 382.834 175.866H382.513C382.057 175.886 381.612 175.724 381.276 175.416C380.939 175.108 380.739 174.679 380.719 174.223C380.697 173.802 380.834 173.388 381.102 173.062L381.491 172.585C381.688 172.336 381.89 172.093 382.088 171.849L382.155 171.771L382.834 170.932C382.416 170.297 381.859 169.765 381.206 169.377C378.924 168.044 375.782 168.967 374.138 171.03C372.495 173.093 372.178 175.98 372.749 178.552C373.314 180.74 374.247 182.817 375.507 184.694C375.383 184.855 375.253 185.005 375.134 185.166C372.875 188.068 370.906 191.185 369.254 194.47C369.66 190.783 369.182 187.051 367.859 183.585C366.521 180.361 364.017 177.644 361.808 174.856C359.158 171.507 353.719 172.969 353.252 177.214V177.333C353.598 177.52 353.919 177.717 354.216 177.924C354.61 178.188 354.916 178.564 355.092 179.004C355.269 179.444 355.308 179.927 355.206 180.389C355.103 180.852 354.863 181.273 354.518 181.597C354.172 181.921 353.736 182.133 353.268 182.206H353.221C353.336 183.386 353.542 184.556 353.838 185.705C354.69 188.915 356.197 191.915 358.264 194.516C360.33 197.117 362.912 199.263 365.847 200.82L366.423 201.111C364.76 205.806 363.714 210.697 363.311 215.661C363.089 218.595 363.102 221.542 363.353 224.473V224.369C362.716 221.122 360.98 218.194 358.437 216.076C354.652 212.965 349.311 211.825 345.225 209.337C344.927 209.145 344.593 209.014 344.244 208.951C343.895 208.889 343.536 208.895 343.19 208.971C342.843 209.046 342.515 209.189 342.223 209.392C341.932 209.594 341.683 209.852 341.492 210.151C341.148 210.689 341.005 211.332 341.087 211.965V212.074C341.696 212.321 342.288 212.607 342.861 212.929C343.192 213.116 343.514 213.308 343.825 213.52C344.219 213.784 344.524 214.16 344.701 214.6C344.877 215.04 344.917 215.522 344.814 215.985C344.712 216.448 344.472 216.869 344.126 217.193C343.78 217.517 343.345 217.729 342.876 217.802H342.731C343.771 220.279 345.23 222.559 347.045 224.54C349.286 226.944 351.995 228.865 355.005 230.185C358.016 231.505 361.264 232.197 364.551 232.217C365.446 236.095 366.74 239.87 368.414 243.481H382.196C382.248 243.326 382.29 243.17 382.336 243.015C381.06 243.096 379.778 243.021 378.52 242.792L381.59 239.018L381.652 238.94C382.171 238.298 382.689 237.665 383.208 237.023C383.237 235.053 383.012 233.088 382.539 231.175L382.533 231.196ZM363.695 227.671L363.576 227.407C363.576 227.21 363.576 227.018 363.576 226.821C363.576 226.769 363.576 226.712 363.576 226.661C363.617 226.997 363.659 227.34 363.711 227.697L363.695 227.671Z" fill="#CCCCCC"/>
<path d="M414.029 69.6855H310.722C310.495 69.6855 310.277 69.5954 310.117 69.435C309.956 69.2746 309.866 69.0571 309.866 68.8302C309.866 68.6034 309.956 68.3858 310.117 68.2254C310.277 68.065 310.495 67.9749 310.722 67.9749H414.029C414.256 67.9749 414.474 68.065 414.634 68.2254C414.795 68.3858 414.885 68.6034 414.885 68.8302C414.885 69.0571 414.795 69.2746 414.634 69.435C414.474 69.5954 414.256 69.6855 414.029 69.6855Z" fill="#CACACA"/>
<path d="M316.234 65.5024C317.623 65.5024 318.749 64.3536 318.749 62.9365C318.749 61.5194 317.623 60.3706 316.234 60.3706C314.845 60.3706 313.719 61.5194 313.719 62.9365C313.719 64.3536 314.845 65.5024 316.234 65.5024Z" fill="#3F3D56"/>
<path d="M324.914 65.5024C326.303 65.5024 327.429 64.3536 327.429 62.9365C327.429 61.5194 326.303 60.3706 324.914 60.3706C323.525 60.3706 322.399 61.5194 322.399 62.9365C322.399 64.3536 323.525 65.5024 324.914 65.5024Z" fill="#3F3D56"/>
<path d="M333.594 65.5024C334.983 65.5024 336.109 64.3536 336.109 62.9365C336.109 61.5194 334.983 60.3706 333.594 60.3706C332.205 60.3706 331.08 61.5194 331.08 62.9365C331.08 64.3536 332.205 65.5024 333.594 65.5024Z" fill="#3F3D56"/>
<path d="M409.995 61.3607H404.369C404.257 61.3634 404.151 61.4101 404.073 61.4906C403.995 61.5712 403.953 61.679 403.954 61.7909C403.955 61.901 403.999 62.0062 404.077 62.0845C404.154 62.1628 404.259 62.2081 404.369 62.2108H409.995C410.051 62.2094 410.106 62.1971 410.157 62.1745C410.208 62.1519 410.254 62.1194 410.293 62.079C410.331 62.0385 410.361 61.9909 410.381 61.9388C410.402 61.8867 410.411 61.8312 410.41 61.7753C410.408 61.6658 410.364 61.5611 410.287 61.4836C410.209 61.4061 410.105 61.362 409.995 61.3607Z" fill="#3F3D56"/>
<path d="M409.995 62.9572H404.369C404.256 62.9572 404.148 63.002 404.068 63.0817C403.989 63.1614 403.944 63.2695 403.944 63.3823C403.944 63.495 403.989 63.6031 404.068 63.6828C404.148 63.7625 404.256 63.8073 404.369 63.8073H409.995C410.108 63.8073 410.216 63.7625 410.296 63.6828C410.375 63.6031 410.42 63.495 410.42 63.3823C410.42 63.2695 410.375 63.1614 410.296 63.0817C410.216 63.002 410.108 62.9572 409.995 62.9572Z" fill="#3F3D56"/>
<path d="M409.995 64.5538H404.369C404.256 64.5538 404.148 64.5985 404.068 64.6783C403.989 64.758 403.944 64.8661 403.944 64.9788C403.944 65.0915 403.989 65.1997 404.068 65.2794C404.148 65.3591 404.256 65.4039 404.369 65.4039H409.995C410.108 65.4039 410.216 65.3591 410.296 65.2794C410.375 65.1997 410.42 65.0915 410.42 64.9788C410.42 64.8661 410.375 64.758 410.296 64.6783C410.216 64.5985 410.108 64.5538 409.995 64.5538Z" fill="#3F3D56"/>
<path d="M182.489 148.113C182.069 148.113 181.654 148.196 181.266 148.357C180.879 148.518 180.527 148.754 180.23 149.051C179.934 149.348 179.699 149.701 179.54 150.089C179.38 150.477 179.299 150.892 179.3 151.312V245.897H245.574V151.312C245.574 150.892 245.492 150.476 245.332 150.088C245.172 149.7 244.937 149.348 244.64 149.05C244.343 148.753 243.991 148.518 243.603 148.357C243.215 148.196 242.799 148.113 242.379 148.113H182.489ZM212.631 201.857C210.758 201.847 208.965 201.099 207.641 199.776C206.316 198.452 205.568 196.659 205.558 194.787V183.875C205.558 182 206.304 180.201 207.63 178.876C208.956 177.55 210.755 176.805 212.631 176.805C214.507 176.805 216.306 177.55 217.632 178.876C218.959 180.201 219.704 182 219.704 183.875V194.787C219.693 196.658 218.944 198.45 217.62 199.774C216.296 201.098 214.504 201.846 212.631 201.857Z" fill="#E6E6E6"/>
<path d="M179.082 242.87V251.998C179.084 252.47 179.272 252.923 179.606 253.257C179.94 253.591 180.393 253.78 180.866 253.781H243.997C244.469 253.777 244.92 253.588 245.254 253.254C245.588 252.921 245.777 252.47 245.781 251.998V242.87H179.082Z" fill="#CCCCCC"/>
<path d="M341.559 0.5H85.5234C83.323 0.5 81.2128 1.3738 79.6569 2.92919C78.101 4.48457 77.2269 6.59412 77.2269 8.79376V181.506C77.2269 183.706 78.101 185.815 79.6569 187.371C81.2128 188.926 83.323 189.8 85.5234 189.8H341.559C343.759 189.8 345.87 188.926 347.426 187.371C348.981 185.815 349.856 183.706 349.856 181.506V8.79376C349.856 6.59412 348.981 4.48457 347.426 2.92919C345.87 1.3738 343.759 0.5 341.559 0.5Z" fill="#E6E6E6"/>
<path d="M339.418 6.49224H87.6649C86.4877 6.49499 85.3595 6.96406 84.5275 7.79672C83.6956 8.62937 83.2276 9.75772 83.2263 10.9346V179.371C83.229 180.546 83.6975 181.673 84.5294 182.505C85.3612 183.337 86.4885 183.805 87.6649 183.808H339.418C340.594 183.806 341.722 183.338 342.555 182.507C343.387 181.675 343.855 180.547 343.856 179.371V10.9346C343.855 9.75772 343.387 8.62937 342.555 7.79672C341.723 6.96406 340.595 6.49499 339.418 6.49224Z" fill="white"/>
<path d="M343.856 10.9346V179.371C343.855 180.547 343.387 181.675 342.555 182.507C341.722 183.338 340.594 183.806 339.418 183.808H250.645C240.826 174.71 232.77 163.88 226.88 151.861C226.493 151.084 226.123 150.299 225.771 149.508C220.408 137.86 217.165 125.35 216.194 112.564C216.126 111.782 216.074 111.009 216.038 110.206C215.914 108.174 215.862 106.121 215.862 104.053C215.842 90.3118 218.438 76.6926 223.51 63.9214C223.816 63.1283 224.137 62.3663 224.469 61.5628C234.67 37.5975 253.102 18.0659 276.442 6.49224H339.418C340.595 6.49499 341.723 6.96406 342.555 7.79672C343.387 8.62937 343.855 9.75772 343.856 10.9346Z" fill="#DF0024"/>
<path d="M326.765 29.6992H91.2272C90.9783 29.6992 90.7396 29.6004 90.5636 29.4244C90.3876 29.2485 90.2887 29.0098 90.2887 28.761C90.2887 28.5122 90.3876 28.2735 90.5636 28.0976C90.7396 27.9216 90.9783 27.8228 91.2272 27.8228H326.765C327.014 27.8228 327.253 27.9216 327.429 28.0976C327.605 28.2735 327.704 28.5122 327.704 28.761C327.704 29.0098 327.605 29.2485 327.429 29.4244C327.253 29.6004 327.014 29.6992 326.765 29.6992Z" fill="#CACACA"/>
<path d="M107.234 23.0435C110.267 23.0435 112.726 20.5324 112.726 17.4348C112.726 14.3372 110.267 11.8262 107.234 11.8262C104.202 11.8262 101.743 14.3372 101.743 17.4348C101.743 20.5324 104.202 23.0435 107.234 23.0435Z" fill="#3F3D56"/>
<path d="M126.202 23.0435C129.235 23.0435 131.693 20.5324 131.693 17.4348C131.693 14.3372 129.235 11.8262 126.202 11.8262C123.169 11.8262 120.711 14.3372 120.711 17.4348C120.711 20.5324 123.169 23.0435 126.202 23.0435Z" fill="#3F3D56"/>
<path d="M145.165 23.0435C148.198 23.0435 150.656 20.5324 150.656 17.4348C150.656 14.3372 148.198 11.8262 145.165 11.8262C142.132 11.8262 139.674 14.3372 139.674 17.4348C139.674 20.5324 142.132 23.0435 145.165 23.0435Z" fill="#3F3D56"/>
<path d="M315.347 13.2154H301.865C301.628 13.2603 301.414 13.3867 301.26 13.5727C301.106 13.7586 301.022 13.9925 301.022 14.234C301.022 14.4754 301.106 14.7093 301.26 14.8952C301.414 15.0812 301.628 15.2076 301.865 15.2525H315.347C315.585 15.2076 315.799 15.0812 315.953 14.8952C316.107 14.7093 316.191 14.4754 316.191 14.234C316.191 13.9925 316.107 13.7586 315.953 13.5727C315.799 13.3867 315.585 13.2603 315.347 13.2154Z" fill="#3F3D56"/>
<path d="M315.347 17.0409H301.865C301.628 17.0858 301.414 17.2122 301.26 17.3982C301.106 17.5841 301.022 17.818 301.022 18.0594C301.022 18.3009 301.106 18.5348 301.26 18.7207C301.414 18.9067 301.628 19.0331 301.865 19.078H315.347C315.585 19.0331 315.799 18.9067 315.953 18.7207C316.107 18.5348 316.191 18.3009 316.191 18.0594C316.191 17.818 316.107 17.5841 315.953 17.3982C315.799 17.2122 315.585 17.0858 315.347 17.0409Z" fill="#3F3D56"/>
<path d="M315.347 20.8612H301.865C301.625 20.9033 301.407 21.0287 301.25 21.2155C301.093 21.4023 301.007 21.6384 301.007 21.8824C301.007 22.1263 301.093 22.3624 301.25 22.5492C301.407 22.736 301.625 22.8614 301.865 22.9035H315.347C315.588 22.8614 315.805 22.736 315.962 22.5492C316.119 22.3624 316.205 22.1263 316.205 21.8824C316.205 21.6384 316.119 21.4023 315.962 21.2155C315.805 21.0287 315.588 20.9033 315.347 20.8612Z" fill="#3F3D56"/>
<path d="M163.329 84.4069H130.387C129.144 84.4069 128.136 85.4142 128.136 86.6566V90.1607C128.136 91.4032 129.144 92.4104 130.387 92.4104H163.329C164.572 92.4104 165.58 91.4032 165.58 90.1607V86.6566C165.58 85.4142 164.572 84.4069 163.329 84.4069Z" fill="#DF0024"/>
<path d="M182.344 100.414H111.372C110.129 100.414 109.122 101.421 109.122 102.664V106.168C109.122 107.41 110.129 108.417 111.372 108.417H182.344C183.587 108.417 184.594 107.41 184.594 106.168V102.664C184.594 101.421 183.587 100.414 182.344 100.414Z" fill="#E6E6E6"/>
<path d="M182.344 116.421H111.372C110.129 116.421 109.122 117.428 109.122 118.671V122.175C109.122 123.417 110.129 124.424 111.372 124.424H182.344C183.587 124.424 184.594 123.417 184.594 122.175V118.671C184.594 117.428 183.587 116.421 182.344 116.421Z" fill="#E6E6E6"/>
<path d="M115.282 174.151C115.279 177.449 114.684 180.72 113.524 183.808H87.6649C86.4885 183.805 85.3612 183.337 84.5294 182.505C83.6975 181.673 83.229 180.546 83.2263 179.371V146.828C87.1809 146.196 91.2256 146.429 95.0813 147.511C98.9371 148.593 102.512 150.499 105.56 153.097C108.607 155.694 111.054 158.922 112.733 162.557C114.412 166.191 115.281 170.147 115.282 174.151Z" fill="#DF0024"/>
<path d="M344.089 63.9214V61.5628H304.5V34.1934H302.145V61.5628H256.774V34.1934H254.42V61.5628H224.454C224.122 62.3455 223.795 63.1179 223.494 63.9214H254.42V110.206H216.022C216.059 110.999 216.111 111.761 216.178 112.564H254.42V149.487H225.771C226.116 150.278 226.486 151.063 226.88 151.84H254.42V182.875H256.774V151.861H302.145V182.895H304.5V151.861H344.089V149.508H304.5C304.5 139.716 308.39 130.326 315.316 123.401C322.241 116.477 331.635 112.586 341.429 112.585H344.089V110.226H304.5V63.9214H344.089ZM302.145 149.487H256.774V112.564H302.145V149.487ZM302.145 110.206H256.774V109.283C256.773 103.326 257.946 97.4278 260.226 91.9243C262.506 86.4208 265.848 81.4201 270.061 77.2078C274.274 72.9955 279.276 69.6541 284.781 67.3744C290.286 65.0947 296.187 63.9214 302.145 63.9214V110.206Z" fill="black"/>
<path d="M312.215 166.334C311.71 166.357 311.209 166.224 310.782 165.954C310.354 165.683 310.02 165.288 309.825 164.821C309.63 164.354 309.583 163.839 309.69 163.344C309.798 162.85 310.055 162.401 310.426 162.057C310.489 161.814 310.535 161.637 310.598 161.389C310.598 161.337 310.551 161.28 310.53 161.228C310.022 160.026 309.169 159.001 308.079 158.282C306.99 157.563 305.712 157.182 304.406 157.187C303.101 157.192 301.826 157.583 300.742 158.31C299.658 159.037 298.813 160.069 298.313 161.275C296.317 166.08 293.776 170.901 293.128 175.986C292.852 178.235 292.968 180.515 293.47 182.724C288.78 172.493 286.344 161.374 286.33 150.119C286.328 147.295 286.483 144.472 286.797 141.665C287.056 139.363 287.417 137.079 287.881 134.812C290.396 122.506 295.794 110.971 303.634 101.155C307.436 99.0895 310.513 95.9069 312.449 92.0372C313.148 90.6469 313.642 89.1628 313.916 87.6311C313.491 87.6882 313.055 87.7245 312.625 87.7504H312.169C311.699 87.7714 311.232 87.6561 310.826 87.4185C310.42 87.181 310.091 86.8311 309.879 86.4111C309.667 85.9911 309.581 85.5189 309.631 85.0511C309.681 84.5834 309.866 84.1401 310.162 83.7746L310.717 83.0903L311.567 82.0536C311.598 82.0173 311.629 81.9862 311.655 81.9499C311.982 81.5456 312.303 81.1568 312.625 80.7525C312.038 79.8386 311.246 79.0737 310.312 78.5184C307.077 76.6212 302.612 77.9326 300.274 80.8614C297.935 83.7901 297.489 87.8903 298.303 91.5448C298.998 94.6549 300.512 97.5422 302.218 100.269C302.042 100.497 301.86 100.715 301.7 100.937C298.494 105.06 295.7 109.485 293.356 114.15C293.927 108.922 293.247 103.633 291.37 98.7189C289.472 94.1418 285.915 90.28 282.778 86.3249C279.014 81.5663 271.293 83.6398 270.629 89.6735C270.629 89.7305 270.629 89.7875 270.629 89.8446C271.096 90.1072 271.552 90.3871 271.998 90.6843C272.559 91.0574 272.995 91.5917 273.247 92.2168C273.498 92.8419 273.555 93.5286 273.409 94.1866C273.263 94.8445 272.922 95.4429 272.429 95.9031C271.937 96.3633 271.316 96.6636 270.65 96.7647H270.582C270.747 98.4434 271.04 100.107 271.459 101.741C272.668 106.301 274.808 110.562 277.744 114.257C280.68 117.951 284.348 120.998 288.518 123.206C288.788 123.346 289.037 123.486 289.333 123.621C286.978 130.289 285.5 137.234 284.935 144.283C284.62 148.443 284.639 152.623 284.992 156.78V156.63C284.094 152.01 281.629 147.841 278.013 144.827C272.636 140.411 265.05 138.788 259.252 135.243C256.458 133.532 252.885 135.761 253.372 138.975C253.372 139.027 253.372 139.078 253.372 139.13C254.237 139.482 255.078 139.887 255.892 140.343C256.359 140.608 256.815 140.862 257.261 141.178C257.822 141.552 258.257 142.087 258.508 142.712C258.759 143.337 258.816 144.024 258.67 144.682C258.524 145.34 258.183 145.938 257.691 146.399C257.199 146.86 256.579 147.161 255.913 147.263H255.706C257.179 150.789 259.251 154.033 261.83 156.853C265.018 160.267 268.87 162.993 273.15 164.865C277.43 166.737 282.047 167.715 286.719 167.739C287.989 173.245 289.826 178.606 292.2 183.735H311.78C311.847 183.517 311.915 183.289 311.977 183.072C310.164 183.185 308.345 183.078 306.558 182.75L310.914 177.39C310.949 177.36 310.98 177.325 311.007 177.287C311.743 176.374 312.49 175.467 313.226 174.56C313.262 171.766 312.942 168.979 312.272 166.266L312.215 166.334ZM285.459 161.321L285.288 160.943C285.288 160.673 285.288 160.399 285.288 160.119C285.288 160.041 285.288 159.963 285.288 159.885C285.355 160.367 285.407 160.855 285.48 161.337L285.459 161.321Z" fill="#2F2E41"/>
<path d="M137.895 120.557V94.2558C137.895 92.2552 137.501 90.2742 136.734 88.4261C135.968 86.578 134.845 84.899 133.429 83.4851C132.013 82.0712 130.333 80.9501 128.483 80.186C126.634 79.4218 124.652 79.0295 122.65 79.0316H66.9029C64.9032 79.0316 62.9231 79.4254 61.0757 80.1905C59.2283 80.9557 57.5497 82.0772 56.136 83.4909C54.7222 84.9047 53.6009 86.5831 52.8361 88.4301C52.0714 90.2772 51.6781 92.2568 51.6788 94.2558V238.557C51.6781 240.556 52.0714 242.535 52.8361 244.383C53.6009 246.23 54.7222 247.908 56.136 249.322C57.5497 250.735 59.2283 251.857 61.0757 252.622C62.9231 253.387 64.9032 253.781 66.9029 253.781H122.65C124.652 253.783 126.634 253.391 128.483 252.627C130.333 251.863 132.013 250.741 133.429 249.328C134.845 247.914 135.968 246.235 136.734 244.387C137.501 242.538 137.895 240.557 137.895 238.557V139.281C138.021 139.281 138.146 139.256 138.262 139.208C138.379 139.159 138.484 139.089 138.573 139C138.663 138.911 138.733 138.805 138.781 138.689C138.83 138.572 138.854 138.448 138.854 138.322V121.516C138.854 121.262 138.753 121.018 138.573 120.838C138.394 120.658 138.15 120.557 137.895 120.557Z" fill="#E6E6E6"/>
<path d="M134.639 94.3595V238.464C134.64 241.46 133.458 244.336 131.348 246.465C129.239 248.594 126.374 249.804 123.376 249.831H67.2503C64.2344 249.831 61.342 248.634 59.2095 246.502C57.0769 244.37 55.8789 241.478 55.8789 238.464V94.3595C55.8789 91.3446 57.0769 88.4532 59.2095 86.3213C61.342 84.1895 64.2344 82.9918 67.2503 82.9918H74.0482C73.7131 83.8122 73.585 84.7024 73.6752 85.5839C73.7654 86.4655 74.0712 87.3113 74.5656 88.0468C75.0601 88.7823 75.7279 89.3849 76.5103 89.8015C77.2927 90.2181 78.1656 90.4358 79.0521 90.4355H110.988C111.701 90.4328 112.405 90.2898 113.062 90.0147C113.718 89.7397 114.315 89.3379 114.816 88.8324C115.317 88.327 115.714 87.7277 115.983 87.0688C116.253 86.41 116.39 85.7045 116.386 84.9927C116.382 84.2997 116.246 83.6139 115.987 82.9711H123.247C124.743 82.9684 126.226 83.2611 127.609 83.8324C128.993 84.4038 130.25 85.2425 131.308 86.3006C132.367 87.3586 133.206 88.6152 133.777 89.9981C134.349 91.381 134.641 92.8632 134.639 94.3595Z" fill="white"/>
<path d="M123.532 245.373C123.532 246.866 123.485 248.347 123.392 249.816H67.2503C64.2344 249.816 61.342 248.618 59.2095 246.486C57.0769 244.354 55.8789 241.463 55.8789 238.448V174.239C74.1301 175.159 91.3297 183.055 103.921 196.295C116.513 209.534 123.534 227.105 123.532 245.373Z" fill="#F2F2F2"/>
<path d="M51.9847 135.274C51.6409 135.274 51.3112 135.137 51.0681 134.894C50.8249 134.651 50.6884 134.321 50.6884 133.978V125.166C50.6884 124.822 50.8249 124.492 51.0681 124.249C51.3112 124.006 51.6409 123.87 51.9847 123.87C52.3285 123.87 52.6582 124.006 52.9013 124.249C53.1445 124.492 53.281 124.822 53.281 125.166V133.978C53.281 134.321 53.1445 134.651 52.9013 134.894C52.6582 135.137 52.3285 135.274 51.9847 135.274Z" fill="#E6E6E6"/>
<path d="M102.137 128.239H88.3805C87.1376 128.239 86.1301 129.247 86.1301 130.489V133.993C86.1301 135.236 87.1376 136.243 88.3805 136.243H102.137C103.38 136.243 104.388 135.236 104.388 133.993V130.489C104.388 129.247 103.38 128.239 102.137 128.239Z" fill="#DF0024"/>
<path d="M121.152 144.246H69.3659C68.123 144.246 67.1155 145.254 67.1155 146.496V150C67.1155 151.243 68.123 152.25 69.3659 152.25H121.152C122.395 152.25 123.402 151.243 123.402 150V146.496C123.402 145.254 122.395 144.246 121.152 144.246Z" fill="#E6E6E6"/>
<path d="M121.152 160.253H69.3659C68.123 160.253 67.1155 161.261 67.1155 162.503V166.007C67.1155 167.25 68.123 168.257 69.3659 168.257H121.152C122.395 168.257 123.402 167.25 123.402 166.007V162.503C123.402 161.261 122.395 160.253 121.152 160.253Z" fill="#E6E6E6"/>
<path d="M108.691 241.62C108.54 241.627 108.388 241.604 108.245 241.553C108.102 241.501 107.97 241.421 107.858 241.319C107.746 241.216 107.655 241.093 107.591 240.955C107.526 240.817 107.49 240.668 107.483 240.516C107.476 240.348 107.505 240.181 107.569 240.025C107.632 239.869 107.729 239.729 107.851 239.614L107.934 239.303L107.903 239.226C107.666 238.661 107.267 238.18 106.757 237.841C106.247 237.503 105.648 237.322 105.036 237.322C104.423 237.322 103.825 237.503 103.315 237.841C102.805 238.18 102.406 238.661 102.168 239.226C101.235 241.48 100.037 243.746 99.7467 246.13C99.6158 247.185 99.6703 248.255 99.9075 249.292C97.7058 244.49 96.5617 239.272 96.5526 233.99C96.5516 232.665 96.626 231.341 96.7755 230.025C96.8948 228.941 97.0659 227.873 97.2941 226.806C98.4732 221.031 101.005 215.618 104.683 211.011C106.472 210.045 107.921 208.552 108.831 206.735C109.159 206.08 109.392 205.382 109.521 204.661C109.319 204.661 109.117 204.703 108.914 204.718H108.723C108.572 204.725 108.422 204.703 108.28 204.651C108.138 204.6 108.008 204.521 107.897 204.42C107.785 204.318 107.695 204.196 107.631 204.059C107.568 203.923 107.531 203.775 107.525 203.625C107.511 203.345 107.601 203.069 107.779 202.852L108.038 202.531C108.173 202.365 108.308 202.204 108.437 202.038L108.479 201.992L108.935 201.432C108.657 201.007 108.284 200.652 107.846 200.395C106.332 199.509 104.216 200.126 103.138 201.494C102.059 202.863 101.831 204.796 102.215 206.512C102.59 207.971 103.211 209.356 104.051 210.607L103.802 210.918C102.297 212.859 100.985 214.942 99.8867 217.138C100.155 214.679 99.8353 212.192 98.9534 209.881C98.0615 207.735 96.3918 205.921 94.9192 204.065C94.5318 203.565 94.0046 203.191 93.4045 202.99C92.8043 202.789 92.158 202.771 91.5474 202.937C90.9368 203.104 90.3893 203.448 89.9742 203.925C89.5591 204.403 89.295 204.993 89.2153 205.62C89.2153 205.646 89.2153 205.677 89.2153 205.703C89.4331 205.828 89.6457 205.957 89.8583 206.097C90.1267 206.269 90.3358 206.519 90.4574 206.813C90.579 207.108 90.6072 207.433 90.5382 207.744C90.4692 208.055 90.3063 208.337 90.0715 208.552C89.8368 208.768 89.5415 208.906 89.2257 208.948H89.1531C89.2299 209.737 89.3668 210.518 89.5627 211.286C90.1313 213.425 91.1359 215.425 92.5136 217.158C93.8913 218.891 95.6124 220.321 97.5689 221.358L97.9474 221.549C96.8391 224.679 96.1419 227.939 95.8733 231.248C95.7151 233.199 95.7151 235.16 95.8733 237.111V237.043C95.4542 234.873 94.2962 232.915 92.5962 231.502C90.0761 229.429 86.5138 228.667 83.7811 227.003C83.3783 226.747 82.8907 226.661 82.4246 226.763C81.9584 226.865 81.5514 227.146 81.2921 227.547C81.0651 227.906 80.9698 228.333 81.0225 228.755V228.827C81.4282 228.992 81.8231 229.183 82.2048 229.397C82.4277 229.522 82.6403 229.651 82.8477 229.791C83.118 229.962 83.329 230.213 83.4519 230.508C83.5748 230.803 83.6036 231.129 83.5345 231.441C83.4653 231.754 83.3015 232.037 83.0654 232.253C82.8293 232.469 82.5324 232.607 82.2151 232.648H82.1166C82.8106 234.301 83.7841 235.823 84.9945 237.147C86.4877 238.75 88.293 240.03 90.2993 240.91C92.3056 241.79 94.4706 242.25 96.6614 242.263C97.2633 244.848 98.1321 247.364 99.2541 249.769H108.442C108.474 249.665 108.505 249.562 108.531 249.458C107.681 249.514 106.827 249.464 105.99 249.308C106.674 248.473 107.354 247.628 108.064 246.794L108.105 246.742C108.448 246.317 108.8 245.892 109.143 245.461C109.163 244.15 109.013 242.841 108.697 241.569L108.691 241.62ZM96.1377 239.272L96.0548 239.091C96.0548 238.966 96.0548 238.837 96.0548 238.702C96.0548 238.666 96.0548 238.629 96.0548 238.598C96.0859 238.821 96.1118 239.049 96.1429 239.277L96.1377 239.272Z" fill="#CCCCCC"/>
<path d="M51.7254 118.168C51.3816 118.168 51.0519 118.031 50.8088 117.788C50.5657 117.545 50.4291 117.216 50.4291 116.872V108.06C50.4291 107.716 50.5657 107.386 50.8088 107.143C51.0519 106.9 51.3816 106.764 51.7254 106.764C52.0692 106.764 52.399 106.9 52.6421 107.143C52.8852 107.386 53.0218 107.716 53.0218 108.06V116.872C53.0218 117.216 52.8852 117.545 52.6421 117.788C52.399 118.031 52.0692 118.168 51.7254 118.168Z" fill="#E6E6E6"/>
<path d="M86.2078 84.4743C86.2078 84.1306 86.3444 83.801 86.5875 83.558C86.8306 83.315 87.1604 83.1784 87.5042 83.1784H96.3192C96.663 83.1784 96.9928 83.315 97.2359 83.558C97.479 83.801 97.6155 84.1306 97.6155 84.4743C97.6155 84.818 97.479 85.1476 97.2359 85.3907C96.9928 85.6337 96.663 85.7702 96.3192 85.7702H87.5042C87.1604 85.7702 86.8306 85.6337 86.5875 85.3907C86.3444 85.1476 86.2078 84.818 86.2078 84.4743Z" fill="white"/>
<path d="M51.9847 150.306C51.6409 150.306 51.3112 150.17 51.0681 149.926C50.8249 149.683 50.6884 149.354 50.6884 149.01V140.198C50.6884 139.854 50.8249 139.525 51.0681 139.282C51.3112 139.039 51.6409 138.902 51.9847 138.902C52.3285 138.902 52.6582 139.039 52.9013 139.282C53.1445 139.525 53.281 139.854 53.281 140.198V149.01C53.281 149.354 53.1445 149.683 52.9013 149.926C52.6582 150.17 52.3285 150.306 51.9847 150.306Z" fill="#E6E6E6"/>
<path d="M101.245 85.7702C101.961 85.7702 102.542 85.19 102.542 84.4743C102.542 83.7586 101.961 83.1784 101.245 83.1784C100.529 83.1784 99.9489 83.7586 99.9489 84.4743C99.9489 85.19 100.529 85.7702 101.245 85.7702Z" fill="white"/>
<path d="M446.386 253.776L1.61447 253.937C1.45082 253.937 1.29387 253.872 1.17815 253.756C1.06243 253.64 0.997421 253.483 0.997421 253.32C0.997421 253.156 1.06243 252.999 1.17815 252.884C1.29387 252.768 1.45082 252.703 1.61447 252.703L446.386 252.542C446.549 252.542 446.706 252.607 446.822 252.723C446.938 252.839 447.003 252.995 447.003 253.159C447.003 253.323 446.938 253.48 446.822 253.595C446.706 253.711 446.549 253.776 446.386 253.776Z" fill="#CACACA"/>
<path d="M191.185 117.706L188.846 118.225C188.83 117.247 188.706 116.273 188.478 115.322C188.266 116.489 187.818 117.6 187.161 118.588L173.746 121.449L160.861 107.858C160.861 101.062 164.62 95.899 171.387 95.899C171.792 95.899 172.217 95.899 172.642 95.9612C176.299 95.3475 180.051 96.1766 183.109 98.2738C186.166 100.371 188.29 103.573 189.033 107.204C193.829 111.906 192.087 114.684 191.185 117.706Z" fill="#2F2E41"/>
<path d="M197.78 276.636H202.649L204.962 257.871H197.78V276.636Z" fill="#FFB6B6"/>
<path d="M196.572 274.236L204.267 273.779V277.071L211.584 282.12C211.936 282.375 212.199 282.733 212.336 283.146C212.473 283.558 212.477 284.003 212.348 284.418C212.218 284.832 211.962 285.196 211.615 285.457C211.267 285.718 210.846 285.864 210.412 285.873H201.249L199.694 282.617L199.082 285.873H195.629L196.572 274.236Z" fill="#2F2E41"/>
<path d="M140.757 271.338L144.994 273.743L156.272 258.56L150.024 255.015L140.757 271.338Z" fill="#FFB6B6"/>
<path d="M140.897 268.658L147.815 272.053L146.192 274.92L150.06 282.918C150.241 283.313 150.293 283.755 150.21 284.181C150.126 284.607 149.911 284.997 149.594 285.294C149.277 285.591 148.875 285.782 148.444 285.838C148.013 285.894 147.575 285.814 147.192 285.608L139.223 281.088L139.461 277.46L137.314 279.989L134.312 278.284L140.897 268.658Z" fill="#2F2E41"/>
<path d="M215.768 120.993C214.64 121.161 213.624 121.769 212.944 122.684C212.263 123.6 211.974 124.747 212.139 125.876C212.175 126.126 212.232 126.372 212.31 126.612L204.864 133.055L207.679 138.539L218.05 129.287C219.037 128.891 219.845 128.146 220.318 127.193C220.791 126.24 220.896 125.147 220.614 124.121C220.332 123.096 219.682 122.21 218.788 121.633C217.894 121.056 216.819 120.828 215.768 120.993Z" fill="#FFB6B6"/>
<path d="M208.27 143.153C205.787 146.916 200.218 150.545 191.952 153.769C191.497 153.95 191.009 154.035 190.519 154.019C190.029 154.003 189.548 153.886 189.105 153.675C185.994 152.255 183.987 146.978 183.801 146.47L177.76 138.327C177.651 138.208 174.825 134.999 175.167 131.852C175.239 131.192 175.454 130.556 175.796 129.987C176.138 129.418 176.599 128.929 177.148 128.556C181.721 125.166 191.968 136.932 193.295 138.498L199.984 134.424L204.858 132.252L208.789 127.467L214.327 133.128L209.349 141.048C209.079 141.792 208.717 142.499 208.27 143.153Z" fill="#2F2E41"/>
<path d="M190.9 157.563C190.9 157.563 205.211 180.371 202.618 182.963C200.026 185.555 195.971 186.234 195.971 186.234L187.062 174.669L190.9 157.563Z" fill="#2F2E41"/>
<path d="M178.247 126.462L184.988 131.023C188.124 133.143 190.482 136.228 191.705 139.809C192.928 143.39 192.949 147.272 191.765 150.866L189.868 156.635L178.247 126.462Z" fill="#2F2E41"/>
<path d="M166.321 188.665L165.419 191.806L162.344 229.667L146.969 258.306L154.307 263.542L175.271 236.302L183.562 209.254L196.583 269.135L206.362 268.435L199.569 185.409L186.679 162.042L166.321 188.665Z" fill="#2F2E41"/>
<path d="M177.101 127.607L186.487 135.279C188.548 136.961 190.033 139.244 190.734 141.81C191.05 142.975 191.2 144.18 191.18 145.387L190.9 162.042L199.507 185.036C199.507 185.036 176.173 193.848 173.062 186.073C169.951 178.298 177.101 127.607 177.101 127.607Z" fill="#DF0024"/>
<path d="M179.896 190.111C168.24 190.111 165.377 190.199 165.217 190.158L165.03 190.121V183.113L167.877 170.522C167.545 166.614 166.767 161.456 166.84 157.045C167.094 141.09 166.321 125.508 166.321 125.508L172.492 119.806L175.292 121.63L180.477 126.814C186.518 141.686 191.314 155.681 191.366 156.578L191.745 172.056L190.189 178.277C183.137 183.263 189.567 190.111 179.896 190.111Z" fill="#2F2E41"/>
<path d="M168.924 139.405L167.509 148.248L177.101 152.203L168.924 139.405Z" fill="black"/>
<path d="M178.59 118.157C183.776 118.157 187.98 113.954 187.98 108.77C187.98 103.585 183.776 99.3824 178.59 99.3824C173.403 99.3824 169.199 103.585 169.199 108.77C169.199 113.954 173.403 118.157 178.59 118.157Z" fill="#FFB6B6"/>
<path d="M162.852 156.407C165.351 159.302 168.742 161.284 172.491 162.042C176.24 162.8 180.134 162.291 183.562 160.596L185.605 159.559L162.852 156.407Z" fill="black"/>
<path d="M195.535 154.246C194.774 153.392 193.706 152.876 192.564 152.81C191.423 152.744 190.302 153.133 189.448 153.893C189.259 154.063 189.086 154.248 188.929 154.448L179.445 151.783L176.422 157.154L189.868 160.725C190.743 161.325 191.809 161.583 192.862 161.45C193.915 161.317 194.883 160.802 195.582 160.003C196.281 159.204 196.662 158.177 196.654 157.116C196.645 156.054 196.247 155.033 195.535 154.246Z" fill="#FFB6B6"/>
<path d="M172.901 160.202C168.395 160.202 162.292 157.563 155.053 152.426C154.649 152.147 154.307 151.787 154.05 151.368C153.793 150.949 153.626 150.482 153.56 149.995C153.041 146.615 156.324 142.038 156.671 141.603L160.14 132.075C160.182 131.92 161.296 127.799 164.107 126.332C164.698 126.029 165.347 125.858 166.01 125.829C166.673 125.801 167.335 125.916 167.949 126.166C173.301 128.115 169.121 143.148 168.551 145.117L175.634 148.45L180.135 151.322L186.295 151.965L184.625 159.704L175.266 159.916C174.492 160.109 173.698 160.204 172.901 160.202Z" fill="#2F2E41"/>
<path d="M189.852 102.617C189.1 103.597 186.508 104.457 183.433 105.157C183.433 105.095 183.433 105.027 183.433 104.965C183.416 103.987 183.294 103.014 183.07 102.062C182.856 103.227 182.408 104.336 181.753 105.323C181.701 105.401 181.654 105.473 181.597 105.546C178.958 106.064 176.168 106.468 173.98 106.738C175.484 112.155 181.239 116.587 180.627 119.889L163.734 123.336C163.838 121.967 163.728 120.591 163.407 119.256C163.09 121.026 162.235 122.655 160.959 123.922L159.528 124.217L159.098 122.107C155.39 113.212 160.56 104.099 169.023 99.3927C170.531 97.1296 172.874 95.5564 175.541 95.0178L177.646 94.5875C180.33 94.0348 183.123 94.5701 185.412 96.0758C187.701 97.5816 189.298 99.9344 189.852 102.617Z" fill="#2F2E41"/>
<path d="M230.194 272.815L230.443 267.196C233.048 265.806 235.952 265.072 238.905 265.055C234.84 268.378 235.348 274.78 232.595 279.248C231.726 280.635 230.555 281.809 229.17 282.681C227.785 283.553 226.22 284.102 224.594 284.287L221.192 286.36C220.725 283.76 220.827 281.089 221.493 278.533C222.158 275.976 223.37 273.594 225.045 271.551C225.996 270.413 227.087 269.4 228.291 268.534C229.115 270.69 230.194 272.815 230.194 272.815Z" fill="#F2F2F2"/>
<path d="M238.449 286.5H120.027C119.863 286.5 119.706 286.435 119.59 286.319C119.474 286.204 119.409 286.047 119.409 285.883C119.409 285.72 119.474 285.563 119.59 285.447C119.706 285.331 119.863 285.266 120.027 285.266H238.449C238.613 285.266 238.77 285.331 238.885 285.447C239.001 285.563 239.066 285.72 239.066 285.883C239.066 286.047 239.001 286.204 238.885 286.319C238.77 286.435 238.613 286.5 238.449 286.5Z" fill="#CACACA"/>
</svg>
